<svg version="1.1" xmlns="http://www.w3.org/2000/svg" width="2585" height="800">
<path d="M0 0 C2.29 -0.01 4.59 -0.01 6.88 -0.02 C11.64 -0.03 16.39 -0.04 21.15 -0.03 C27.19 -0.03 33.23 -0.06 39.26 -0.1 C43.98 -0.12 48.7 -0.12 53.42 -0.12 C55.64 -0.12 57.87 -0.13 60.09 -0.15 C77.38 -0.26 95.28 0.51 111.07 8.34 C112.04 8.81 112.04 8.81 113.03 9.29 C117.73 11.6 122.41 13.95 127.07 16.34 C127.07 17 127.07 17.66 127.07 18.34 C127.78 18.58 128.48 18.83 129.2 19.09 C134.82 21.53 138.36 24.54 142.07 29.34 C143.25 30.26 143.25 30.26 144.45 31.2 C150.83 36.4 156.33 43.99 160.07 51.34 C160.07 52 160.07 52.66 160.07 53.34 C160.73 53.34 161.39 53.34 162.07 53.34 C163.08 55.77 164.08 58.21 165.07 60.65 C165.36 61.34 165.65 62.03 165.94 62.74 C167.16 65.75 168.07 68.05 168.07 71.34 C168.73 71.34 169.39 71.34 170.07 71.34 C170.28 72.27 170.48 73.21 170.69 74.18 C171.44 77.68 172.2 81.18 172.96 84.68 C173.28 86.19 173.61 87.7 173.93 89.21 C174.4 91.39 174.87 93.57 175.35 95.75 C175.49 96.42 175.63 97.09 175.78 97.78 C176.42 100.68 177.13 103.49 178.08 106.31 C179.27 109.94 180.01 113.62 180.73 117.37 C180.88 118.12 181.03 118.88 181.18 119.65 C181.81 122.85 182.42 126.06 183.04 129.26 C183.5 131.61 183.96 133.96 184.42 136.3 C184.55 137.02 184.69 137.74 184.83 138.47 C185.63 142.56 186.71 146.41 188.07 150.34 C188.65 152.83 189.19 155.33 189.7 157.84 C189.96 159.1 190.22 160.37 190.49 161.68 C191.02 164.98 191.19 168 191.07 171.34 C192.3 171.3 193.53 171.27 194.79 171.23 C209.09 170.96 222.92 172.35 237.07 174.34 C237.07 175 237.07 175.66 237.07 176.34 C237.67 176.38 238.27 176.42 238.89 176.46 C245.36 177.01 251.43 178.24 257.7 179.9 C258.61 180.13 259.52 180.37 260.45 180.61 C262.66 181.18 264.87 181.75 267.07 182.34 C267.07 183 267.07 183.66 267.07 184.34 C267.94 184.46 268.81 184.58 269.71 184.71 C281.17 186.85 291.8 193.03 302.07 198.34 C302.73 198.67 303.39 199 304.07 199.34 C304.07 200 304.07 200.66 304.07 201.34 C304.75 201.58 305.44 201.83 306.14 202.09 C309.64 203.58 312.79 205.4 316.07 207.34 C316.07 208 316.07 208.66 316.07 209.34 C316.73 209.54 317.39 209.75 318.07 209.96 C322.21 211.86 325.51 214.52 329.07 217.34 C330.29 218.29 330.29 218.29 331.53 219.26 C346.04 230.74 346.04 230.74 351.07 237.34 C353.28 239.6 355.53 241.81 357.81 244 C361.47 247.55 364.33 251.01 367.07 255.34 C369.19 258.22 371.32 261.08 373.46 263.95 C375.07 266.34 375.07 266.34 375.07 268.34 C375.73 268.34 376.39 268.34 377.07 268.34 C378.08 270.12 379.08 271.92 380.07 273.71 C380.91 275.21 380.91 275.21 381.76 276.73 C383.07 279.34 383.07 279.34 383.07 281.34 C383.73 281.34 384.39 281.34 385.07 281.34 C391.01 293.76 396.64 306.18 401.32 319.15 C401.58 319.85 401.84 320.56 402.11 321.29 C403.65 325.65 404.57 329.73 405.07 334.34 C405.82 334.3 406.57 334.27 407.35 334.23 C417.79 333.95 426.46 335.57 434.57 342.46 C441.02 349.87 442.87 356.14 442.64 365.9 C442.65 367.38 442.65 367.38 442.67 368.9 C442.58 377.85 439.77 384.21 433.76 390.8 C424.86 398.9 412.38 398.65 401.07 398.34 C400.74 397.02 400.41 395.7 400.07 394.34 C400.73 394.34 401.39 394.34 402.07 394.34 C401.96 391.65 401.83 388.96 401.7 386.27 C401.67 385.52 401.64 384.77 401.61 383.99 C401.35 379.16 400.53 374.98 399.07 370.34 C398.37 367.53 397.72 364.72 397.07 361.9 C395.79 356.36 394.47 350.84 393.07 345.34 C392.41 345.34 391.75 345.34 391.07 345.34 C390.82 344.76 390.57 344.18 390.3 343.58 C388.72 339.97 387.11 336.41 385.32 332.9 C384.07 330.34 384.07 330.34 384.07 328.34 C383.41 328.34 382.75 328.34 382.07 328.34 C380.93 326.5 379.8 324.67 378.69 322.82 C373.3 314.53 366.37 305.87 358.07 300.34 C358.07 299.68 358.07 299.02 358.07 298.34 C357.53 298.09 356.99 297.85 356.43 297.59 C353.53 296.04 350.99 294.15 348.32 292.21 C318.43 271.13 284.67 267.38 249.23 273.4 C243.86 274.39 238.61 275.57 233.48 277.46 C230.85 278.42 228.19 279.27 225.52 280.13 C220.11 281.87 214.93 283.71 209.93 286.42 C206.46 288.13 202.76 289.21 199.07 290.34 C199.07 291 199.07 291.66 199.07 292.34 C196.52 294.06 196.52 294.06 193.2 295.96 C192.11 296.59 191.02 297.22 189.89 297.88 C187.07 299.34 187.07 299.34 185.07 299.34 C185.07 300 185.07 300.66 185.07 301.34 C183.39 302.84 183.39 302.84 181.2 304.46 C180.48 305 179.76 305.54 179.02 306.09 C177.07 307.34 177.07 307.34 175.07 307.34 C174.85 307.91 174.62 308.49 174.39 309.09 C173.07 311.34 173.07 311.34 170.88 312.98 C167.27 316.01 164.72 319.49 161.95 323.27 C161.42 323.98 160.9 324.68 160.36 325.4 C156.35 330.82 153.02 336.3 150.01 342.34 C149.25 343.85 149.25 343.85 148.48 345.4 C147.23 348.01 146.11 350.63 145.07 353.34 C144.41 353.34 143.75 353.34 143.07 353.34 C142.96 353.9 142.86 354.45 142.74 355.03 C141.97 358.95 141.18 362.86 140.31 366.77 C138.91 373.03 137.72 379.13 137.29 385.54 C137.07 387.34 137.07 387.34 136.07 388.34 C135.74 391.64 135.41 394.94 135.07 398.34 C42.01 398.34 -51.05 398.34 -146.93 398.34 C-146.6 396.69 -146.27 395.04 -145.93 393.34 C-145.91 390.6 -145.96 387.94 -146.11 385.21 C-146.16 384.43 -146.2 383.65 -146.24 382.85 C-146.81 374.58 -148.5 366.62 -150.4 358.57 C-151.28 354.83 -152.1 351.08 -152.93 347.34 C-153.59 347.34 -154.25 347.34 -154.93 347.34 C-155.74 345.42 -156.55 343.5 -157.36 341.59 C-157.82 340.52 -158.27 339.45 -158.73 338.35 C-159.67 335.99 -160.4 333.81 -160.93 331.34 C-161.59 331.34 -162.25 331.34 -162.93 331.34 C-164.4 329.25 -164.4 329.25 -165.99 326.52 C-166.78 325.18 -166.78 325.18 -167.59 323.82 C-168.93 321.34 -168.93 321.34 -169.93 318.34 C-170.92 318.01 -171.91 317.68 -172.93 317.34 C-173.95 315.68 -174.94 314.01 -175.93 312.34 C-182.74 304.81 -190.18 297.53 -198.93 292.34 C-198.93 291.68 -198.93 291.02 -198.93 290.34 C-199.57 290.11 -200.2 289.88 -200.86 289.65 C-203.4 288.56 -205.66 287.39 -208.05 286.02 C-239.18 268.57 -275.21 266.48 -309.38 276.02 C-310.76 276.47 -312.15 276.95 -313.52 277.46 C-316.15 278.42 -318.81 279.27 -321.48 280.13 C-326.89 281.87 -332.07 283.71 -337.07 286.42 C-340.54 288.13 -344.24 289.21 -347.93 290.34 C-347.93 291 -347.93 291.66 -347.93 292.34 C-350.48 294.06 -350.48 294.06 -353.8 295.96 C-355.44 296.91 -355.44 296.91 -357.11 297.88 C-359.93 299.34 -359.93 299.34 -361.93 299.34 C-362.26 300.33 -362.59 301.32 -362.93 302.34 C-364.49 303.7 -364.49 303.7 -366.49 305.09 C-373.05 309.84 -378.64 314.36 -382.93 321.34 C-383.38 321.78 -383.84 322.22 -384.31 322.67 C-386.41 324.83 -387.84 327.21 -389.43 329.77 C-392.7 335.05 -392.7 335.05 -394.4 337.2 C-401.83 347.59 -405.22 360.05 -407.93 372.34 C-408.27 373.44 -408.61 374.54 -408.96 375.68 C-410.15 380.19 -410.62 384.63 -411.05 389.27 C-411.14 390.15 -411.22 391.02 -411.31 391.92 C-411.52 394.06 -411.73 396.2 -411.93 398.34 C-416.34 398.42 -420.76 398.48 -425.18 398.52 C-427.03 398.56 -427.03 398.56 -428.92 398.6 C-439.18 398.68 -451.88 398.11 -459.73 390.61 C-466.97 382.82 -468.45 376.37 -468.43 365.96 C-468.45 364.97 -468.48 363.98 -468.51 362.96 C-468.53 354.49 -465.95 349.13 -460.74 342.59 C-453.17 336.53 -445.71 334.18 -436.11 334.27 C-434.95 334.28 -433.79 334.29 -432.59 334.3 C-431.27 334.32 -431.27 334.32 -429.93 334.34 C-429.82 333.77 -429.71 333.2 -429.59 332.61 C-429.36 331.46 -429.36 331.46 -429.11 330.27 C-428.89 329.14 -428.89 329.14 -428.66 327.99 C-427.92 325.31 -426.86 322.9 -425.74 320.36 C-423.8 315.51 -422.62 310.37 -421.26 305.34 C-419.77 299.93 -417.99 294.79 -415.85 289.61 C-414.66 286.68 -413.65 283.71 -412.68 280.71 C-412.34 279.69 -412.01 278.66 -411.66 277.61 C-411.42 276.86 -411.18 276.11 -410.93 275.34 C-410.27 275.34 -409.61 275.34 -408.93 275.34 C-408.81 274.66 -408.7 273.99 -408.59 273.29 C-407.8 269.76 -406.61 266.42 -405.36 263.02 C-405.13 262.38 -404.9 261.73 -404.65 261.07 C-404.08 259.49 -403.5 257.91 -402.93 256.34 C-402.27 256.34 -401.61 256.34 -400.93 256.34 C-400.76 255.78 -400.59 255.22 -400.41 254.65 C-398.7 249.27 -396.59 244.31 -393.93 239.34 C-393.31 238.17 -392.7 237.01 -392.07 235.82 C-390.35 232.57 -388.61 229.32 -386.87 226.08 C-386.05 224.57 -385.24 223.06 -384.44 221.54 C-382.78 218.47 -381.2 215.67 -378.99 212.96 C-376.94 210.36 -375.53 207.82 -373.99 204.9 C-372.28 201.68 -370.64 198.76 -368.24 196.02 C-365.87 193.27 -364.52 190.59 -362.93 187.34 C-361.93 186.33 -360.93 185.33 -359.93 184.34 C-358.63 182.65 -357.36 180.94 -356.11 179.21 C-355.41 178.24 -354.71 177.26 -353.98 176.26 C-351.71 173.03 -349.55 169.75 -347.45 166.41 C-345.52 163.78 -343.24 161.63 -340.93 159.34 C-339.47 157.61 -338.03 155.85 -336.61 154.09 C-325.71 140.65 -325.71 140.65 -320.68 136.59 C-317.96 134.36 -316.07 132.1 -313.93 129.34 C-310.27 125.58 -306.47 122.01 -302.61 118.46 C-302.04 117.94 -301.47 117.41 -300.88 116.87 C-283.97 101.34 -283.97 101.34 -280.93 101.34 C-280.6 100.35 -280.27 99.36 -279.93 98.34 C-278.37 96.95 -278.37 96.95 -276.49 95.65 C-275.87 95.21 -275.25 94.77 -274.62 94.32 C-272.93 93.34 -272.93 93.34 -270.93 93.34 C-270.6 92.35 -270.27 91.36 -269.93 90.34 C-267.93 88.73 -267.93 88.73 -265.49 87.15 C-264.69 86.62 -263.88 86.09 -263.05 85.54 C-260.93 84.34 -260.93 84.34 -258.93 84.34 C-258.93 83.68 -258.93 83.02 -258.93 82.34 C-256.84 80.93 -256.84 80.93 -254.11 79.4 C-250.93 77.6 -248.48 75.92 -245.93 73.34 C-244.39 72.34 -242.82 71.38 -241.24 70.46 C-238.23 68.69 -235.24 66.91 -232.3 65.02 C-228.2 62.45 -224.01 60.04 -219.8 57.65 C-218.78 57.06 -218.78 57.06 -217.74 56.46 C-213.88 54.28 -210.2 52.58 -205.93 51.34 C-205.93 50.68 -205.93 50.02 -205.93 49.34 C-203.64 48.33 -201.34 47.33 -199.05 46.34 C-198.4 46.05 -197.75 45.76 -197.08 45.47 C-192.15 43.34 -192.15 43.34 -189.93 43.34 C-189.93 42.68 -189.93 42.02 -189.93 41.34 C-189.38 41.12 -188.84 40.9 -188.28 40.68 C-185.75 39.67 -183.21 38.66 -180.68 37.65 C-179.3 37.1 -179.3 37.1 -177.9 36.54 C-172.98 34.58 -168.1 32.57 -163.24 30.46 C-158.52 28.47 -153.97 27.26 -148.93 26.34 C-148.93 25.68 -148.93 25.02 -148.93 24.34 C-148.25 24.14 -147.57 23.94 -146.87 23.74 C-143.74 22.84 -140.61 21.93 -137.49 21.02 C-135.88 20.56 -135.88 20.56 -134.25 20.09 C-129.64 18.75 -125.05 17.4 -120.52 15.8 C-114.42 13.73 -108.1 12.57 -101.8 11.27 C-93.06 9.54 -93.06 9.54 -84.46 7.28 C-78.58 5.71 -72.57 5.1 -66.55 4.34 C-64.69 4.09 -64.69 4.09 -62.8 3.84 C-41.91 1.16 -21.06 0.01 0 0 Z M-39.43 50.15 C-43.91 56.26 -44.22 63.78 -44.2 71.07 C-44.21 71.91 -44.21 72.74 -44.22 73.6 C-44.23 76.33 -44.23 79.06 -44.23 81.8 C-44.23 83.71 -44.23 85.63 -44.24 87.54 C-44.25 91.55 -44.25 95.55 -44.24 99.56 C-44.24 104.67 -44.25 109.79 -44.28 114.9 C-44.29 118.85 -44.29 122.81 -44.29 126.76 C-44.29 128.64 -44.29 130.53 -44.3 132.41 C-44.6 148.06 -44.6 148.06 -38.99 162.4 C-36.89 164.37 -35.76 165.03 -32.93 165.34 C-32.93 166 -32.93 166.66 -32.93 167.34 C-25.4 170.35 -18.89 170.76 -10.84 170.72 C-9.55 170.73 -8.27 170.73 -6.95 170.74 C-3.45 170.75 0.05 170.75 3.55 170.74 C7.22 170.73 10.9 170.74 14.57 170.74 C20.74 170.75 26.91 170.74 33.08 170.73 C40.2 170.71 47.31 170.72 54.43 170.73 C60.56 170.75 66.68 170.75 72.81 170.74 C76.46 170.74 80.12 170.73 83.77 170.74 C87.84 170.76 91.91 170.74 95.99 170.72 C97.78 170.73 97.78 170.73 99.61 170.74 C106.42 170.69 111.75 169.87 118.07 167.34 C118.07 166.68 118.07 166.02 118.07 165.34 C119.22 165.03 119.22 165.03 120.39 164.71 C123.92 162.9 124.64 160.97 126.07 157.34 C126.07 156.68 126.07 156.02 126.07 155.34 C126.73 155.01 127.39 154.68 128.07 154.34 C127.74 153.68 127.41 153.02 127.07 152.34 C127.73 152.34 128.39 152.34 129.07 152.34 C129.53 145.91 128.52 140.56 126.85 134.35 C124.82 126.68 123.36 118.91 121.91 111.12 C120.78 105.22 119.36 99.89 117.07 94.34 C116.62 93.14 116.16 91.94 115.69 90.71 C115.26 89.6 114.83 88.48 114.39 87.34 C113.95 86.2 113.51 85.07 113.06 83.9 C112.74 83.05 112.41 82.21 112.07 81.34 C111.41 81.34 110.75 81.34 110.07 81.34 C109.83 80.63 109.58 79.93 109.32 79.21 C105.7 70.88 99.55 62.72 91.07 59.34 C90.74 58.35 90.41 57.36 90.07 56.34 C88.06 54.88 88.06 54.88 85.64 53.65 C84.83 53.21 84.03 52.77 83.2 52.32 C81.16 51.2 81.16 51.2 79.07 51.34 C79.07 50.68 79.07 50.02 79.07 49.34 C71.75 46.57 64.63 43.96 56.87 42.7 C55.07 42.34 55.07 42.34 54.07 41.34 C51.63 41.21 49.22 41.16 46.78 41.14 C46.01 41.13 45.25 41.13 44.46 41.12 C41.92 41.09 39.37 41.08 36.83 41.06 C35.52 41.05 35.52 41.05 34.19 41.05 C29.59 41.02 24.98 41 20.37 40.99 C15.62 40.97 10.88 40.92 6.14 40.87 C2.48 40.84 -1.18 40.83 -4.84 40.82 C-6.59 40.82 -8.34 40.8 -10.08 40.78 C-21.61 40.63 -31.39 40.73 -39.43 50.15 Z M-114.93 57.34 C-114.93 58 -114.93 58.66 -114.93 59.34 C-116.06 59.44 -117.19 59.54 -118.36 59.64 C-123.15 60.24 -127.43 61.72 -131.93 63.4 C-133.09 63.82 -133.09 63.82 -134.27 64.25 C-136.16 64.94 -138.04 65.64 -139.93 66.34 C-139.93 67 -139.93 67.66 -139.93 68.34 C-140.74 68.48 -140.74 68.48 -141.58 68.63 C-147.44 69.8 -152.56 71.72 -157.93 74.34 C-157.93 75 -157.93 75.66 -157.93 76.34 C-158.63 76.45 -159.34 76.56 -160.06 76.68 C-163.2 77.4 -165.83 78.53 -168.74 79.9 C-169.71 80.35 -170.69 80.81 -171.7 81.28 C-172.43 81.63 -173.17 81.98 -173.93 82.34 C-173.93 83 -173.93 83.66 -173.93 84.34 C-174.73 84.56 -175.53 84.79 -176.36 85.02 C-180.84 86.67 -184.81 88.94 -188.93 91.34 C-188.93 92 -188.93 92.66 -188.93 93.34 C-189.79 93.58 -190.66 93.83 -191.55 94.09 C-195.14 95.41 -197.89 97.02 -200.93 99.34 C-200.93 100 -200.93 100.66 -200.93 101.34 C-201.79 101.58 -202.66 101.83 -203.55 102.09 C-207.7 103.62 -211.24 105.64 -214.38 108.8 C-215.99 110.4 -217.66 111.69 -219.49 113.02 C-222.83 115.51 -226.14 118.02 -229.43 120.59 C-230.28 121.25 -231.14 121.92 -232.02 122.6 C-232.65 123.17 -233.28 123.75 -233.93 124.34 C-233.93 125 -233.93 125.66 -233.93 126.34 C-234.48 126.56 -235.04 126.79 -235.61 127.02 C-238.58 128.71 -240.53 130.89 -242.93 133.34 C-244.25 134.51 -245.58 135.68 -246.93 136.84 C-252.02 141.27 -256.42 145.5 -259.93 151.34 C-259.93 152 -259.93 152.66 -259.93 153.34 C-260.59 153.34 -261.25 153.34 -261.93 153.34 C-261.93 155.98 -261.93 158.62 -261.93 161.34 C-261.27 161.34 -260.61 161.34 -259.93 161.34 C-259.84 161.91 -259.76 162.49 -259.68 163.09 C-258.69 166.03 -257.3 167.37 -254.93 169.34 C-251.58 170.49 -248.37 170.47 -244.85 170.48 C-242.98 170.48 -242.98 170.48 -241.07 170.49 C-239.69 170.49 -238.32 170.5 -236.94 170.5 C-235.48 170.5 -234.03 170.51 -232.57 170.51 C-228.63 170.53 -224.68 170.53 -220.73 170.54 C-218.26 170.54 -215.79 170.54 -213.32 170.55 C-205.59 170.56 -197.86 170.57 -190.13 170.57 C-181.21 170.58 -172.3 170.6 -163.39 170.63 C-156.49 170.65 -149.59 170.66 -142.7 170.66 C-138.58 170.66 -134.46 170.67 -130.35 170.68 C-126.47 170.7 -122.6 170.7 -118.72 170.69 C-117.31 170.69 -115.89 170.7 -114.47 170.71 C-105.12 170.77 -95.9 170.68 -88.55 164.15 C-87.92 163.62 -87.3 163.09 -86.65 162.54 C-82.41 157.12 -81.48 151.02 -81.52 144.32 C-81.51 143.56 -81.51 142.8 -81.5 142.02 C-81.48 139.55 -81.49 137.07 -81.49 134.59 C-81.49 132.85 -81.48 131.11 -81.48 129.38 C-81.47 125.74 -81.47 122.11 -81.48 118.47 C-81.49 113.84 -81.47 109.2 -81.44 104.56 C-81.42 100.97 -81.42 97.39 -81.43 93.8 C-81.43 92.09 -81.42 90.38 -81.41 88.67 C-81.04 74.68 -81.04 74.68 -87.44 62.7 C-90.28 60.09 -90.28 60.09 -93.93 59.34 C-93.93 58.68 -93.93 58.02 -93.93 57.34 C-101.87 55.18 -106.98 55.18 -114.93 57.34 Z " fill="#1500ff" transform="translate(549.92578125,210.6640625)"/>
<path d="M0 0 C169.72 0 169.72 0 189.2 18.97 C195.96 26.61 201.5 34.38 205 44 C205.39 45.01 205.78 46.03 206.19 47.07 C212.59 66.56 210.88 89.57 201.81 107.81 C198.28 113.97 194.04 119.03 189 124 C188.47 124.55 187.94 125.1 187.4 125.67 C176.92 135.69 162.7 139.72 149 143 C147.67 143.33 146.33 143.66 145 144 C145.65 144.38 146.31 144.76 146.98 145.14 C154.88 149.91 161.49 155.54 168 162 C168.83 162.82 169.67 163.64 170.52 164.48 C183.58 178.09 193.08 195.07 203 211 C204.86 213.97 206.72 216.95 208.57 219.92 C209.85 221.96 211.13 224 212.4 226.05 C215.45 230.94 218.52 235.82 221.62 240.68 C222.18 241.56 222.74 242.44 223.32 243.34 C224.38 244.99 225.43 246.64 226.5 248.29 C226.96 249.02 227.42 249.74 227.9 250.49 C228.31 251.12 228.72 251.76 229.14 252.41 C230 254 230 254 230 256 C178.69 262.76 178.69 262.76 164.04 254.29 C152.83 245.28 146.59 231.21 140.64 218.44 C137.41 211.59 133.33 205.49 128.97 199.34 C127.13 196.72 125.38 194.05 123.62 191.39 C119.22 184.82 114.74 178.33 110 172 C109.25 170.99 108.49 169.98 107.72 168.94 C99.6 158.48 91.1 153.18 78 151 C69.42 150.67 60.84 150.34 52 150 C52 184.98 52 219.96 52 256 C34.84 256 17.68 256 0 256 C0 171.52 0 87.04 0 0 Z M52 44 C52 65.12 52 86.24 52 108 C66.76 108.06 66.76 108.06 81.81 108.12 C86.41 108.15 86.41 108.15 91.1 108.18 C121.08 109.76 121.08 109.76 147.38 98.38 C154.75 90.21 155.82 81.63 155.38 71 C155.02 66.04 153.79 62.14 151 58 C150.59 57.37 150.17 56.74 149.75 56.09 C145.2 50.01 138.34 46.58 131 45 C121.46 43.89 111.89 43.87 102.29 43.9 C100.83 43.9 99.37 43.91 97.91 43.91 C94.11 43.91 90.31 43.92 86.51 43.93 C81.93 43.94 77.35 43.95 72.76 43.95 C65.84 43.96 58.92 43.98 52 44 Z " fill="#2B2525" transform="translate(1291,251)"/>
<path d="M0 0 C16.83 0 33.66 0 51 0 C65.7 23.74 65.7 23.74 70.81 32.19 C75.78 40.37 80.79 48.54 85.81 56.69 C91.77 66.36 97.68 76.05 103.57 85.76 C109.4 95.38 115.28 104.97 121.18 114.55 C126.09 122.5 130.95 130.48 135.78 138.48 C141.39 147.74 147.21 156.84 153 166 C153.33 111.22 153.66 56.44 154 0 C170.17 0 186.34 0 203 0 C203 84.48 203 168.96 203 256 C185.51 256 168.02 256 150 256 C144.4 247.29 138.84 238.58 133.44 229.75 C132.4 228.05 131.36 226.36 130.31 224.66 C129.25 222.92 128.18 221.18 127.11 219.44 C123.75 213.96 120.37 208.48 117 203 C115.67 200.83 114.33 198.67 113 196.5 C112.34 195.43 111.68 194.36 111 193.25 C103.67 181.33 96.33 169.42 89 157.5 C88.34 156.43 87.68 155.35 87 154.25 C85.67 152.09 84.34 149.93 83.01 147.77 C79.62 142.25 76.22 136.73 72.82 131.22 C72.12 130.08 71.42 128.95 70.72 127.81 C69.43 125.71 68.14 123.61 66.84 121.5 C61.21 112.35 55.61 103.17 50 94 C49.67 147.46 49.34 200.92 49 256 C32.83 256 16.66 256 0 256 C0 171.52 0 87.04 0 0 Z " fill="#FFA500" transform="translate(1984,251)"/>
<path d="M0 0 C1.02 0.2 1.02 0.2 2.06 0.41 C25.37 5.2 45.8 18.52 59.25 38.19 C66.38 49.03 70 60.45 73 73 C65.81 74.45 58.61 75.89 51.42 77.32 C49.23 77.75 47.05 78.19 44.87 78.63 C42.04 79.2 39.21 79.76 36.38 80.31 C35.53 80.48 34.69 80.65 33.82 80.83 C29.12 81.74 24.79 82.17 20 82 C19.6 80.89 19.6 80.89 19.19 79.76 C13.74 65.66 5.46 54.97 -8.25 48.19 C-27.06 40.4 -48.52 40.93 -67.38 48.31 C-72.67 50.69 -77.39 53.48 -82 57 C-83.11 57.83 -83.11 57.83 -84.24 58.67 C-98.87 70.52 -105.91 89.71 -108 108 C-108.45 112.33 -108.78 116.65 -109 121 C-109.04 121.84 -109.09 122.67 -109.13 123.53 C-109.74 149.21 -105 176.64 -87 196 C-74.91 208.47 -58.68 214.99 -41.48 215.29 C-29.95 215.36 -19.93 214.84 -9 211 C-8.31 210.76 -7.62 210.52 -6.91 210.27 C-2.52 208.69 1.71 206.9 5.93 204.91 C7.98 204.01 10.02 203.34 12.15 202.67 C16.57 200.99 19.81 199.36 22 195 C24.05 184.42 23.26 173.73 23 163 C3.53 163 -15.94 163 -36 163 C-36 148.48 -36 133.96 -36 119 C0.96 119 37.92 119 76 119 C76.21 135.81 76.41 152.62 76.62 169.94 C76.72 175.23 76.81 180.53 76.9 185.98 C76.95 192.48 76.95 192.48 76.95 195.53 C76.97 197.64 77 199.76 77.06 201.88 C77.46 219.73 77.46 219.73 73.83 225.36 C71.32 227.66 68.97 229.35 66 231 C64.8 231.84 63.61 232.69 62.41 233.53 C36.56 248.73 7.08 261.03 -23.36 261.2 C-24.15 261.21 -24.94 261.21 -25.76 261.22 C-27.43 261.23 -29.1 261.24 -30.77 261.24 C-33.27 261.25 -35.76 261.28 -38.25 261.31 C-71.4 261.53 -100.95 250.78 -126 229 C-126.62 228.46 -127.25 227.92 -127.89 227.37 C-153.77 203.3 -162.4 165.29 -164.18 131.53 C-165.01 93.96 -153.37 57.31 -127.31 29.88 C-93.62 -2.5 -44.5 -9.02 0 0 Z " fill="#2B2525" transform="translate(2395,250)"/>
<path d="M0 0 C151.84 0 151.84 0 180 27 C180.96 27.88 180.96 27.88 181.93 28.78 C204.8 50.42 213.15 85.53 214.12 115.89 C214.22 120.36 214.25 124.84 214.25 129.31 C214.25 130.11 214.25 130.9 214.25 131.72 C214.2 166.97 206.47 199.74 183 227 C182.11 228.03 182.11 228.03 181.21 229.09 C164.57 247.04 140.31 252.89 117 256 C78.39 256 39.78 256 0 256 C0 171.52 0 87.04 0 0 Z M52 44 C52 99.44 52 154.88 52 212 C98.71 215.83 98.71 215.83 142.88 199.06 C159.26 180.48 160.42 152.24 160.31 128.81 C160.31 128.01 160.31 127.2 160.31 126.37 C160.23 101.75 158.23 76.99 140.41 58.22 C117.91 37.47 78.23 44 52 44 Z " fill="#FFA500" transform="translate(1034,251)"/>
<path d="M0 0 C2.09 -0 4.18 -0.02 6.27 -0.04 C7.61 -0.04 8.96 -0.04 10.31 -0.05 C11.52 -0.05 12.72 -0.05 13.96 -0.06 C17.72 0.2 20.88 1.05 24.46 2.19 C25.94 2.57 27.41 2.96 28.89 3.34 C41.19 6.67 51.6 11.55 62.46 18.19 C62.46 18.85 62.46 19.51 62.46 20.19 C63.18 20.43 63.9 20.66 64.65 20.91 C67.87 22.37 69.89 24.14 72.46 26.56 C74.89 28.83 77.26 31.04 79.92 33.04 C83.12 35.74 85.54 38.76 88.09 42.06 C88.56 42.66 89.04 43.26 89.53 43.88 C92.35 47.49 94.43 51.06 96.46 55.19 C96.96 55.68 97.46 56.18 97.98 56.69 C100.14 58.88 100.99 61.35 102.15 64.19 C102.59 65.24 103.02 66.29 103.47 67.37 C104.46 70.19 104.46 70.19 104.46 73.19 C105.12 73.19 105.78 73.19 106.46 73.19 C107.11 75.73 107.76 78.27 108.4 80.81 C108.58 81.52 108.76 82.24 108.95 82.97 C111.79 94.2 114.74 109.65 108.78 120.31 C104.11 126.95 98.89 132.61 91.46 136.19 C89.55 136.48 87.63 136.75 85.71 137 C82.84 137.48 82.84 137.48 80.46 139.19 C77.94 143.79 77.07 149.15 75.94 154.23 C75.04 157.88 73.35 160.97 71.46 164.19 C70.54 165.85 69.63 167.52 68.71 169.19 C67.96 170.52 67.21 171.85 66.46 173.19 C65.8 173.19 65.14 173.19 64.46 173.19 C64.2 173.92 63.95 174.65 63.68 175.41 C57.44 189.58 38.67 200.01 24.89 205.64 C21.77 206.65 18.67 207.47 15.46 208.19 C14.56 208.41 13.66 208.63 12.73 208.86 C-6.59 212.89 -26.24 209.96 -44.54 203.19 C-44.54 202.53 -44.54 201.87 -44.54 201.19 C-45.34 200.96 -46.15 200.73 -46.98 200.5 C-53.95 197.93 -59.47 194.67 -64.54 189.19 C-65.32 188.58 -66.1 187.97 -66.91 187.35 C-78.9 177.49 -86.71 162.67 -91.54 148.19 C-92.22 148.35 -92.9 148.52 -93.6 148.69 C-101.93 150.1 -109.97 148.92 -117.26 144.56 C-124.63 139.06 -129.98 132.39 -131.54 123.19 C-132.62 108.73 -131.19 95.16 -127.54 81.19 C-126.88 81.19 -126.22 81.19 -125.54 81.19 C-125.46 80.4 -125.37 79.62 -125.29 78.81 C-123.99 72.52 -122.14 66.75 -117.54 62.19 C-116.54 60.42 -115.58 58.62 -114.66 56.81 C-112.4 52.54 -110.17 49.43 -106.54 46.19 C-105.9 45.36 -105.26 44.54 -104.6 43.69 C-102.19 40.76 -99.47 38.57 -96.54 36.19 C-95.92 35.55 -95.31 34.92 -94.67 34.28 C-84.52 24.33 -71.38 17.87 -58.54 12.19 C-57.53 11.7 -57.53 11.7 -56.51 11.21 C-50.76 8.51 -45.04 6.85 -38.85 5.44 C-37.49 5.1 -37.49 5.1 -36.09 4.77 C-31.49 3.69 -27.3 2.9 -22.54 3.19 C-22.54 2.53 -22.54 1.87 -22.54 1.19 C-15.03 0.14 -7.57 -0 0 0 Z M-17.54 78.19 C-19.03 78.66 -19.03 78.66 -20.54 79.14 C-26.8 81.09 -26.8 81.09 -32.54 84.19 C-32.54 84.85 -32.54 85.51 -32.54 86.19 C-33.65 86.53 -33.65 86.53 -34.79 86.87 C-38.08 88.44 -39.51 90.19 -41.54 93.19 C-41.54 93.85 -41.54 94.51 -41.54 95.19 C-42.53 95.52 -43.52 95.85 -44.54 96.19 C-49.93 104.05 -53.15 116.18 -52.32 125.64 C-51.85 127.88 -51.25 130.01 -50.54 132.19 C-50.32 132.94 -50.1 133.69 -49.87 134.46 C-47.48 142.2 -44.72 148.74 -38.54 154.19 C-38.02 154.65 -37.49 155.12 -36.96 155.6 C-34.15 158.32 -34.15 158.32 -30.54 159.19 C-30.54 159.85 -30.54 160.51 -30.54 161.19 C-18.77 167.49 -5.4 168.54 7.46 165.19 C10.88 164.02 14.18 162.71 17.46 161.19 C17.46 160.53 17.46 159.87 17.46 159.19 C18.18 158.95 18.9 158.72 19.65 158.48 C27.43 154.89 32.54 147.08 35.52 139.31 C39.35 126.87 39.87 113.9 34.21 101.94 C30.65 95.43 27.16 89.71 20.46 86.19 C19.87 85.54 19.28 84.9 18.67 84.24 C16.1 81.85 14.06 81.09 10.71 80.06 C9.65 79.73 8.59 79.41 7.5 79.07 C6.49 78.78 5.49 78.49 4.46 78.19 C3.7 77.96 2.93 77.73 2.14 77.49 C-4.9 75.53 -10.69 75.89 -17.54 78.19 Z " fill="#1500ff" transform="translate(828.5390625,491.814697265625)"/>
<path d="M0 0 C2.09 -0 4.18 -0.02 6.27 -0.04 C7.61 -0.04 8.96 -0.04 10.31 -0.05 C11.52 -0.05 12.72 -0.05 13.96 -0.06 C17.72 0.2 20.88 1.05 24.46 2.19 C25.94 2.57 27.41 2.96 28.89 3.34 C41.19 6.67 51.6 11.55 62.46 18.19 C62.46 18.85 62.46 19.51 62.46 20.19 C63.18 20.43 63.9 20.67 64.65 20.92 C67.85 22.36 69.89 24.11 72.46 26.5 C73.33 27.31 74.21 28.12 75.11 28.95 C80.21 33.79 84.88 38.86 89.46 44.19 C89.94 44.73 90.42 45.27 90.91 45.82 C93.96 49.31 97.46 53.35 97.46 58.19 C98.12 58.19 98.78 58.19 99.46 58.19 C100.57 60.85 101.67 63.52 102.77 66.19 C103.08 66.93 103.39 67.67 103.71 68.44 C108.7 80.53 111.6 91.23 111.77 104.44 C111.79 105.18 111.81 105.92 111.83 106.69 C111.82 113.25 110.54 118.83 106.09 123.87 C105.22 124.64 104.35 125.4 103.46 126.19 C102.64 127.05 101.81 127.92 100.96 128.81 C95.3 134.19 95.3 134.19 91.46 134.19 C91.46 134.85 91.46 135.51 91.46 136.19 C90.72 136.19 89.99 136.2 89.23 136.21 C85.61 136.64 83.52 137.14 80.46 139.19 C77.83 144.15 76.87 149.87 75.86 155.35 C75.46 157.19 75.46 157.19 74.46 159.19 C73.8 159.19 73.14 159.19 72.46 159.19 C72.4 159.85 72.34 160.51 72.27 161.19 C70.2 168.84 64.33 175.11 59.46 181.19 C58.68 182.22 57.89 183.25 57.09 184.31 C46.52 195.88 30.67 204.79 15.46 208.19 C14.56 208.41 13.66 208.63 12.73 208.86 C-6.59 212.89 -26.24 209.96 -44.54 203.19 C-44.54 202.53 -44.54 201.87 -44.54 201.19 C-45.34 200.96 -46.15 200.73 -46.98 200.5 C-53.95 197.93 -59.47 194.67 -64.54 189.19 C-65.32 188.59 -66.11 187.99 -66.91 187.37 C-73.06 182.25 -79.98 174.85 -82.54 167.19 C-83.26 166.47 -83.26 166.47 -84 165.73 C-85.72 164.01 -86.32 162.67 -87.14 160.39 C-87.41 159.68 -87.67 158.97 -87.94 158.23 C-88.2 157.5 -88.46 156.76 -88.73 156 C-89 155.25 -89.27 154.5 -89.55 153.73 C-90.22 151.88 -90.88 150.03 -91.54 148.19 C-92.3 148.35 -93.06 148.5 -93.84 148.67 C-102.01 150.23 -110.2 148.86 -117.29 144.49 C-125.03 138.62 -129.35 132.67 -131.54 123.19 C-131.87 119.79 -131.92 116.41 -131.91 113 C-131.91 112.05 -131.92 111.09 -131.92 110.11 C-131.75 99.31 -129.96 88.45 -126.54 78.19 C-125.88 78.19 -125.22 78.19 -124.54 78.19 C-124.44 77.5 -124.35 76.82 -124.25 76.12 C-123.38 72.54 -121.89 69.44 -120.23 66.19 C-119.93 65.58 -119.63 64.98 -119.33 64.36 C-117.43 60.58 -115.24 57.42 -112.54 54.19 C-112.23 53.53 -111.92 52.87 -111.6 52.19 C-110.08 49.31 -107.89 47.42 -105.54 45.19 C-102.91 42.63 -100.52 40.16 -98.29 37.25 C-95.58 33.91 -92.25 31.83 -88.62 29.58 C-86.55 28.29 -86.55 28.29 -85.1 26.72 C-78.13 19.88 -67.35 16.07 -58.54 12.19 C-57.54 11.71 -57.54 11.71 -56.52 11.22 C-50.76 8.51 -45.04 6.85 -38.85 5.44 C-37.49 5.1 -37.49 5.1 -36.09 4.77 C-31.49 3.69 -27.3 2.9 -22.54 3.19 C-22.54 2.53 -22.54 1.87 -22.54 1.19 C-15.03 0.14 -7.57 -0 0 0 Z M-18.6 78.5 C-19.39 78.71 -20.18 78.92 -20.99 79.14 C-25.21 80.33 -28.98 81.52 -32.54 84.19 C-32.54 84.85 -32.54 85.51 -32.54 86.19 C-33.1 86.41 -33.65 86.64 -34.23 86.87 C-41.44 90.97 -45.69 97.79 -48.23 105.44 C-50.46 112.11 -50.46 112.11 -51.54 113.19 C-51.63 114.53 -51.65 115.88 -51.64 117.22 C-51.63 118.03 -51.63 118.84 -51.63 119.67 C-51.62 120.52 -51.61 121.37 -51.6 122.25 C-51.6 123.1 -51.59 123.96 -51.59 124.84 C-51.58 126.95 -51.56 129.07 -51.54 131.19 C-50.88 131.19 -50.22 131.19 -49.54 131.19 C-49.48 132.3 -49.42 133.41 -49.35 134.56 C-48.37 142.34 -44.47 149.12 -38.54 154.19 C-38.02 154.65 -37.5 155.11 -36.96 155.59 C-34.16 158.32 -34.16 158.32 -30.54 159.19 C-30.54 159.85 -30.54 160.51 -30.54 161.19 C-18.77 167.49 -5.4 168.54 7.46 165.19 C10.88 164.02 14.18 162.71 17.46 161.19 C17.46 160.53 17.46 159.87 17.46 159.19 C18.2 158.95 18.93 158.71 19.69 158.47 C22.89 156.99 24.48 155.34 26.77 152.69 C27.47 151.89 28.17 151.1 28.89 150.28 C30.66 148.36 30.66 148.36 30.46 146.19 C31.12 146.19 31.78 146.19 32.46 146.19 C40.1 130.84 39.44 117.19 34.46 101.19 C33.47 99.7 33.47 99.7 32.46 98.19 C31.8 98.19 31.14 98.19 30.46 98.19 C30.23 97.46 30.01 96.74 29.77 96 C28.17 92.56 26.26 90.74 23.46 88.19 C22.98 87.69 22.5 87.19 22 86.68 C15.35 80.23 6.45 78.18 -2.54 77.19 C-3.03 76.69 -3.03 76.69 -3.54 76.19 C-8.89 75.74 -13.51 77.04 -18.6 78.5 Z " fill="#1500ff" transform="translate(281.5390625,491.814697265625)"/>
<path d="M0 0 C18.81 0 37.62 0 57 0 C59.35 6.91 61.7 13.82 64.12 20.94 C69.41 36.46 74.7 51.98 80 67.5 C84.67 81.17 89.33 94.84 93.98 108.51 C94.99 111.48 96 114.44 97.01 117.41 C100.02 126.23 103.02 135.04 106 143.87 C107.28 147.64 108.56 151.42 109.84 155.19 C110.44 156.96 111.04 158.72 111.63 160.49 C112.45 162.93 113.28 165.37 114.11 167.8 C114.34 168.51 114.58 169.21 114.82 169.93 C116.58 175.09 118.72 180.04 121 185 C121.19 184.42 121.38 183.84 121.58 183.24 C133.76 146.03 146 108.84 158.27 71.66 C159.37 68.33 160.47 65.01 161.56 61.68 C163.32 56.35 165.08 51.02 166.84 45.69 C167.49 43.73 168.14 41.76 168.79 39.79 C169.69 37.04 170.6 34.3 171.51 31.55 C171.76 30.79 172.01 30.03 172.27 29.25 C175.49 19.49 178.75 9.75 182 0 C200.48 0 218.96 0 238 0 C234.63 12.37 234.63 12.37 232.8 17.5 C232.39 18.66 231.98 19.82 231.56 21.01 C231.13 22.23 230.69 23.45 230.24 24.71 C229.77 26.03 229.3 27.35 228.84 28.67 C227.59 32.18 226.34 35.69 225.09 39.2 C223.78 42.87 222.47 46.55 221.17 50.22 C218.83 56.81 216.49 63.4 214.14 69.99 C211.92 76.23 209.7 82.47 207.48 88.71 C204.6 96.83 201.71 104.96 198.82 113.08 C195.55 122.27 192.28 131.47 189.01 140.67 C187.34 145.36 185.67 150.06 184 154.75 C183.33 156.62 182.67 158.5 182 160.38 C165 208.19 165 208.19 148 256 C129.19 256 110.38 256 91 256 C85.38 242.5 85.38 242.5 83.65 237.61 C83.26 236.51 82.87 235.4 82.46 234.26 C82.05 233.1 81.65 231.94 81.23 230.74 C80.78 229.48 80.34 228.23 79.89 226.97 C78.95 224.32 78.02 221.66 77.08 219 C75.6 214.81 74.12 210.61 72.64 206.42 C72.14 205.01 71.63 203.59 71.13 202.18 C70.89 201.48 70.64 200.78 70.39 200.06 C69.64 197.96 68.9 195.85 68.15 193.74 C64.25 182.69 60.32 171.66 56.38 160.62 C55.79 158.98 55.2 157.33 54.61 155.68 C53.08 151.39 51.54 147.11 50.01 142.82 C46.48 132.96 42.96 123.11 39.44 113.25 C38.82 111.51 38.82 111.51 38.18 109.74 C33.13 95.6 28.09 81.46 23.08 67.31 C22.83 66.61 22.58 65.92 22.33 65.2 C19.92 58.4 17.51 51.59 15.1 44.79 C14 41.67 12.9 38.56 11.79 35.45 C11.38 34.28 10.96 33.11 10.54 31.9 C7.76 24.09 4.93 16.3 1.97 8.56 C0.84 5.56 0 3.23 0 0 Z " fill="#FFA500" transform="translate(1621,251)"/>
<path d="M0 0 C17.49 0 34.98 0 53 0 C53 84.48 53 168.96 53 256 C35.51 256 18.02 256 0 256 C0 171.52 0 87.04 0 0 Z " fill="#2A2626" transform="translate(1546,251)"/>
<path d="M0 0 C17.16 0 34.32 0 52 0 C52 84.48 52 168.96 52 256 C34.84 256 17.68 256 0 256 C0 171.52 0 87.04 0 0 Z " fill="#FFA500" transform="translate(1883,251)"/>
<path d="M0 0 C17.02 -0.06 17.02 -0.06 34.38 -0.12 C37.92 -0.14 41.46 -0.16 45.11 -0.18 C49.54 -0.19 49.54 -0.19 51.63 -0.19 C53.05 -0.19 54.46 -0.2 55.88 -0.21 C64.22 -0.27 72.43 0 80.73 0.9 C81.85 1.02 81.85 1.02 82.99 1.14 C93.12 2.35 102.03 6.13 108.72 14.04 C115.05 22.85 117.17 32.24 116 43 C114.24 52.25 110.17 58.9 103 65 C99.79 67.05 96.55 68.61 93 70 C91.91 70.43 90.81 70.87 89.69 71.31 C87.01 72 84.76 72.16 82 72 C84.55 74.66 87.12 76.87 90.12 79 C101.79 88.09 109.28 101.17 117.27 113.39 C119.98 117.55 122.84 121.51 125.96 125.37 C127 127 127 127 127 130 C97.24 132.83 97.24 132.83 89.29 128.54 C85.1 124.64 82.74 119.75 80.34 114.62 C78 110.04 74.81 106.08 71.69 102 C70.51 100.42 69.34 98.83 68.17 97.25 C67.11 95.83 66.06 94.41 65 93 C64.57 92.43 64.15 91.85 63.71 91.26 C57.79 83.38 53.03 78.81 43 77 C36.07 76.5 36.07 76.5 29 76 C29 93.82 29 111.64 29 130 C19.43 130 9.86 130 0 130 C0 87.1 0 44.2 0 0 Z M29 23 C29 33.56 29 44.12 29 55 C56.91 57.32 56.91 57.32 82.38 48.88 C84.91 44.4 86.5 39.96 85.62 34.78 C84.13 30.23 82.21 27.49 78 25 C72.28 22.96 67.17 22.73 61.13 22.8 C60.21 22.81 59.28 22.81 58.33 22.81 C55.41 22.82 52.49 22.85 49.56 22.88 C47.57 22.89 45.58 22.89 43.59 22.9 C38.73 22.92 33.86 22.96 29 23 Z " fill="#1500ff" transform="translate(1596,546)"/>
<path d="M0 0 C11.77 9.82 19.75 24.79 21.31 40.05 C22.73 62.08 21.23 82.29 6.5 99.93 C-5.66 112.7 -23.25 119.76 -40.78 120.26 C-63.09 120.56 -82.13 117.44 -99.13 101.81 C-112.09 88.45 -116.28 72 -116.12 53.8 C-116.12 52.53 -116.11 51.26 -116.1 49.94 C-115.76 30.47 -110.36 15.1 -96.15 1.37 C-92.37 -2.03 -88.15 -4.56 -83.69 -6.95 C-82.97 -7.34 -82.26 -7.74 -81.52 -8.15 C-56.56 -20.68 -22.16 -16.04 0 0 Z M-77.43 22.05 C-86.31 34.1 -87.06 48.64 -85.69 63.05 C-83.91 74.3 -78.76 83 -70.16 90.29 C-61.25 96.65 -50.41 98.27 -39.76 96.59 C-28.98 94.26 -21.06 89.1 -14.69 80.05 C-7.32 67.33 -6.99 51.26 -9.81 37.12 C-12.51 27.02 -17.68 19.31 -26.63 13.88 C-43.42 4.87 -64.72 7.48 -77.43 22.05 Z " fill="#1500ff" transform="translate(1552.6875,557.9453125)"/>
<path d="M0 0 C34.98 0 69.96 0 106 0 C106 7.59 106 15.18 106 23 C80.92 23 55.84 23 30 23 C30 31.91 30 40.82 30 50 C53.1 50 76.2 50 100 50 C100 57.59 100 65.18 100 73 C76.9 73 53.8 73 30 73 C30 84.22 30 95.44 30 107 C55.74 107 81.48 107 108 107 C108 114.59 108 122.18 108 130 C72.36 130 36.72 130 0 130 C0 87.1 0 44.2 0 0 Z " fill="#1500ff" transform="translate(1311,546)"/>
<path d="M0 0 C6.87 6.29 10.55 15.21 11.74 24.34 C11.74 25.66 11.74 26.98 11.74 28.34 C1.84 28.67 -8.06 29 -18.26 29.34 C-19.58 26.04 -20.9 22.74 -22.26 19.34 C-25.82 14.1 -30.27 13.11 -36.21 11.84 C-45.54 10.3 -55.17 11.35 -63.45 16.21 C-65.61 18.76 -66.26 19.99 -66.26 23.34 C-65.74 26.55 -65.74 26.55 -63.26 29.34 C-54.15 34.34 -43.77 36.44 -33.76 38.84 C1.76 47.37 1.76 47.37 11.74 63.34 C17.14 74.24 16.75 84.98 13 96.26 C9.21 105.53 1.62 112.63 -7.26 117.09 C-25.55 124.65 -51.58 125.89 -70.12 118.61 C-82.25 113.43 -90.2 107.18 -96.26 95.34 C-98.55 89.42 -100.55 83.75 -100.26 77.34 C-97.14 76.3 -94.55 76.04 -91.28 75.8 C-90.11 75.72 -88.95 75.63 -87.75 75.54 C-86.54 75.45 -85.32 75.37 -84.07 75.28 C-82.23 75.14 -82.23 75.14 -80.35 75 C-77.32 74.78 -74.29 74.56 -71.26 74.34 C-70.99 75.09 -70.73 75.84 -70.46 76.61 C-70.11 77.6 -69.75 78.58 -69.39 79.6 C-69.04 80.57 -68.7 81.55 -68.34 82.56 C-65.49 89.88 -61.83 93.19 -54.66 96.41 C-51.77 97.53 -49.37 98.15 -46.26 98.34 C-45.46 98.39 -44.66 98.44 -43.84 98.49 C-35.22 98.8 -27.19 97.69 -20.26 92.34 C-19.6 92.34 -18.94 92.34 -18.26 92.34 C-15.77 87.52 -14.78 83.83 -15.26 78.34 C-18.13 72.97 -22.77 71.31 -28.26 69.34 C-34.87 67.44 -41.61 65.96 -48.32 64.42 C-64.96 60.55 -81.18 56.29 -91.26 41.21 C-95.58 33.45 -96.64 25.11 -94.57 16.47 C-90.82 5.21 -84.81 -1.26 -74.26 -6.66 C-51.4 -16.07 -20.29 -14.92 0 0 Z " fill="#1500ff" transform="translate(2258.2578125,555.66015625)"/>
<path d="M0 0 C34.65 0 69.3 0 105 0 C105 7.59 105 15.18 105 23 C79.92 23 54.84 23 29 23 C29 31.91 29 40.82 29 50 C52.43 50 75.86 50 100 50 C100 57.59 100 65.18 100 73 C76.57 73 53.14 73 29 73 C29 84.22 29 95.44 29 107 C55.07 107 81.14 107 108 107 C108 114.59 108 122.18 108 130 C72.36 130 36.72 130 0 130 C0 87.1 0 44.2 0 0 Z " fill="#1500ff" transform="translate(2034,546)"/>
<path d="M0 0 C9.57 0 19.14 0 29 0 C29 16.83 29 33.66 29 51 C47.15 51 65.3 51 84 51 C84 34.17 84 17.34 84 0 C93.57 0 103.14 0 113 0 C113 42.9 113 85.8 113 130 C103.43 130 93.86 130 84 130 C84 111.52 84 93.04 84 74 C65.85 74 47.7 74 29 74 C29 92.48 29 110.96 29 130 C19.43 130 9.86 130 0 130 C0 87.1 0 44.2 0 0 Z " fill="#1500ff" transform="translate(1169,546)"/>
<path d="M0 0 C30.09 -2.67 30.09 -2.67 37.56 1.39 C41.34 5.1 43.17 9.7 45.01 14.59 C46.66 18.61 49.12 22.05 51.56 25.62 C52.47 27.02 53.37 28.42 54.27 29.82 C58.45 36.25 62.72 42.63 67 49 C71.37 42.91 75.5 36.72 79.43 30.35 C80.72 28.27 82.03 26.2 83.35 24.15 C86.69 18.94 89.73 14.03 91.64 8.12 C93.51 4.74 95.81 2.19 99 0 C102 -0.64 104.19 -0.91 107.18 -0.9 C107.93 -0.92 108.69 -0.94 109.47 -0.96 C117.33 -1.1 125.17 -0.63 133 0 C131.63 3.88 129.83 6.83 127.36 10.11 C123.19 15.73 119.17 21.44 115.19 27.19 C114.14 28.69 114.14 28.69 113.07 30.23 C110.05 34.6 107.02 38.96 104.01 43.34 C103.6 43.95 103.18 44.55 102.76 45.17 C101.89 46.43 101.04 47.69 100.2 48.97 C97.8 52.55 95.29 55.88 92.46 59.13 C80.6 73.33 80.1 85.77 80.62 103.75 C80.65 106.31 80.66 108.87 80.67 111.43 C80.7 117.62 80.85 123.8 81 130 C71.43 130 61.86 130 52 130 C52.02 126.16 52.04 122.31 52.06 118.36 C52.06 114.61 52.03 110.86 52.01 107.11 C52 104.51 52.01 101.92 52.03 99.33 C52.06 95.59 52.03 91.85 52 88.11 C52.02 86.96 52.04 85.81 52.06 84.63 C51.9 75.57 48.74 70.8 43 64 C41.74 62.25 40.5 60.48 39.28 58.7 C38.36 57.38 38.36 57.38 37.42 56.02 C36.79 55.11 36.15 54.19 35.5 53.25 C34.1 51.23 32.7 49.22 31.3 47.2 C30.59 46.18 29.88 45.15 29.15 44.1 C26.35 40.06 23.54 36.02 20.72 31.99 C18.09 28.21 15.46 24.42 12.83 20.64 C11.08 18.11 9.31 15.59 7.55 13.07 C6.53 11.61 5.52 10.15 4.5 8.69 C4.04 8.03 3.57 7.37 3.1 6.69 C0 2.23 0 2.23 0 0 Z " fill="#1500ff" transform="translate(1716,546)"/>
<path d="M0 0 C36.96 0 73.92 0 112 0 C112 7.59 112 15.18 112 23 C98.47 23 84.94 23 71 23 C71 58.31 71 93.62 71 130 C61.1 130 51.2 130 41 130 C41 94.69 41 59.38 41 23 C27.47 23 13.94 23 0 23 C0 15.41 0 7.82 0 0 Z " fill="#1500ff" transform="translate(2287,546)"/>
<path d="M0 0 C36.96 0 73.92 0 112 0 C112 7.59 112 15.18 112 23 C98.47 23 84.94 23 71 23 C71 58.31 71 93.62 71 130 C61.1 130 51.2 130 41 130 C41 94.69 41 59.38 41 23 C27.47 23 13.94 23 0 23 C0 15.41 0 7.82 0 0 Z " fill="#1500ff" transform="translate(1904,546)"/>
<path d="M0 0 C37.29 0 74.58 0 113 0 C113 7.59 113 15.18 113 23 C99.14 23 85.28 23 71 23 C71 58.31 71 93.62 71 130 C61.43 130 51.86 130 42 130 C42 94.69 42 59.38 42 23 C28.14 23 14.28 23 0 23 C0 15.41 0 7.82 0 0 Z " fill="#1500ff" transform="translate(1038,546)"/>
</svg>
