<?xml version="1.0" encoding="utf-8"?>
<!-- Generator: Adobe Illustrator 26.0.2, SVG Export Plug-In . SVG Version: 6.00 Build 0)  -->
<svg version="1.1" id="Layer_1" xmlns="http://www.w3.org/2000/svg" xmlns:xlink="http://www.w3.org/1999/xlink" x="0px" y="0px"
	 viewBox="0 0 960 640" style="enable-background:new 0 0 960 640;" xml:space="preserve">
<style type="text/css">
	.st0{fill-rule:evenodd;clip-rule:evenodd;}
	.st1{fill-rule:evenodd;clip-rule:evenodd;fill:#FFFFFF;}
</style>
<g>
	<path class="st0" d="M334.2,96.5c-14.5,0-26.3,11.8-26.3,26.3c0,108.2,0,286.3,0,394.5c0,14.5,11.8,26.3,26.3,26.3
		c99.1,0,192.6,0,291.7,0c14.5,0,26.3-11.8,26.3-26.3c0-108,0-286.3,0-394.5c0-14.5-11.8-26.3-26.3-26.3
		C526.8,96.5,433.2,96.5,334.2,96.5L334.2,96.5z"/>
	<path class="st1" d="M334.2,109.6c-7.3,0-13.1,6-13.1,13.1c0,108.2,0,286.3,0,394.5c0,7.3,5.8,13.1,13.1,13.1
		c99.1,0,192.6,0,291.7,0c7.1,0,13.1-5.8,13.1-13.1c0-108,0-286.3,0-394.5c0-7.1-6-13.1-13.1-13.1
		C526.8,109.6,433.2,109.6,334.2,109.6L334.2,109.6z"/>
	<path class="st0" d="M447,131.6h-37.3c-9.7,0-17.5,7.8-17.5,17.5v105.3c0,9.7,7.8,17.5,17.5,17.5h74.6c9.7,0,17.5-7.8,17.5-17.5
		V149.1c0-9.7-7.8-17.5-17.5-17.5L447,131.6L447,131.6z M436.1,199.5L436.1,199.5c15.7,0,28.5,12.8,28.5,28.5
		c0,15.7-12.8,28.5-28.5,28.5c-15.7,0-28.5-12.8-28.5-28.5C407.6,212.3,420.4,199.5,436.1,199.5L436.1,199.5z M436.1,208L436.1,208
		c11.1,0,20,9,20,20c0,11.1-9,20-20,20c-11.1,0-20-9-20-20C416.1,217,425.1,208,436.1,208L436.1,208z M471.1,141L471.1,141
		c9.2,0,16.7,7.5,16.7,16.7c0,9.2-7.5,16.7-16.7,16.7c-9.2,0-16.7-7.5-16.7-16.7C454.4,148.5,461.9,141,471.1,141L471.1,141z
		 M471.1,149.2L471.1,149.2c4.8,0,8.7,3.9,8.7,8.7c0,4.8-3.9,8.7-8.7,8.7c-4.8,0-8.7-3.9-8.7-8.7
		C462.4,153.1,466.3,149.2,471.1,149.2L471.1,149.2z M515.9,155H509l0,0v79.5l0,0h6.9h0L515.9,155L515.9,155z M523,160.1h6.9v74.4
		H523V160.1L523,160.1z M537,241.2v-70.1l0,0h7.3v13.1l0,0h23.4v43.9h-23.4l0,0v21.8H509v-8.7L537,241.2L537,241.2z"/>
	<path class="st0" d="M364.9,342h-4l6-19.4l6.5,19.4h-4H364.9z M363.8,350.7H358l-2.9,8.7h-10l15.8-49h12.2l16,49h-10.2l-2.9-8.7h-6
		H363.8z"/>
	<polygon class="st0" points="413.2,359.6 416.8,359.6 428.8,324.7 418.3,324.7 411,348.3 403.6,324.7 393.8,324.7 406.1,359.6 
		409.9,359.6 	"/>
	<path class="st0" d="M442.2,338.3h14l0,0c0-3.1-2.4-6.9-6.9-6.9C444.8,331.4,442.2,334.9,442.2,338.3L442.2,338.3z M442.2,345.4
		h23.1l0,0c0.4-4.5-1.3-22-16.3-22c-13.1,0-16,14-16,18.5s2.7,18.9,17.1,18.9c8.2,0,12.5-4.9,13.6-6l0,0l-5.8-5.6l0,0
		c0,0-2.4,3.3-7.8,3.3C445,352.5,442.2,348.7,442.2,345.4L442.2,345.4z"/>
	<path class="st0" d="M494.5,332.2v-8.7l0,0c-8.7,0-10,2.2-12,4.5l0,0v-3.6h-9.1v35h9.1V342l0,0
		C482.4,336.7,488.2,332.2,494.5,332.2L494.5,332.2z"/>
	<path class="st0" d="M522.3,343.6v6.7l0,0c0,2.7-5.1,2.4-6,2.4c-0.7,0-6.2,0-6.2-4.2C510.1,343.8,516.7,343.6,522.3,343.6
		L522.3,343.6z M531.4,350.1v-18.3l0,0c0-4.9-4.5-8.5-14.2-8.5c-7.6,0-12.7,3.3-14.7,4.5l0,0l4,6.9l0,0c2.9-2,9.4-3.3,12-3.3
		c2.7,0,3.8,2,3.8,3.1l0,0v2l0,0c-3.1,0-10.9,1.3-14,2.4c-2.7,0.9-7.6,2.9-7.6,10c0,6.9,7.1,11.6,14.5,11.6c6,0,8.2-3.6,8.2-3.6
		s3.1,3.6,8.5,3.8l0,0l3.6-7.4l0,0C531.2,352.7,531.4,351.2,531.4,350.1L531.4,350.1z"/>
	<path class="st0" d="M540.1,367.2l4.2-7.6l0,0c1.8,0.9,4.9,3.1,11.4,3.1c8.9,0,7.3-6.9,7.3-6.9s-2.9,2-6.9,2
		c-15.6,0-16-16.9-16-16.9s0-7.8,5.3-12.5c3.1-2.7,6.2-3.8,10.7-3.8c1.3,0,4.7,0.4,6.9,1.6l0,0v-1.8h9.1v35.6l0,0
		c0,8-10.7,11.1-16.5,11.1C550.1,371.2,543.7,369.2,540.1,367.2L540.1,367.2z M563,340.9c0-3.6-1.8-7.3-6.5-7.3
		c-4.7,0-6.2,4.2-6.2,7.3c0,3.3,1.3,7.8,6.2,7.8l0,0C561.3,348.7,563,344.9,563,340.9L563,340.9z"/>
	<path class="st0" d="M590.4,338.3h14l0,0c0-3.1-2.4-6.9-6.9-6.9C593.1,331.4,590.4,334.9,590.4,338.3L590.4,338.3z M590.4,345.4
		h23.2l0,0c0.4-4.5-1.3-22-16.3-22c-13.1,0-16,14-16,18.5s2.7,18.9,17.1,18.9c8.2,0,12.5-4.9,13.6-6l0,0l-5.8-5.6l0,0
		c0,0-2.4,3.3-7.8,3.3C593.3,352.5,590.4,348.7,590.4,345.4L590.4,345.4z"/>
	<path class="st0" d="M383.1,424l6.9-6l0,0c2.4,2.9,8,5.6,10.2,5.6c2.4,0,4.7-1.8,4.7-3.6c0-1.8-1.3-2.7-2.7-2.9
		c-1.1-0.4-5.8-1.6-6.9-1.8c-0.9-0.2-9.1-1.8-9.1-10.2c0-8.7,9.1-10.9,14.7-10.9c5.3,0,10.2,1.6,14.2,5.1l0,0l-5.8,6.2l0,0
		c-3.3-2.9-5.8-4-8.5-4c-2.7,0-4.9,1.1-4.9,3.1c0,2.2,1.6,2.4,2.4,2.7c0.7,0.2,6.7,1.6,8,1.8c1.3,0.2,8.2,2.4,8.2,10.5
		c0,8.2-7.6,11.6-14.7,11.6C392.7,431.1,385.6,427.1,383.1,424L383.1,424z"/>
	<path class="st0" d="M430.1,408.2v6.5l0,0c0,3.6,2.4,7.1,7.8,7.1c5.3,0,8.2-4.9,8.2-10.5c0-5.6-2.9-10.2-8.2-10.2
		C432.6,401,430.1,404.8,430.1,408.2L430.1,408.2z M430.1,396.1v-1.6H421v45.2h9.1v-12.7l0,0c0,0,2.9,3.6,9.6,3.6
		c12.2,0,16-13.4,16-18.9c0-4.5-1.8-9.6-4.5-12.7c-2.7-3.1-6.5-5.8-12-5.8C435.9,393,432.4,394.4,430.1,396.1L430.1,396.1z"/>
	<path class="st0" d="M471.1,408.4h14l0,0c0-3.1-2.4-6.9-6.9-6.9C473.8,401.5,471.1,405.1,471.1,408.4L471.1,408.4z M471.1,415.5
		h23.2l0,0c0.4-4.5-1.3-22-16.3-22c-13.1,0-16,14-16,18.5c0,4.5,2.7,18.9,17.2,18.9c8.2,0,12.5-4.9,13.6-6l0,0l-5.8-5.6l0,0
		c0,0-2.4,3.3-7.8,3.3C474,422.6,471.1,418.9,471.1,415.5L471.1,415.5z"/>
	<path class="st0" d="M509.6,408.4h14.3l0,0c0-3.1-2.7-6.9-7.1-6.9S509.6,405.1,509.6,408.4L509.6,408.4z M509.6,415.5h23.2l0,0
		c0.4-4.5-1.3-22-16.3-22c-13.1,0-16,14-16,18.5c0,4.5,2.7,18.9,17.1,18.9c8.2,0,12.5-4.9,13.6-6l0,0l-5.6-5.6l0,0
		c0,0-2.7,3.3-7.8,3.3C512.5,422.6,509.6,418.9,509.6,415.5L509.6,415.5z"/>
	<path class="st0" d="M563.5,409.1c0,2,0,4.2,0,6.5c0,0.9-0.4,1.8-0.7,2.4c-0.4,0.7-0.9,1.6-1.6,2.2c-1.3,1.1-2.7,2-5.3,2
		c-5.3,0-8-3.6-8-10.2s3.6-10.5,8-10.5C560.6,401.5,563.5,404.8,563.5,409.1L563.5,409.1z M563.7,396.1c0-5.1,0-10.2-0.2-15.6
		c3.1,0,6.5,0,9.8,0c0,16.3,0,32.5,0,49c-3.1,0-6.5,0-9.8,0c0-0.7,0-1.3,0-2.2c0,0-1.1,1.3-3.1,2.2c-1.8,0.7-4,1.1-6.2,1.1
		c-2.4,0-6.2-0.7-9.4-3.1c-3.6-2.7-6.5-7.8-6.5-15.6c0-6.9,1.6-11.1,4.7-14c3.3-3.3,8.2-4.9,10.5-4.9
		C557.7,393,559.9,393.7,563.7,396.1L563.7,396.1z"/>
	<path class="st0" d="M417.4,474.1l-8.5,2.7l0,0c-0.7-2.4-3.1-5.6-6.9-5.6c-3.8,0-8.2,3.8-8.2,11.1c0,7.6,4,11.4,8.2,11.4
		c4,0,6.7-4,7.1-6l0,0l8.9,1.8l0,0c-1.1,4.7-6.7,12.2-15.8,12.2c-9.1,0-17.6-7.6-17.6-19.4s9.4-18.9,16.9-18.9
		C409.4,463.4,415.7,468.5,417.4,474.1L417.4,474.1z"/>
	<path class="st0" d="M433.5,466.5v-15.6h-9.1v49h9.1V479l0,0c0-3.1,3.1-6.2,6.2-6.2c3.3,0,6.9,2.2,6.9,6.2l0,0v20.9h8.9v-24l0,0
		c0-6.9-6-11.8-12.7-11.8C437,464.1,434.8,466.1,433.5,466.5L433.5,466.5z"/>
	<path class="st0" d="M473.5,478.5h14l0,0c0-3.1-2.7-6.9-6.9-6.9C476.2,471.6,473.5,475.2,473.5,478.5L473.5,478.5z M473.5,485.7
		h23.2l0,0c0.4-4.5-1.3-22-16.3-22c-13.1,0-16,14-16,18.5s2.7,18.9,16.9,18.9c8.2,0,12.7-4.9,13.8-6l0,0l-5.8-5.6l0,0
		c0,0-2.4,3.3-7.8,3.3C476.4,492.8,473.5,489,473.5,485.7L473.5,485.7z"/>
	<path class="st0" d="M535,474.1l-8.2,2.7l0,0c-0.9-2.4-3.1-5.6-7.1-5.6c-3.8,0-8.2,3.8-8.2,11.1c0,7.6,4.2,11.4,8.2,11.4
		c4.2,0,6.7-4,7.1-6l0,0l8.9,1.8l0,0c-0.9,4.7-6.5,12.2-15.6,12.2c-9.1,0-17.6-7.6-17.6-19.4s9.1-18.9,16.9-18.9
		C527,463.4,533.2,468.5,535,474.1L535,474.1z"/>
	<polygon class="st0" points="551.2,467.4 551.2,450.9 542.3,450.9 542.3,499.7 551.2,499.7 551.2,490.1 555,486.3 564.2,499.7 
		575.3,499.7 561.3,479.9 575.7,465 563.5,465 551.2,477.9 551.2,470.1 	"/>
</g>
</svg>
