<?xml version="1.0" encoding="utf-8"?>
<!-- Generator: Adobe Illustrator 26.0.2, SVG Export Plug-In . SVG Version: 6.00 Build 0)  -->
<svg version="1.1" id="Layer_1" xmlns="http://www.w3.org/2000/svg" xmlns:xlink="http://www.w3.org/1999/xlink" x="0px" y="0px"
	 viewBox="0 0 960 640" style="enable-background:new 0 0 960 640;" xml:space="preserve">
<style type="text/css">
	.st0{fill-rule:evenodd;clip-rule:evenodd;fill:#FFFFFF;stroke:#006FB6;stroke-width:4.6772;stroke-miterlimit:10;}
	.st1{fill-rule:evenodd;clip-rule:evenodd;fill:#006FB6;}
	.st2{fill-rule:evenodd;clip-rule:evenodd;fill:#FFFFFF;}
	.st3{fill-rule:evenodd;clip-rule:evenodd;fill:#BD002D;}
</style>
<g>
	<path class="st0" d="M480,84c130.3,0,236,105.7,236,236S610.3,556,480,556S244,450.3,244,320C244,189.7,349.7,84,480,84"/>
	<path class="st1" d="M481.3,96.8c123.9,0,224.5,100.6,224.5,224.5S605.2,545.8,481.3,545.8c-123.9,0-224.5-100.6-224.5-224.5
		C256.8,197.4,357.4,96.8,481.3,96.8"/>
	<path class="st2" d="M586.6,206.5c-47.5,0-87.5,40-87.5,113.3c0,75.2,41.2,113.7,87.5,113.7l0,0c45.9,0,87.5-38.4,87.5-113.7
		C674.2,246.5,633.8,206.5,586.6,206.5L586.6,206.5z M586.6,241c-23.7,0-49.5,21.4-49.5,78.8c0,57,25,78.4,49.5,78.4l0,0
		c24.6,0,49.5-21.4,49.5-78.4C636.1,262.4,610.4,241,586.6,241L586.6,241z"/>
	<path class="st2" d="M339.6,362.9l-38.4,5.9l0,0c0,30.1,28.9,64.2,80.8,64.2c51.9,0,76.4-32.9,76.4-68.9
		c0-35.6-26.5-47.1-26.5-47.1s23.7-8.7,23.7-40.8c0-30.1-16.6-66.9-74.8-66.9c-58.2,0-79.6,41.6-79.6,67.7l0,0l38.4,4.8l0,0
		c0-18.2,11.5-39.6,43.2-39.6c31.7,0,35.6,23.8,35.6,31.3c0,5.9,6.3,30.5-54.3,30.5l0,0v29.7l0,0c18.2,0,37.2,0,46.3,7.5
		c8.7,6.7,8.7,18.2,8.7,23.8c0,5.5-2,32.9-38.8,32.9C343.5,397.8,339.6,372.8,339.6,362.9L339.6,362.9z"/>
	<path class="st3" d="M655.2,180l0.3-0.3c-9.9-12.3-21.2-23.5-33.5-33.4L306.7,462.6c9.8,12.1,20.9,23.1,32.9,32.9L655.2,180z"/>
</g>
</svg>
