<?xml version="1.0" encoding="utf-8"?>
<!-- Generator: Adobe Illustrator 26.0.2, SVG Export Plug-In . SVG Version: 6.00 Build 0)  -->
<svg version="1.1" id="Layer_1" xmlns="http://www.w3.org/2000/svg" xmlns:xlink="http://www.w3.org/1999/xlink" x="0px" y="0px"
	 viewBox="0 0 960 640" style="enable-background:new 0 0 960 640;" xml:space="preserve">
<style type="text/css">
	.st0{fill-rule:evenodd;clip-rule:evenodd;}
	.st1{fill-rule:evenodd;clip-rule:evenodd;fill:#FFFFFF;}
</style>
<g>
	<path class="st0" d="M480,98.5H305.6c-17.1,0-30.9,13.8-30.9,30.9v381.3c0,17.1,13.8,30.9,30.9,30.9h348.8
		c17.1,0,30.9-13.8,30.9-30.9V129.4c0-17.1-13.8-30.9-30.9-30.9H480L480,98.5z"/>
	<path class="st1" d="M480,113.9H305.6c-8.5,0-15.4,6.9-15.4,15.4v381.3c0,8.5,6.9,15.4,15.4,15.4h348.8c8.5,0,15.4-6.9,15.4-15.4
		V129.4c0-8.5-6.9-15.4-15.4-15.4H480L480,113.9z"/>
	<path class="st0" d="M360,398.1l8.4-8.1l0,0c10.7,7.6,19.4,8.1,21.7,8.1c2.9,0,6-2.9,6-6.5c0-3.7-2.6-5.5-4.4-6
		c-1.8-0.5-9.9-2.1-13.1-2.9c-3.4-0.8-13.9-3.7-13.9-16.5s8.9-17.3,19.4-17.3c10.2,0,18.1,2.9,24.6,8.9l0,0l-7.9,7.9l0,0
		c-4.2-3.4-9.7-6-17.5-6c-4.7,0-5.8,4.4-5.8,6s1.3,4.7,4.2,5.5c3.1,0.5,11.3,2.6,12.3,2.9c3.4,0.3,14.9,4.7,14.9,16.7
		c0,11-7.3,18.1-20.7,18.1C374.9,408.9,364.5,402.6,360,398.1L360,398.1z"/>
	<path class="st0" d="M479.1,382.7h16.5l0,0c0-3.7-2.9-8.1-8.1-8.1C482.2,374.6,479.1,378.8,479.1,382.7L479.1,382.7z M479.1,391
		h27.2l0,0c0.5-5.2-1.6-25.9-19.1-25.9c-15.4,0-18.8,16.5-18.8,21.7s3.1,22.2,20.1,22.2c9.7,0,14.7-5.8,16-7.1l0,0l-6.5-6.5l0,0
		c0,0-3.1,3.9-9.4,3.9C482.5,399.4,479.1,395,479.1,391L479.1,391z"/>
	<path class="st0" d="M524.4,382.7h16.7l0,0c0-3.7-3.1-8.1-8.4-8.1C527.5,374.6,524.4,378.8,524.4,382.7L524.4,382.7z M524.4,391
		h27.2l0,0c0.5-5.2-1.6-25.9-19.1-25.9c-15.4,0-18.8,16.5-18.8,21.7s3.1,22.2,20.2,22.2c9.7,0,14.7-5.8,16-7.1l0,0l-6.5-6.5l0,0
		c0,0-3.1,3.9-9.2,3.9C527.8,399.4,524.4,395,524.4,391L524.4,391z"/>
	<path class="st0" d="M589.3,383.7c0,2.6,0,5.2,0,8.1c0,3.4-2.9,8.4-9.2,8.4c-6.3,0-9.7-5.2-9.7-13.1c0-7.6,4.2-11.5,9.4-11.5
		C585.3,375.6,589.3,378.8,589.3,383.7L589.3,383.7z M589.3,369.6c0-6.5,0-13.1,0-19.6c3.4,0,7.1,0,10.7,0c0,19.1,0,38.5,0,57.8
		c-3.4,0-7.1,0-10.7,0c0-0.5,0-1,0-1.8c0,0-4.4,3.4-10.7,3.4c-6.3,0-19.1-5.2-19.1-22.2s13.3-21.7,18.3-21.7
		C582.7,365.4,585.1,366.7,589.3,369.6L589.3,369.6z"/>
	<path class="st0" d="M430.9,382.4v7.6l0,0c0,4.2,2.9,8.4,9.2,8.4c6.3,0,9.7-5.8,9.7-12.3c0-6.5-3.4-12-9.7-12
		C433.8,374,430.9,378.5,430.9,382.4L430.9,382.4z M430.9,368.3v-1.8h-10.7v53.1h10.7v-14.9l0,0c0,0,3.4,4.2,11.3,4.2
		c14.4,0,18.8-15.4,18.8-22.2c0-5.2-2.1-11.3-5.2-14.9c-3.1-3.4-7.6-6.8-14.1-6.8C437.7,364.6,433.5,366.2,430.9,368.3L430.9,368.3z
		"/>
	<path class="st0" d="M357.1,459.9l-9.9,3.1l0,0c-1-2.9-3.7-6.5-8.4-6.5c-4.4,0-9.7,4.4-9.7,13.1c0,8.9,5,13.3,9.7,13.3
		c5,0,7.9-4.7,8.6-7.1l0,0l10.5,2.1l0,0c-1.3,5.5-7.9,14.4-18.6,14.4s-20.7-8.9-20.7-22.8s10.7-22.2,19.9-22.2
		C347.7,447.3,355,453.3,357.1,459.9L357.1,459.9z"/>
	<path class="st0" d="M470.2,462v28.3h-10.7v-25.4l0,0c0-3.9-3.1-6.8-6.5-6.8c-3.1,0-7.1,2.9-7.1,8.1l0,0v24.1h-10.7v-25.6l0,0
		c0-3.7-3.1-6.5-6-6.5c-3.1,0-7.6,2.4-7.6,8.1l0,0v24.1h-10.7v-41.3h10.7v2.4l0,0c0,0,3.9-3.1,11-3.1c6.3,0,9.9,4.4,9.9,4.4
		c-0.3,0,4.4-4.7,11.3-4.7C464.4,447.8,470.2,455.2,470.2,462L470.2,462z"/>
	<path class="st0" d="M388,471.4v7.9l0,0c0,3.1-6,2.9-7.1,2.9c-1,0-7.3,0-7.3-5C373.6,471.7,381.2,471.4,388,471.4L388,471.4z
		 M398.7,479v-21.5l0,0c0-5.8-5.5-9.9-16.7-9.9c-9.2,0-15.2,3.9-17.3,5.2l0,0l4.4,8.1h0c3.7-2.4,11-3.9,14.1-3.9
		c3.1,0,4.7,2.4,4.7,3.7l0,0v2.4l0,0c-3.7,0-12.8,1.6-16.5,2.9c-3.4,1.1-8.9,3.4-8.9,11.8c0,8.1,8.4,13.6,16.7,13.6
		c7.3,0,9.7-4.4,9.7-4.4s3.7,4.4,9.9,4.7l0,0l4.4-8.6l0,0C398.2,482.1,398.7,480.3,398.7,479L398.7,479z"/>
	<path class="st0" d="M585.3,471.4v7.9l0,0c0,3.1-6,2.9-7.1,2.9c-1.1,0-7.3,0-7.3-5C570.9,471.7,578.5,471.4,585.3,471.4
		L585.3,471.4z M596.1,479v-21.5l0,0c0-5.8-5.5-9.9-16.7-9.9c-8.9,0-15.2,3.9-17.3,5.2l0,0l4.4,8.1l0,0c3.7-2.4,11-3.9,14.1-3.9
		c3.1,0,4.7,2.4,4.7,3.7l0,0v2.4l0,0c-3.7,0-12.8,1.6-16.5,2.9c-3.4,1.1-8.9,3.4-8.9,11.8c0,8.1,8.4,13.6,16.7,13.6
		c7.3,0,9.7-4.4,9.7-4.4s3.7,4.4,9.9,4.7l0,0l4.4-8.6l0,0C595.5,482.1,596.1,480.3,596.1,479L596.1,479z"/>
	<path class="st0" d="M604.4,483.4l8.1-7.1l0,0c2.6,3.4,9.2,6.5,12,6.5c2.9,0,5.2-2.1,5.2-4.2s-1.6-3.1-2.9-3.4
		c-1.6-0.5-7.1-1.8-8.1-2.1c-1.1-0.3-11-2.1-11-12c0-10.2,11-12.8,17.3-12.8c6.5,0,12.3,1.8,16.8,6l0,0l-6.8,7.3l0,0
		c-3.9-3.4-6.5-4.7-9.7-4.7c-3.4,0-5.8,1.3-5.8,3.7c0,2.6,1.8,2.9,2.6,3.1c1,0.3,7.9,1.6,9.7,2.1c1.6,0.3,9.7,2.9,9.7,12.3
		c0,9.7-8.9,13.3-17.5,13.3C615.7,491.5,607.3,487.1,604.4,483.4L604.4,483.4z"/>
	<path class="st0" d="M491.1,465.1h16.5l0,0c0-3.7-3.1-8.1-8.4-8.1C494.3,457,491.1,461.2,491.1,465.1L491.1,465.1z M490.9,473.5
		h27.5l0,0c0.5-5.2-1.6-25.9-19.1-25.9c-15.4,0-18.8,16.5-18.8,21.7c0,5.2,3.1,22.2,19.9,22.2c9.7,0,14.7-5.8,16-7.1l0,0l-6.5-6.5
		l0,0c0,0-3.1,3.9-9.2,3.9C494.3,481.9,490.9,477.4,490.9,473.5L490.9,473.5z"/>
	<path class="st0" d="M552.4,458.1v-10.2l0,0c-9.9,0-11.5,2.6-14.1,5l0,0v-3.9h-10.7V490h10.7v-20.4l0,0
		C538.2,463.3,545,458.1,552.4,458.1L552.4,458.1z"/>
	<path class="st0" d="M441.4,139.8h-43.8c-11.3,0-20.5,9.2-20.5,20.5v123.8c0,11.3,9.2,20.5,20.5,20.5h87.7
		c11.3,0,20.5-9.2,20.5-20.5V160.4c0-11.3-9.2-20.5-20.5-20.5L441.4,139.8L441.4,139.8z M428.6,219.6L428.6,219.6
		c18.5,0,33.5,15,33.5,33.5c0,18.5-15,33.5-33.5,33.5c-18.5,0-33.5-15-33.5-33.5S410.1,219.6,428.6,219.6L428.6,219.6z M428.6,229.6
		L428.6,229.6c13,0,23.6,10.6,23.6,23.6c0,13-10.5,23.6-23.6,23.6S405,266.1,405,253.1C405,240.1,415.6,229.6,428.6,229.6
		L428.6,229.6z M469.7,150.8L469.7,150.8c10.8,0,19.6,8.8,19.6,19.6c0,10.8-8.8,19.6-19.6,19.6c-10.8,0-19.6-8.8-19.6-19.6
		C450,159.6,458.8,150.8,469.7,150.8L469.7,150.8z M469.7,160.5L469.7,160.5c5.6,0,10.2,4.6,10.2,10.2c0,5.6-4.6,10.2-10.2,10.2
		c-5.6,0-10.2-4.6-10.2-10.2C459.5,165.1,464,160.5,469.7,160.5L469.7,160.5z M522.3,167.3h-8.1l0,0v93.4l0,0h8.1l0,0V167.3
		L522.3,167.3z M530.6,173.3h8.1v87.4h-8.1V173.3L530.6,173.3z M547.1,268.6v-82.4l0,0h8.4v15.4l0,0H583v51.6h-27.5l0,0v25.6h-41.3
		v-10.2L547.1,268.6L547.1,268.6z"/>
</g>
</svg>
