<?xml version="1.0" encoding="utf-8"?>
<!-- Generator: Adobe Illustrator 26.0.2, SVG Export Plug-In . SVG Version: 6.00 Build 0)  -->
<svg version="1.1" id="Layer_1" xmlns="http://www.w3.org/2000/svg" xmlns:xlink="http://www.w3.org/1999/xlink" x="0px" y="0px"
	 viewBox="0 0 960 640" style="enable-background:new 0 0 960 640;" xml:space="preserve">
<style type="text/css">
	.st0{fill-rule:evenodd;clip-rule:evenodd;fill:#FFFFFF;stroke:#006FB6;stroke-width:4.774;stroke-miterlimit:10;}
	.st1{fill-rule:evenodd;clip-rule:evenodd;fill:#006FB6;}
	.st2{fill-rule:evenodd;clip-rule:evenodd;fill:#FFFFFF;}
</style>
<g>
	<path class="st0" d="M220.8,463.5c-19.7,0-36.1-16.4-36.1-36.1c0-71.5,0-143.4,0-215.2c0-19.4,16.4-35.8,36.1-35.8
		c172.8,0,345.6,0,518.4,0c19.7,0,36.1,16.4,36.1,35.8c0,71.5,0,143.4,0,215.2c0,19.7-16.4,36.1-36.1,36.1
		C566.4,463.5,393.6,463.5,220.8,463.5L220.8,463.5z"/>
	<path class="st1" d="M220.5,445.7c-9.7,0-17.9-8.2-17.9-18.2c0-71.5,0-143.4,0-215.2c0-9.7,8.2-17.9,17.9-17.9
		c172.8,0,345.9,0,519,0c9.7,0,17.9,8.2,17.9,17.9c0,71.5,0,143.4,0,215.2c0,10-8.2,18.2-17.9,18.2
		C566.7,445.7,393.6,445.7,220.5,445.7L220.5,445.7z"/>
	<polygon class="st2" points="593.1,224.3 611,224.3 609.1,271.9 584,271.9 	"/>
	<polygon class="st2" points="576.7,310.1 608.2,310.1 604.9,415.6 556.7,415.6 	"/>
	<polygon class="st2" points="644.9,224.3 627,224.3 628.9,271.9 654,271.9 	"/>
	<polygon class="st2" points="661.3,310.1 629.8,310.1 633.1,415.6 681.3,415.6 	"/>
	<path class="st2" d="M702.5,305.6v20h-14.2l-5.5-22.7l0,0c-1.2-3.9-3.6-4.5-7.6-4.5l0,0H561.6l0,0c-3.6,0.3-5.8,0.6-6.7,4.5l0,0
		l-5.4,22.7h-14.2v-20l0,0c0-3.6-1.2-7.3-7.9-7.3l0,0h-15.8v-14.2h215.6v14.2h-17.6l0,0C705.3,298.3,702.5,299.8,702.5,305.6
		L702.5,305.6z"/>
	<path class="st2" d="M378.1,346.2v-22.7l0,0c0-6.1-4.9-8.8-8.5-8.8c-3.6,0-8.5,3.3-8.5,8.8l0,0v23l0,0c0,6.4,4.9,9.1,8.5,9.1
		C373,355.6,378.1,353.2,378.1,346.2L378.1,346.2z M393.6,350.8v-27.3l0,0c0-16.4-15.2-20.3-20.3-20.3s-6.4,0.9-10.6,2.4l0,0
		l17-33.7h-17.6l-12.4,25.2l0,0c-1.8,3.6-4.3,11.5-4.3,19.4l0,0v33.3l0,0c0,13.6,11.5,20.6,24.3,20.6
		C382.4,370.5,393.6,363.5,393.6,350.8L393.6,350.8z"/>
	<path class="st2" d="M435.7,344.7l22.4-22.7l0,0c2.1-2.7,6.7-8.5,6.7-16.4l0,0v-16.4l0,0c0-15.2-12.1-20.9-23.9-20.9
		c-11.8,0-23,7.3-23,19.1l0,0v16.1h14.9V292l0,0c0-6.1,5.8-8.5,9.1-8.5c3,0,7.9,2.4,7.9,9.1l0,0v7.3l0,0c0,5.8-2.1,10.3-5.2,13.3
		l0,0l-22.4,22.7l0,0c-3,3.3-4.9,7.6-4.9,11.8l0,0v19.1h47.6v-14.2h-32.4l0,0C432.4,349.3,433,347.4,435.7,344.7L435.7,344.7z"/>
	<polygon class="st2" points="306.9,307.1 306.9,271.9 283.2,271.9 271.1,318.9 258.4,271.9 235,271.9 235,367.4 251.1,367.4 
		251.1,292 265.1,345.9 277.2,345.9 291.1,292 291.1,367.4 306.9,367.4 306.9,327.4 	"/>
</g>
</svg>
