<?xml version="1.0" encoding="utf-8"?>
<!-- Generator: Adobe Illustrator 26.0.2, SVG Export Plug-In . SVG Version: 6.00 Build 0)  -->
<svg version="1.1" id="Layer_1" xmlns="http://www.w3.org/2000/svg" xmlns:xlink="http://www.w3.org/1999/xlink" x="0px" y="0px"
	 viewBox="0 0 960 640" style="enable-background:new 0 0 960 640;" xml:space="preserve">
<style type="text/css">
	.st0{fill-rule:evenodd;clip-rule:evenodd;}
	.st1{fill-rule:evenodd;clip-rule:evenodd;fill:#C4C5C5;}
	.st2{fill-rule:evenodd;clip-rule:evenodd;fill:#FFFFFF;}
	.st3{fill-rule:evenodd;clip-rule:evenodd;fill:#BD002D;}
	.st4{fill-rule:evenodd;clip-rule:evenodd;fill:#F4D209;}
	.st5{fill-rule:evenodd;clip-rule:evenodd;fill:#F4D209;stroke:#000000;stroke-width:1.5365;stroke-miterlimit:10;}
</style>
<g>
	<path class="st0" d="M618.2,564.9c0,7.6-6.2,13.9-13.9,13.9c-82.9,0-165.8,0-248.8,0c-7.6,0-13.9-6.2-13.9-13.9
		c0-163.1,0-326.4,0-489.7c0-7.6,6.2-13.9,13.9-13.9c82.9,0,165.8,0,248.8,0c7.6,0,13.9,6.2,13.9,13.9
		C618.2,238.2,618.2,401.6,618.2,564.9L618.2,564.9z"/>
	<path class="st1" d="M355.6,420.9c-3.7,0-7,3.3-7,6.8c0,45.7,0,91.3,0,137.2c0,3.7,3.3,6.8,7,6.8c82.9,0,165.8,0,248.8,0
		c3.7,0,7-3.1,7-6.8c0-45.7,0-91.3,0-137.2c0-3.5-3.3-6.8-7-6.8C521.5,420.9,438.5,420.9,355.6,420.9L355.6,420.9z"/>
	<path class="st2" d="M611.4,75.1c0-3.7-3.1-6.8-7-6.8l-248.8,0c-0.1,0-0.1,0-0.2,0c-3.8,0-6.8,3.1-6.8,6.8V407c0,3.9,3.1,7,7,7
		h248.8c3.9,0,7-3.1,7-7V75.1z"/>
	<path class="st3" d="M479.6,84c63.5,0,115.1,51.6,115.1,115.1s-51.6,115.1-115.1,115.1c-63.5,0-115.1-51.6-115.1-115.1
		C364.5,135.5,416,84,479.6,84"/>
	<path class="st2" d="M480.2,107.6c50.9,0,92.3,41.3,92.3,92.1c0,50.8-41.3,92.1-92.3,92.1s-92.3-41.3-92.3-92.1
		C387.9,148.9,429.3,107.6,480.2,107.6"/>
	<path class="st0" d="M525.9,171.7c9,0,18.1,5.3,18.5,27.7c0.2,22.2-8.2,29.1-18.5,29.1l0,0c-10.3,0-18.7-6.8-18.5-29.1
		C507.8,177,516.8,171.7,525.9,171.7L525.9,171.7z M525.9,155.7c12.3-0.2,36.1,6.8,36.1,44.3c0,37.3-22.4,44.7-36.1,44.7l0,0
		c-13.7,0-36.3-7.4-36.3-44.7C489.7,162.5,513.7,155.5,525.9,155.7L525.9,155.7z"/>
	<path class="st0" d="M425.1,188.3h-17.8l0,0c-0.4-15.6,8.4-34.5,34.7-34.5c25.8,0,31.4,22,31.4,29.9s-0.8,23-33,42.7l0,0h32v15.4
		h-62.2v-16l0,0c27.3-18.7,45.1-28.1,45.1-41c0-7.2-6-15-15.8-15C429.8,169.8,425.1,179.1,425.1,188.3L425.1,188.3z"/>
	<polygon class="st0" points="562.4,334.8 545.7,334.8 545.7,386.3 580.6,386.3 580.6,376.8 555.6,376.8 555.6,365.3 576.7,365.3 
		576.7,355.7 555.6,355.7 555.6,344.4 579,344.4 579,334.8 570.4,334.8 	"/>
	<polygon class="st0" points="489.3,334.8 493.2,334.8 518.5,370.3 518.5,334.8 528.5,334.8 528.5,386.5 516.8,386.5 493.6,351.4 
		493.6,386.5 483.2,386.5 483.2,334.8 485.8,334.8 	"/>
	<path class="st0" d="M445.8,344.2c-7,0-13.7,5.5-13.7,16.6c0,11.3,7,16.8,13.7,16.8l0,0c6.8,0,13.7-5.5,13.7-16.8
		C459.4,349.7,452.8,344.2,445.8,344.2L445.8,344.2z M445.8,334c-9.8,0-24.4,7.8-24.4,26.5c0,18.7,14.2,26.5,24.4,26.5l0,0
		c10.3,0,24.4-7.8,24.4-26.5C470.1,341.8,455.7,334,445.8,334L445.8,334z"/>
	<polygon class="st0" points="393.5,334.8 376.5,334.8 376.5,344 399.3,344 375.5,376.4 375.5,386.3 412.8,386.3 412.8,376.4 
		388,376.4 412,344 412,334.8 399.7,334.8 	"/>
	<polygon class="st2" points="473.1,462.8 472.5,460.3 467.8,458.1 465.7,457.9 457.7,456.6 456.1,456.6 449.5,454.6 445.6,452.9 
		439.5,453.4 437.4,453.4 435,454 432.9,454 430.5,455.8 430.5,456.6 432.1,458.9 431.3,459.7 432.9,461.8 436.4,464.6 438,465.2 
		438.3,465.9 441.1,466.7 441.7,468.7 445.4,470.4 450.2,471.6 452.8,472 455.3,471.8 454.7,472.8 455.1,473.7 457.3,474.1 
		461.6,474.5 467.6,474.3 472.7,463.6 	"/>
	<polygon class="st4" points="479.9,493.1 479.3,492.1 473.5,492.1 472.5,493.3 475.8,496.2 479.7,497.5 479.9,496.8 	"/>
	<polygon class="st4" points="479.9,480.8 479.3,479.8 466.6,474.3 464.9,474.5 466.1,479 465.9,480.4 467,483.7 468.8,486.2 
		476.4,487.8 479.9,485.8 	"/>
	<polygon class="st4" points="479.9,450.1 479.1,449.5 471.9,450.5 471.1,452.1 470.9,453.6 468.8,455.2 467.6,458.3 468.8,458.7 
		479.3,458.1 479.9,457.4 	"/>
	<polygon class="st0" points="479.9,445.3 477.6,445.1 475,445.6 471.9,449.9 471.1,445.1 470.1,443.7 469.8,441.7 468.2,440.8 
		467.4,438.6 467.6,437.6 467.2,437.5 465.1,439.6 465.7,439.8 466.6,439.6 467.2,440.8 467,441.5 467.8,442.5 467.6,444.3 
		468.6,445.5 468.6,448.8 470.3,449.4 470.9,451.7 471.3,451.7 473.3,450.5 474.2,451.1 475.4,450.5 476.6,450.7 477.6,450.3 
		478.7,450.3 479.3,450.1 479.9,450.1 	"/>
	<polygon class="st0" points="476.2,445.5 476,444.9 474.8,443.5 473.9,442.3 473.1,441.7 471.7,441.2 471.3,440.8 470.5,439.4 
		470.3,439.4 470.1,439.6 470.1,439.8 470.7,441.4 471.3,441.5 472.7,442.3 473.7,443.1 475,444.7 475.2,445.8 	"/>
	<polygon class="st0" points="479.9,457.4 478.9,457.4 477.9,457.2 476.2,457.4 474.6,457.2 474,457.4 472.3,457.4 471.7,457 
		471.1,457 467.6,458.1 468.2,459.3 469.9,460.3 471.7,460.9 472.1,461.3 472.3,462.2 472.1,462.8 470.3,466.5 468,469.3 
		465.3,474.3 467,475.3 467.2,476.3 467.6,476.5 469.8,477.1 470.3,478 472.7,478 473.5,479.2 474.2,479.6 475,480.2 478.7,480.8 
		479.9,480.8 	"/>
	<polygon class="st0" points="479.9,485.8 478.1,485.8 477.8,486 477,486.8 476.6,487 476,487 475.4,486.6 474.8,486.6 474.4,487 
		474,487 472.7,486.2 471.9,486.2 471.3,486 470.7,485.4 470.1,485.3 468,485.4 469.4,488.8 470.3,490.1 470.9,492.1 472.5,493.8 
		474,493.1 475,493.1 476.8,493.8 477.2,493.8 478.9,493.1 479.9,493.1 	"/>
	<polygon class="st0" points="479.9,496.8 479.5,497 479.1,497 476.2,496 475.6,495.8 472.9,493.4 472.5,493.8 474,495.2 
		475.2,496.4 475.6,496.6 479.3,497.7 479.7,498.1 479.9,498.3 	"/>
	<polygon class="st0" points="464.5,474.5 463.9,476.3 463.5,478.4 461.8,481 461.2,482.1 460.2,486.8 460,488 460.2,492.5 
		460.4,492.9 461.8,492.9 461.8,493.4 461.2,497.5 460.8,500.1 460.8,500.9 462.3,504.4 463.5,504.4 463.7,504.2 462.1,501.1 
		462.1,499.3 462.5,495.2 463.9,493.1 464.3,490.3 464.5,486.4 464.5,482.9 464.1,481.2 464.1,480.4 465.3,477.1 465.1,474.3 	"/>
	<polygon class="st0" points="468.6,485.6 468.2,484.9 467.2,483.1 466.2,480.2 466.2,478.8 465.7,476.1 465.5,475.3 465.3,474.3 
		464.7,474.5 465.5,477.4 465.7,479 465.7,480.2 465.9,481.3 466.6,483.5 468.4,486 	"/>
	<polygon class="st0" points="472.7,450.9 471.7,451.7 471.3,452.1 471.5,453.4 471.3,453.8 469.2,455.2 469.2,455.4 468.2,457.5 
		468,458.1 467.4,458.1 468.4,455.2 469,454.6 470.7,453.6 470.7,453.4 470.7,452.1 471.1,451.1 	"/>
	<polygon class="st0" points="468,457.9 465.9,457.7 458,456.4 455.7,456.2 450,454.4 448.1,453.6 446.9,453.1 445.6,452.7 
		444.6,452.7 439.9,453.1 437.4,453.1 435.2,453.6 433.9,453.6 432.9,453.6 430.3,455.6 430,456 430,456.6 430.1,456.8 431.7,458.7 
		431.7,458.9 431.1,459.3 430.9,459.5 430.9,459.7 432.1,461.6 432.7,462 435.8,464.6 436.2,464.8 437.4,465.2 437.6,465.4 
		438,466.1 438.1,466.3 440.5,466.7 440.7,466.9 440.9,467.5 441.5,468.9 442,469.3 443,469.6 445,470.6 448.3,471.6 450,472 
		452.6,472.2 454.7,472 454.7,472.2 454.3,472.6 454.3,473 454.3,473.5 454.7,473.7 455.7,474.3 457.7,474.5 460.6,474.7 
		462.3,474.9 466.6,474.7 466.4,474.1 462.1,474.3 460.4,474.1 456.1,473.7 455.5,473.4 455.1,473.2 455.1,472.8 456.1,472 
		456.1,471.6 455.9,471.4 454.7,471.6 452.4,471.6 449.5,471.2 445.2,470 445.2,470 442.4,468.7 441.9,468.1 441.5,467.3 
		441.7,466.5 441.5,466.3 438.5,465.7 438.3,465.5 438.3,465 438,464.6 436.8,464.2 436,463.8 433.1,461.8 432.7,461.3 431.9,459.9 
		431.9,459.5 432.7,459.1 432.7,458.9 430.7,456.8 430.7,456.4 430.9,456 433.3,454.4 435.4,454.4 437.6,453.8 440.1,453.6 
		444.6,453.3 445.6,453.3 446.9,453.8 448.1,454.4 450,455.2 455.7,457 458,457 466.2,458.3 468,458.5 	"/>
	<polygon class="st0" points="458.4,459.1 458.4,458.7 454.3,457.9 449.9,456.2 444,455.2 443,455 437.6,455.8 433.9,457 
		433.9,457.4 437.8,456 443.2,455.4 444.4,455.6 449.9,456.6 454.1,458.1 458.2,458.9 	"/>
	<polygon class="st0" points="457.7,459.5 454.9,459.5 447.3,458.3 443.2,457.9 442.2,457.9 435.6,459.7 435.8,460.1 442.2,458.5 
		443.4,458.3 447.5,458.7 454.7,459.9 457.7,459.9 	"/>
	<polygon class="st0" points="452.6,460.7 447.9,461.3 444.6,461.6 439.1,463.4 439.1,464 444.8,462 452.8,461.1 	"/>
	<polygon class="st0" points="458.8,461.3 456.3,462.2 453.6,462.4 448.9,463.6 443.6,465.9 443.8,466.3 449.3,463.8 453.8,462.8 
		456.3,462.6 459,461.6 	"/>
	<polygon class="st0" points="461.2,463.6 456.1,465 453,466.5 449.9,469.6 450,469.8 453.6,466.7 456.5,465.4 461.2,464.2 	"/>
	<polygon class="st0" points="466.6,465.7 464.3,466.7 461.4,468.7 456.9,470.6 457.1,471.2 461.6,469.1 464.7,467.1 466.8,466.1 	
		"/>
	<polygon class="st0" points="466.4,467.5 464.3,469.6 461.6,472.4 462,472.8 464.7,469.8 466.8,467.9 	"/>
	<polygon class="st2" points="486.7,462.8 487.3,460.3 492.2,458.1 494.3,457.9 502.3,456.6 503.9,456.6 510.3,454.6 514.2,452.9 
		520.3,453.4 522.4,453.4 525,454 527.1,454 529.3,455.8 529.5,456.6 527.7,458.9 528.5,459.7 527.1,461.8 523.4,464.6 521.9,465.2 
		521.7,465.9 518.7,466.7 518.1,468.7 514.4,470.4 509.8,471.6 507,472 504.5,471.8 505.1,472.8 504.9,473.7 502.5,474.1 
		498.4,474.5 492.2,474.3 487.1,463.6 	"/>
	<polygon class="st4" points="479.9,493.1 480.5,492.1 486.3,492.1 487.3,493.3 484.2,496.2 480.1,497.5 479.9,496.8 	"/>
	<polygon class="st4" points="479.9,480.8 480.5,479.8 493.2,474.3 494.9,474.5 493.9,479 493.9,480.4 492.8,483.7 491,486.2 
		483.6,487.8 479.9,485.8 	"/>
	<polygon class="st4" points="479.9,450.1 480.7,449.5 487.9,450.5 488.9,452.1 488.9,453.6 491,455.2 492.2,458.3 491.2,458.7 
		480.5,458.1 479.9,457.4 	"/>
	<polygon class="st0" points="479.9,445.3 482.2,445.1 484.8,445.6 488.1,449.9 488.7,445.1 489.9,443.7 490.2,441.7 491.6,440.8 
		492.4,438.6 492.4,437.6 492.8,437.5 494.7,439.6 494.3,439.8 493.2,439.6 492.8,440.8 492.8,441.5 492.2,442.5 492.2,444.3 
		491.2,445.5 491.4,448.8 489.7,449.4 488.9,451.7 488.5,451.7 486.7,450.5 485.6,451.1 484.4,450.5 483.2,450.7 482.2,450.3 
		481.1,450.3 480.5,450.1 479.9,450.1 	"/>
	<polygon class="st0" points="483.6,445.5 484,444.9 485,443.5 485.9,442.3 486.7,441.7 488.1,441.2 488.7,440.8 489.3,439.4 
		489.7,439.4 489.7,439.6 489.7,439.8 489.1,441.4 488.5,441.5 487.1,442.3 486.3,443.1 484.8,444.7 484.8,445.8 	"/>
	<polygon class="st0" points="479.9,457.4 480.9,457.4 482,457.2 483.6,457.4 485.2,457.2 485.8,457.4 487.7,457.4 488.3,457 
		488.7,457 492.2,458.1 491.6,459.3 490,460.3 488.3,460.9 487.9,461.3 487.7,462.2 487.7,462.8 489.7,466.5 491.8,469.3 
		494.5,474.3 493,475.3 492.6,476.3 492.2,476.5 490.2,477.1 489.7,478 487.1,478 486.5,479.2 485.8,479.6 484.8,480.2 481.3,480.8 
		479.9,480.8 	"/>
	<polygon class="st0" points="479.9,485.8 481.7,485.8 482,486 482.8,486.8 483.2,487 483.8,487 484.4,486.6 485,486.6 485.4,487 
		485.8,487 487.1,486.2 488.1,486.2 488.7,486 489.3,485.4 489.7,485.3 491.8,485.4 490.4,488.8 489.7,490.1 488.9,492.1 
		487.3,493.8 485.8,493.1 484.8,493.1 483.2,493.8 482.6,493.8 480.9,493.1 479.9,493.1 	"/>
	<polygon class="st0" points="479.9,496.8 480.1,496.8 480.3,497 480.7,497 483.6,496 484.2,495.8 486.9,493.4 487.3,493.8 
		485.8,495.2 484.6,496.4 484.2,496.6 480.7,497.7 480.1,498.1 479.9,498.3 	"/>
	<polygon class="st0" points="495.5,474.5 495.9,476.3 496.5,478.4 498.2,481 498.8,482.1 499.8,486.8 499.8,488 499.6,492.5 
		499.4,492.9 498.2,492.9 498,493.4 498.6,497.5 499,500.1 499,500.9 497.5,504.4 496.3,504.4 496.1,504.2 497.8,501.1 497.8,499.3 
		497.3,495.2 496.1,493.1 495.5,490.3 495.3,486.4 495.5,482.9 495.7,481.2 495.7,480.4 494.7,477.1 494.7,474.3 	"/>
	<polygon class="st0" points="491.2,485.6 491.8,484.9 492.8,483.1 493.6,480.2 493.6,478.8 494.1,476.1 494.3,475.3 494.5,474.3 
		495.1,474.5 494.5,477.4 494.1,479 494.1,480.2 493.9,481.3 493.4,483.5 491.6,486 	"/>
	<polygon class="st0" points="487.1,450.9 488.1,451.7 488.5,452.1 488.5,453.4 488.5,453.8 490.6,455.2 490.8,455.4 491.6,457.5 
		491.8,458.1 492.6,458.1 491.4,455.2 491,454.6 489.1,453.6 489.1,453.4 489.1,452.1 488.7,451.1 	"/>
	<polygon class="st0" points="492,457.9 493.9,457.7 502,456.4 504.1,456.2 509.8,454.4 511.7,453.6 512.9,453.1 514.2,452.7 
		515.4,452.7 519.9,453.1 522.4,453.1 524.6,453.6 526.1,453.6 527.1,453.6 529.5,455.6 529.8,456 529.8,456.6 529.7,456.8 
		528.1,458.7 528.1,458.9 528.9,459.3 528.9,459.5 528.9,459.7 527.7,461.6 527.3,462 524,464.6 523.6,464.8 522.4,465.2 
		522.2,465.4 521.9,466.1 521.9,466.3 519.3,466.7 519.1,466.9 519.1,467.5 518.3,468.9 517.8,469.3 516.8,469.6 514.8,470.6 
		511.7,471.6 509.8,472 507.2,472.2 505.1,472 505.1,472.2 505.5,472.6 505.7,473 505.5,473.5 505.1,473.7 504.1,474.3 502.1,474.5 
		499.2,474.7 497.7,474.9 493.4,474.7 493.4,474.1 497.8,474.3 499.6,474.1 503.7,473.7 504.5,473.4 504.7,473.2 504.7,472.8 
		503.7,472 503.7,471.6 503.9,471.4 505.1,471.6 507.6,471.6 510.5,471.2 514.6,470 514.6,470 517.6,468.7 518.1,468.1 518.3,467.3 
		518.1,466.5 518.3,466.3 521.3,465.7 521.5,465.5 521.7,465 521.9,464.6 523,464.2 523.8,463.8 526.7,461.8 527.1,461.3 
		528.1,459.9 527.9,459.5 527.3,459.1 527.1,458.9 529.1,456.8 529.3,456.4 529.1,456 526.7,454.4 524.6,454.4 522.4,453.8 
		519.7,453.6 515.2,453.3 514.2,453.3 512.9,453.8 511.7,454.4 509.8,455.2 504.1,457 502,457 493.6,458.3 491.8,458.5 	"/>
	<polygon class="st0" points="501.4,459.1 501.4,458.7 505.5,457.9 509.9,456.2 515.8,455.2 517,455 522.2,455.8 525.9,457 
		525.9,457.4 522,456 516.6,455.4 515.4,455.6 509.9,456.6 505.8,458.1 501.6,458.9 	"/>
	<polygon class="st0" points="502.1,459.5 504.9,459.5 512.5,458.3 516.6,457.9 517.6,457.9 524.4,459.7 524.2,460.1 517.8,458.5 
		516.4,458.3 512.5,458.7 505.1,459.9 502.1,459.9 	"/>
	<polygon class="st0" points="507.2,460.7 511.9,461.3 515.2,461.6 520.9,463.4 520.7,464 515,462 507,461.1 	"/>
	<polygon class="st0" points="501,461.3 503.7,462.2 506.4,462.4 510.9,463.6 516.2,465.9 516,466.3 510.7,463.8 506,462.8 
		503.5,462.6 501,461.6 	"/>
	<polygon class="st0" points="498.6,463.6 503.9,465 506.8,466.5 510.1,469.6 509.8,469.8 506.4,466.7 503.5,465.4 498.6,464.2 	"/>
	<polygon class="st0" points="493.4,465.7 495.5,466.7 498.6,468.7 502.9,470.6 502.7,471.2 498.2,469.1 495.1,467.1 493.2,466.1 	
		"/>
	<polygon class="st0" points="493.4,467.5 495.5,469.6 498.2,472.4 498,472.8 495.1,469.8 493,467.9 	"/>
	<path class="st5" d="M388.4,530.3c3.3-0.4,4.5-0.8,6.2-1.6c2.7-1.6,4.7-4.1,4.7-7c0-2.5-1.4-4.9-3.7-6.4c-2.3-1.2-4.3-1.8-9-1.8
		c-4.9,0-9.8,0-14.8,0c-0.2,0.6-0.4,1.4-0.6,2.1c0.4,0,0.8,0,1.4,0c2.9,0,3.9,0.4,3.9,1.6c0,0.6-0.2,1.2-0.8,3.1
		c-1.8,7-3.5,14.1-5.3,21.1c-0.8,2.9-1.2,3.7-1.6,4.3c-0.6,0.6-1.4,0.6-4.5,0.8c0,0.6-0.2,1.2-0.4,1.8c6.4,0,13.1,0,19.7,0
		c4.1,0,6.8-0.6,9-1.8c2.7-1.4,4.5-4.5,4.5-8c0-2.9-1.2-5.3-3.7-6.6C391.9,530.9,390.9,530.7,388.4,530.3L388.4,530.3z M378.4,529.5
		c0.8-3.7,1.8-7.4,2.7-11.1c0.8-2.1,1.8-2.7,4.7-2.7c0.6,0,1.2,0,1.8,0c3.7,0,6.4,2.3,6.4,5.7c0,3.1-2,5.9-4.5,7
		c-1.8,0.8-4.3,1.2-8,1.2C380.6,529.5,379.6,529.5,378.4,529.5L378.4,529.5z M377.9,531.7c1.8,0,2.5,0,3.5,0c4.3,0,5.7,0,7.4,0.6
		c2,0.8,3.3,2.7,3.3,5.1c0,2.5-1.2,5.3-2.7,7c-1.8,1.4-3.7,2.1-6.6,2.1c-1.4,0-2.7,0-4.1,0c-2.9,0-3.9-0.4-3.9-1.8
		c0-0.4,0-0.8,0.2-1.6C375.9,539.5,376.9,535.6,377.9,531.7L377.9,531.7z"/>
	<path class="st5" d="M419.2,543.8c-0.4-0.4-0.8-0.8-1.2-1.4c-2.5,2.9-5.3,4.5-7.8,4.5c-3.3,0-5.3-2-5.3-5.5c0-0.6,0.2-0.8,0.4-1.6
		c9.8-1.2,15.8-4.7,15.8-9.4c0-2.9-2.5-4.9-6-4.9c-2.9,0-5.7,1-8.4,3.1c-3.9,2.9-6,6.8-6,11.1c0,5.3,3.9,9,9.2,9
		C413.2,548.9,416.3,547.3,419.2,543.8L419.2,543.8z M405.6,538.1c0.8-3.3,1.2-4.5,2.1-6c0.8-1.2,1.4-2.1,2.2-2.9
		c1.4-1.2,2.9-1.9,4.5-1.9c2,0,3.1,1,3.1,2.9c0,1.9-1,3.7-2.5,4.9C413,536.4,410.8,537.1,405.6,538.1L405.6,538.1z"/>
	<path class="st5" d="M440.9,543.8c-0.4-0.4-0.8-0.8-1.2-1.4c-2.5,2.9-5.3,4.5-7.8,4.5c-3.3,0-5.1-2-5.1-5.5c0-0.6,0-0.8,0.2-1.6
		c9.8-1.2,15.8-4.7,15.8-9.4c0-2.9-2.5-4.9-6-4.9c-2.9,0-5.7,1-8.4,3.1c-3.9,2.9-5.9,6.8-5.9,11.1c0,5.3,3.7,9,9,9
		C434.8,548.9,438,547.3,440.9,543.8L440.9,543.8z M427.2,538.1c0.8-3.3,1.2-4.5,2.1-6c0.8-1.2,1.4-2.1,2.1-2.9
		c1.4-1.2,2.9-1.9,4.5-1.9c1.9,0,3.1,1,3.1,2.9c0,1.9-1,3.7-2.5,4.9C434.6,536.4,432.5,537.1,427.2,538.1L427.2,538.1z"/>
	<path class="st5" d="M448.7,543.6c0.2-0.4,0.4-1,0.4-1.6c0-1.2-0.8-2.1-2.1-2.1c-1.8,0-2.7,1.4-2.7,3.3c0,3.3,3.3,5.7,8,5.7
		c5.3,0,9.2-3.1,9.2-7.6c0-1.2-0.4-2.5-1.2-3.5c-1-1.4-2-1.9-6-3.3c-2.3-1-3.3-2-3.3-3.5c0-2.3,2-3.7,5.1-3.7c2.3,0,3.9,0.8,3.9,1.8
		c0,0.2,0,0.4-0.2,0.8c0,0.2-0.2,0.4-0.4,0.6c-0.2,0.4-0.2,0.8-0.2,1.2c0,1.2,0.8,2.1,2,2.1c1.4,0,2.5-1.4,2.5-2.9
		c0-3.1-3.1-5.1-7.4-5.1c-4.9,0-8.6,3.1-8.6,7.2c0,2.5,1.4,4.5,4.7,5.7c4.9,1.8,5.3,2.3,5.3,4.5c0,2.5-2,4.1-5.3,4.1
		c-2.5,0-4.5-1-4.5-2.1c0-0.2,0-0.4,0.2-0.6C448.1,544.2,448.3,544,448.7,543.6L448.7,543.6z"/>
	<path class="st5" d="M490,526.2c-1.4,0-2.9,0-4.5,0c0,0.4,0,1-0.2,1.6c-0.8,4.5-1.4,6.6-2.9,10.1c-2.7,5.7-5.1,8.4-7.6,8.4
		c-1.6,0-2.3-0.8-2.3-2.5c0-1,0.4-2.9,1-4.5c0.6-2.3,1.4-4.7,2.1-7.2c0.4-1.6,0.8-3.3,1.4-5.1c0.2-0.4,0.4-0.8,0.6-1.4
		c-2,0.4-4.5,0.6-7.4,0.6c-0.2,0-0.4,0-0.8,0c0,0.6-0.2,1.2-0.4,1.8c0,0,0.2,0,0.4,0c0.4,0,0.8,0,1.2,0c2,0.2,2.3,0.2,2.3,1
		c0,0.4,0,0.8-0.6,2.3c-1,2.9-1.9,5.9-2.9,8.8c-0.4,1.8-0.6,2.9-0.6,3.9c0,2.9,1.8,4.9,4.5,4.9c2.3,0,4.7-1.4,6.6-3.7
		c1-1.4,1.6-2.3,2.9-5.1c-0.4,2.1-0.4,2.7-0.4,3.9c0,2.9,2,4.9,4.9,4.9c2.7,0,5.7-1.8,7.6-4.9c2.9-4.3,4.9-10.5,4.9-14.4
		c0-2.3-1.2-3.9-2.9-3.9c-1.2,0-2.1,1-2.1,2.3c0,0.8,0.2,1.2,1.2,2.1l0,0c1,1,1.2,1.6,1.2,2.5c0,2.5-1.2,6-3.1,9.4
		c-1.6,2.7-3.5,4.3-5.5,4.3c-1.6,0-2.5-1.4-2.5-3.5C485.9,540.1,487.9,532.5,490,526.2L490,526.2z"/>
	<path class="st5" d="M516.8,525.6c-6.8,0-13.1,6.4-13.1,13.7c0,5.5,4.1,9.6,9.4,9.6c6.8,0,12.9-6.4,12.9-14.1
		C525.9,529.5,522,525.6,516.8,525.6L516.8,525.6z M517.2,527.2c3.1,0,4.9,1.9,4.9,5.7c0,3.5-1.4,8-3.3,11.1
		c-1.4,2.1-3.3,3.3-5.7,3.3c-3.3,0-5.1-2.1-5.1-6C508,533.8,512.3,527.2,517.2,527.2L517.2,527.2z"/>
	<path class="st5" d="M534.9,548.3c0-1.4,0-2,0.4-3.1c0.6-2.7,1.8-6.2,2.7-8.2c1-2.1,2.5-4.5,3.9-6.2c1-1.4,2.1-2.1,2.9-2.1
		c0.4,0,0.8,0.2,0.8,0.4c0,0.4-0.2,0.4-0.2,0.8c-0.2,0.2-0.2,0.4-0.2,0.8c0,1.4,1,2.1,2.2,2.1c1.8,0,2.7-1.6,2.7-3.7
		c0-1.9-1.4-3.3-3.5-3.3c-1.4,0-3.1,0.6-4.3,1.8c-1,1-2.3,2.5-4.3,5.7c0.6-2.3,1.2-4.9,2-7.4c-2.3,0.2-2.7,0.4-3.7,0.4
		c-0.6,0-1.4,0-2.1,0.2c-0.6,0-1.2,0-2,0c-0.2,0-0.4,0-0.8,0c0,0.6-0.2,1.2-0.4,1.8c0.2,0,0.4,0,0.6,0c3.1,0,3.9,0.4,3.9,1.8
		c0,0.6-0.2,1.8-0.6,2.7c-0.6,2.7-1.4,5.5-2.1,8.2c0,0.6-0.2,1.2-0.4,1.8c-0.2,0.8-0.4,1.6-0.8,2.3c-0.2,1-0.6,1.8-1.4,3.5
		C531.8,548.3,533.4,548.3,534.9,548.3L534.9,548.3z"/>
	<path class="st5" d="M564.4,541.1c-0.4-0.2-1-0.4-1.6-0.8c-2.1,3.9-4.1,6-5.9,6c-0.8,0-1-0.4-1-1.4c0-0.4,0-1.2,0.4-2.5
		c1.2-4.7,2.3-9.6,3.7-14.4c1.8,0,3.5,0,5.3,0c0-0.6,0.2-1.2,0.4-1.8c-1.8,0-3.5,0-5.3,0c0.6-2.5,1.2-5.1,1.9-7.6
		c-1.2,0-2.3,0-3.5,0c-0.6,2.5-1.4,5.1-2.1,7.6c-1.4,0-2.9,0-4.5,0c0,0.6-0.2,1.2-0.4,1.8c1.4,0,2.9,0,4.5,0
		c-1.2,4.7-2.3,9.6-3.7,14.4c-0.2,1-0.2,2.1-0.2,2.9c0,2.3,1,3.5,3.3,3.5c2.1,0,4.1-1.2,5.9-3.5C562.6,544,563.2,543.4,564.4,541.1
		L564.4,541.1z"/>
	<path class="st5" d="M595.4,540.9c-0.4-0.2-0.8-0.4-1.2-0.8c-2.1,3.9-4.1,6-5.7,6c-0.4,0-0.6-0.4-0.6-1c0-0.4,0-1.4,0.2-2
		c0.4-1.2,0.8-2.5,1.2-3.9c0.4-1.6,0.8-3.1,1.4-4.9c0.6-2,0.8-3.3,0.8-4.3c0-2.5-2.1-4.5-5.3-4.5c-2.1,0-4.7,1.2-6.8,3.1
		c-1.6,1.4-2.1,2.3-3.7,4.5c1.8-6.6,3.5-13.3,5.3-20.1c-0.8,0-1.6,0-2.3,0.2c-0.6,0-1.2,0-2,0.2c-0.6,0-1.2,0-1.8,0c-1,0-2,0-2.9,0
		c0,0.6-0.2,1.2-0.4,2c0,0,0.2,0,0.4,0c0.4,0,0.8,0,1.2,0c2.3,0,2.9,0.4,2.9,1.9c0,0.4,0,0.8,0,1.2c-1.6,6.2-3.1,12.5-4.9,18.7
		c-0.2,1-0.6,2-1,3.1c-0.2,1.2-0.6,2.3-1,3.5c-0.2,1-0.6,2.1-1,3.3c0,0.2-0.2,0.6-0.4,1c1.4,0,2.7,0,4.1,0c0.2-0.8,0.4-1.4,0.4-1.8
		c0.6-2.5,1-3.9,1.2-4.5l0,0c0.8-2.9,1.9-5.9,3.7-8.2c2.5-3.5,5.3-5.5,7.8-5.5c1.8,0,2.7,1,2.7,2.3c0,0.6-0.4,2-0.8,3.1
		c-0.4,1.2-0.8,2.5-1.2,3.9c-1.2,4.1-1.8,6.6-1.8,7.8c0,2.1,1.2,3.3,3.1,3.3C589.9,548.9,592.9,545.9,595.4,540.9L595.4,540.9z"/>
</g>
</svg>
