<?xml version="1.0" encoding="utf-8"?>
<!-- Generator: Adobe Illustrator 26.0.2, SVG Export Plug-In . SVG Version: 6.00 Build 0)  -->
<svg version="1.1" id="Layer_1" xmlns="http://www.w3.org/2000/svg" xmlns:xlink="http://www.w3.org/1999/xlink" x="0px" y="0px"
	 viewBox="0 0 960 640" style="enable-background:new 0 0 960 640;" xml:space="preserve">
<style type="text/css">
	.st0{fill-rule:evenodd;clip-rule:evenodd;}
	.st1{fill-rule:evenodd;clip-rule:evenodd;fill:#FFFFFF;}
	.st2{fill-rule:evenodd;clip-rule:evenodd;fill:#C4C5C5;}
	.st3{fill-rule:evenodd;clip-rule:evenodd;fill:#BD002D;}
</style>
<g>
	<path class="st0" d="M647.2,541.2c0,9.2-7.5,16.7-16.7,16.7H329.6c-9.2,0-16.7-7.5-16.7-16.7V98.5c0-9.1,7.5-16.5,16.7-16.5h300.8
		c9.2,0,16.7,7.3,16.7,16.5V541.2z"/>
	<path class="st1" d="M329.6,416.1L329.6,416.1c-4.6,0-8.3,3.7-8.3,8.3v116.9l0,0c0,4.7,3.5,8.3,8.3,8.3l0,0h300.8l0,0
		c4.5,0,8.3-3.5,8.3-8.3l0,0V424.3l0,0c0-4.7-3.8-8.3-8.3-8.3l0,0H329.6z"/>
	<path class="st1" d="M638.7,98.5L638.7,98.5c0-4.5-3.8-8.3-8.3-8.3l0,0H329.6c-4.6,0-8.3,3.7-8.3,8.3v300.8l0,0
		c0,4.5,3.5,8.3,8.3,8.3l0,0h300.8l0,0c4.5,0,8.3-3.8,8.3-8.3l0,0V98.5z"/>
	<path class="st2" d="M387.7,427.1c30.7,0,55.6,24.9,55.6,55.6s-24.9,55.6-55.6,55.6c-30.7,0-55.6-24.9-55.6-55.6
		S357,427.1,387.7,427.1"/>
	<path class="st1" d="M387.7,438.2c24.6,0,44.6,20,44.6,44.6c0,24.6-20,44.6-44.6,44.6c-24.6,0-44.6-20-44.6-44.6
		C343.2,458.2,363.1,438.2,387.7,438.2"/>
	<path class="st2" d="M410.7,469.3c4.5,0,9,2.6,9,13.4c0.2,10.6-4,13.9-9,13.9l0,0c-5,0-9-3.3-9-13.9
		C402,471.9,406.4,469.3,410.7,469.3L410.7,469.3z M410.7,461.6c6.1,0,17.7,3.3,17.7,21.5c0,17.9-11.1,21.7-17.7,21.7l0,0
		c-6.6,0-17.4-3.8-17.4-21.7C393.2,464.9,404.8,461.6,410.7,461.6L410.7,461.6z"/>
	<path class="st2" d="M362.4,477.4h-8.5l0,0c-0.2-7.5,4-16.7,16.7-16.7c12.5,0,15.1,10.8,15.1,14.6c0,3.5-0.2,11.1-15.8,20.5l0,0
		h15.3v7.5h-29.9v-7.8l0,0c13.2-9,21.7-13.7,21.7-19.8c0-3.5-2.8-7.3-7.5-7.3C364.7,468.4,362.4,472.9,362.4,477.4L362.4,477.4z"/>
	<polygon class="st0" points="473.4,411.8 331.9,553.3 335.7,553.5 477.4,411.8 	"/>
	<polygon class="st0" points="465.6,412.1 324.9,552.6 327.7,553.5 469.6,411.8 	"/>
	<polygon class="st0" points="457.8,411.6 320.2,549.3 322.3,551.2 461.6,411.8 	"/>
	<polygon class="st0" points="450.3,411.3 317.6,544.1 318.5,546.9 454.1,411.6 	"/>
	<polygon class="st0" points="442,411.8 316.9,536.8 317.1,540.5 445.8,411.8 	"/>
	<polygon class="st0" points="502.2,437.8 491.8,437.8 491.8,443.4 505.7,443.4 491.3,463 491.3,468.9 514,468.9 514,463 498.9,463 
		513.2,443.4 513.2,437.8 505.9,437.8 	"/>
	<path class="st0" d="M575.9,455.4h9l0,0c0-1.9-1.7-4.2-4.5-4.2C577.6,451.2,575.9,453.3,575.9,455.4L575.9,455.4z M575.9,459.9
		h14.6l0,0c0.2-2.8-0.7-13.9-10.4-13.9c-8.3,0-10.1,9-10.1,11.8c0,2.8,1.7,12,10.8,12c5.2,0,8-3.1,8.7-4l0,0l-3.5-3.3l0,0
		c0,0-1.7,2.1-5,2.1C577.6,464.6,575.9,462.3,575.9,459.9L575.9,459.9z"/>
	<path class="st0" d="M564.6,454.5v14.6H559V455l0,0c0-1.7-1.4-3.3-3.8-3.3c-2.6,0-4.7,2.1-4.7,5.2l0,0v12.3h-5.9v-22.4h5.9v1.7l0,0
		c0,0,2.4-2.1,5.7-2.1C561.3,446.2,564.6,450.5,564.6,454.5L564.6,454.5z"/>
	<path class="st0" d="M528.6,451c-2.4,0-5.2,2.1-5.2,7.1c0,5,2.8,7.1,5.2,7.1l0,0c2.4,0,5.2-2.1,5.2-7.1
		C533.8,453.1,530.9,451,528.6,451L528.6,451z M528.6,445.8c-5.4,0-10.8,4.5-10.8,12.3c0,7.8,5.4,12.3,10.8,12.3l0,0
		c5.7,0,10.8-4.5,10.8-12.3C539.4,450.2,534,445.8,528.6,445.8L528.6,445.8z"/>
	<path class="st0" d="M562.3,495.5h-5.7v24.7h5.7l0,0c4.7,0,10.6-2.8,10.6-12.3C572.9,498.6,567,495.5,562.3,495.5L562.3,495.5z
		 M562.5,488.4h-13.7v38.9h13.4l0,0c10.6,0,18.4-6.8,18.4-19.3C580.7,494.8,571.5,488.4,562.5,488.4L562.5,488.4z"/>
	<polygon class="st0" points="476.9,488.4 464.2,488.4 464.2,527.3 490.8,527.3 490.8,520 472,520 472,511.5 487.8,511.5 
		487.8,504.2 472,504.2 472,495.7 489.7,495.7 489.7,488.4 483.1,488.4 	"/>
	<polygon class="st0" points="506.4,488.4 509.5,488.4 528.6,515.3 528.6,488.4 536.1,488.4 536.1,527.6 527.1,527.6 509.7,500.9 
		509.7,527.6 501.9,527.6 501.9,488.4 503.8,488.4 	"/>
	<path class="st0" d="M587.3,521l5.7-5.4h0c7.1,5,13.2,5.4,14.6,5.4c2.1,0,4.2-1.9,4.2-4.2c0-2.6-1.9-4-3.3-4.2
		c-1.2-0.5-6.6-1.4-8.7-1.9c-2.4-0.5-9.4-2.6-9.4-11.1c0-8.7,6.1-11.8,13.2-11.8c6.8,0,12,2.1,16.7,6.1l0,0l-5.4,5.2l0,0
		c-2.8-2.1-6.6-4-11.8-4c-3.3,0-4,3.1-4,4s0.9,3.3,2.8,3.8c2.1,0.5,7.5,1.7,8.5,1.9c2.1,0.2,9.9,3.3,9.9,11.3
		c0,7.3-5,12.3-13.9,12.3C597.4,528.3,590.3,524,587.3,521L587.3,521z"/>
	<path class="st3" d="M480.5,109.5c76.9,0,139.3,62.3,139.3,139.1c0,76.8-62.4,139.1-139.3,139.1c-76.9,0-139.3-62.3-139.3-139.1
		C341.1,171.8,403.6,109.5,480.5,109.5"/>
	<path class="st1" d="M479.7,138.1c61.4,0,111.3,49.8,111.3,111.3c0,61.4-49.8,111.3-111.3,111.3c-61.4,0-111.3-49.8-111.3-111.3
		C368.4,187.9,418.3,138.1,479.7,138.1"/>
	<path class="st0" d="M533.3,215.4c11.1,0,21.9,6.4,22.4,33.5c0.2,26.9-9.9,35.1-22.4,35.1l0,0c-12.5,0-22.6-8.3-22.4-35.1
		C511.4,221.8,522.4,215.4,533.3,215.4L533.3,215.4z M533.3,196.1c14.9-0.2,43.9,8.3,43.9,53.5c0,45-27.4,54.2-43.9,54.2l0,0
		c-16.5,0-43.6-9.2-43.6-54.2C489.7,204.4,518.4,195.9,533.3,196.1L533.3,196.1z"/>
	<path class="st0" d="M452.4,247c0.9,0,12.3-4.7,12.3-20.7c0-16.3-14.6-30.4-38.4-30.4c-24,0-38.4,11.8-40.3,31.6l0,0l21.9,2.4l0,0
		c1.4-9.7,6.4-15.3,19.8-15.3c13.4,0,15.3,9.4,15.3,12.7c-0.2,9.2-5.7,12.7-23.1,12.7l0,0v17.2l0,0c5.2,0.5,15.6,0.2,18.4,2.1
		c5.9,4,5.9,6.8,5.9,10.6c0,2.4-0.2,14.4-15.8,14.4c-15.6,0-19.1-8.5-20.5-16.5l0,0l-21.9,4l0,0c2.6,17.7,14.9,31.6,42.2,31.6
		c27.1,0,38.4-18.2,38.4-32.5C466.6,256.7,457.8,248.2,452.4,247L452.4,247z"/>
</g>
</svg>
