<?xml version="1.0" encoding="utf-8"?>
<!-- Generator: Adobe Illustrator 26.0.2, SVG Export Plug-In . SVG Version: 6.00 Build 0)  -->
<svg version="1.1" id="Layer_1" xmlns="http://www.w3.org/2000/svg" xmlns:xlink="http://www.w3.org/1999/xlink" x="0px" y="0px"
	 viewBox="0 0 960 640" style="enable-background:new 0 0 960 640;" xml:space="preserve">
<style type="text/css">
	.st0{fill-rule:evenodd;clip-rule:evenodd;fill:#BD002D;}
	.st1{fill-rule:evenodd;clip-rule:evenodd;fill:#FFFFFF;}
	.st2{fill-rule:evenodd;clip-rule:evenodd;}
</style>
<g>
	<path class="st0" d="M480,86.4C609,86.4,713.6,191,713.6,320S609,553.6,480,553.6S246.4,449,246.4,320C246.3,191,351,86.4,480,86.4
		"/>
	<path class="st1" d="M481.3,134.4c103.2,0,186.9,83.7,186.9,186.9s-83.7,186.9-186.9,186.9s-186.9-83.7-186.9-186.9
		C294.4,218.2,378.1,134.4,481.3,134.4"/>
	<path class="st2" d="M413.2,329.5v16.2h-55.4l55.4-73.7v20.2V329.5z M448.5,327.2v18.6H471v31.7h-22.6v30.1h-35.2v-30.1H319v-31.3
		l85.1-113.3h44.4v55C448.5,288,448.5,327.2,448.5,327.2z"/>
	<path class="st2" d="M577.5,265c18.2,0,36.8,10.7,37.6,56.2c0.4,45.1-16.6,59-37.6,59l0,0c-21,0-38-13.9-37.6-59
		C540.7,275.7,558.9,265,577.5,265L577.5,265z M577.5,232.5c24.9-0.4,73.7,13.9,73.7,89.9s-45.9,91.1-73.7,91.1l0,0
		c-27.7,0-73.7-15-73.7-91.1S552.6,232.1,577.5,232.5L577.5,232.5z"/>
</g>
</svg>
