<?xml version="1.0" encoding="utf-8"?>
<!-- Generator: Adobe Illustrator 26.0.2, SVG Export Plug-In . SVG Version: 6.00 Build 0)  -->
<svg version="1.1" id="Layer_1" xmlns="http://www.w3.org/2000/svg" xmlns:xlink="http://www.w3.org/1999/xlink" x="0px" y="0px"
	 viewBox="0 0 960 640" style="enable-background:new 0 0 960 640;" xml:space="preserve">
<style type="text/css">
	.st0{fill-rule:evenodd;clip-rule:evenodd;fill:#C4C5C5;stroke:#C4C5C5;stroke-width:0.1626;stroke-miterlimit:10;}
	.st1{fill-rule:evenodd;clip-rule:evenodd;fill:#FFFFFF;}
</style>
<g>
	<polygon class="st0" points="520.3,115.2 544.5,112.9 563.5,114.3 584.8,114.3 604.5,112.1 616.5,112.1 630.2,113.5 632.5,125.1 
		630.2,138.1 634.1,161.8 631,176.5 627.9,194.2 630.2,214.9 633.3,231.8 632.5,244.8 634.1,258.6 631.7,271.6 629.5,287.9 
		632.5,300.1 630.2,321.4 628.7,342 630.2,368.9 633.3,385 636.2,403.5 633.3,431.8 633.3,448.7 627.9,472.5 629.5,525.7 
		603.7,525.7 577.2,529.6 558.1,526.5 546.1,525.7 521.1,529.6 497.5,528.7 480.7,523.4 461.9,525 442.8,528.7 413.4,528.1 
		393.6,525.7 381.4,522.6 363.1,525 347.2,525.7 329.1,525 331.4,486 329.8,465.3 325.2,441.6 326.9,423 330.6,404.7 329.8,378.6 
		326.9,358 325.2,338 324.6,325 326.9,286.6 331.4,258.9 327.5,221.4 325.2,195.2 326.9,164.1 323.8,137.3 325.2,112.9 345.1,110.4 
		357.9,112.1 376.2,114.3 387.5,112.1 411.8,111.3 422.3,113.5 433.7,112.9 441.4,113.5 462.7,114.3 483,111.3 501.4,113.5 	"/>
	<path class="st1" d="M482.5,154.8l2.9,0.2l2.8,0.7l2.8,1l2.8,1.3l2.8,1.8l2.8,2.1l2.8,2.6l2.6,2.9l2.6,3.3l2.4,3.7l2.4,3.9l2.4,4.4
		l2.3,4.7l2.3,4.9l2.1,5.4l2.1,5.5l2,5.9l1.8,6.2l1.8,6.3l1.6,6.7l1.5,6.8l1.5,7.2l1.3,7.2l1.1,7.5l1,7.5l0.8,7.8l0.8,7.8l0.7,7.8
		l0.5,8l0.3,8.1l0.2,8.1l0.2,8l-0.2,8.1l-0.2,8.1l-0.3,8.1l-0.5,8l-0.7,7.8l-0.8,7.8l-0.8,7.8l-1,7.5l-1.1,7.5l-1.3,7.2L532,405
		l-1.5,6.8l-1.6,6.7l-1.8,6.3l-1.8,6.2l-2,5.9l-2.1,5.5l-2.1,5.4l-2.3,4.9l-2.3,4.7l-2.4,4.4l-2.4,3.9l-2.4,3.7l-2.6,3.3l-2.6,2.9
		l-2.8,2.4l-2.8,2.3l-2.8,1.8l-2.8,1.3l-2.8,1l-2.8,0.7l-2.9,0.2l-2.8-0.2l-2.9-0.7l-2.8-1l-2.8-1.3l-2.8-1.8l-2.8-2.3l-2.6-2.4
		l-2.6-2.9l-2.6-3.3l-2.6-3.7l-2.4-3.9l-2.4-4.4l-2.3-4.7l-2.3-4.9l-2.1-5.4l-2-5.5l-2-5.9l-2-6.2l-1.6-6.3l-1.6-6.7l-1.6-6.8
		l-1.3-7.2l-1.3-7.2l-1.1-7.5l-1-7.5l-1-7.8l-0.7-7.8l-0.7-7.8l-0.5-8l-0.3-8.1l-0.3-8.1v-8.1v-8l0.3-8.1l0.3-8.1l0.5-8l0.7-7.8
		l0.7-7.8l1-7.8l1-7.5l1.1-7.5l1.3-7.2l1.3-7.2l1.6-6.8l1.6-6.7l1.6-6.3l2-6.2l2-5.9l2-5.5l2.1-5.4l2.3-4.9l2.3-4.7l2.4-4.4l2.4-3.9
		l2.6-3.7l2.6-3.3l2.6-2.9l2.6-2.6l2.8-2.1l2.8-1.8l2.8-1.3l2.8-1l2.9-0.7L482.5,154.8L482.5,154.8z M482.5,187.9l2.3,0.2l2.3,0.5
		l2.3,0.8l2.1,1.1l2.3,1.3l2.3,1.8l2.1,2l2.1,2.4l2,2.6l2.1,2.9l2,3.3l2,3.4l1.8,3.7l1.8,3.9l1.8,4.2l1.6,4.6l1.5,4.7l1.5,4.9l1.5,5
		l1.3,5.4l1.1,5.5l1.1,5.5l1,5.9l1,6l0.8,6l0.7,6.2l0.7,6.2l0.5,6.3l0.5,6.3l0.2,6.5l0.2,6.5l0.2,6.3l-0.2,6.5l-0.2,6.5l-0.2,6.5
		l-0.5,6.3l-0.5,6.3l-0.7,6.2l-0.7,6.2l-0.8,6l-1,6l-1,5.9l-1.1,5.5l-1.1,5.5l-1.3,5.4l-1.5,5l-1.5,4.9l-1.5,4.7l-1.6,4.6l-1.8,4.2
		l-1.8,3.9l-1.8,3.7l-2,3.4l-2,3.3l-2.1,2.9l-2,2.6l-2.1,2.4l-2.1,2l-2.3,1.8l-2.3,1.3l-2.1,1.1l-2.3,0.8l-2.3,0.5l-2.3,0.2
		l-2.3-0.2l-2.1-0.5l-2.3-0.8l-2.3-1.1l-2.3-1.3l-2.1-1.8l-2.1-2L465,442l-2.1-2.6l-2-2.9l-2.1-3.3l-1.8-3.4l-2-3.7l-1.8-3.9
		l-1.6-4.2l-1.6-4.6l-1.6-4.7l-1.5-4.9l-1.3-5l-1.3-5.4l-1.3-5.5l-1.1-5.5l-1-5.9l-1-6l-0.8-6l-0.7-6.2l-0.7-6.2l-0.5-6.3l-0.3-6.3
		l-0.3-6.5l-0.2-6.5v-6.5v-6.3l0.2-6.5l0.3-6.5l0.3-6.3l0.5-6.3l0.7-6.2l0.7-6.2l0.8-6l1-6l1-5.9l1.1-5.5l1.3-5.5l1.3-5.4l1.3-5
		l1.5-4.9l1.6-4.7l1.6-4.6l1.6-4.2l1.8-3.9l2-3.7l1.8-3.4l2.1-3.3l2-2.9l2.1-2.6l2.1-2.4l2.1-2l2.1-1.8l2.3-1.3l2.3-1.1l2.3-0.8
		l2.1-0.5L482.5,187.9L482.5,187.9z"/>
	<path class="st1" d="M475.4,358h6.2l0,0v-18.7l0,0h-6.2l0,0v-80.8l0,0h-8.9l0,0l-21,77.4l0,0V358l0,0H468l0,0v23.4l0,0h7.3l0,0
		L475.4,358L475.4,358z M468,339.3h-15.3l0,0l15.3-56.1l0,0V339.3L468,339.3z"/>
	<path class="st1" d="M505.1,255.5h-0.7l-0.3,0.2h-0.7l-1.1,0.5l-1,0.5l-2.8,2.8v0.2l-1.1,1.5l-2.1,4.2l-0.8,2.1l-1.1,3.4l-0.5,2.1
		l-0.3,0.8v0.7l-0.8,3.3v0.7l-0.3,1.3v0v0.7l-0.3,1.5v0.7l-0.3,1.5v0.7l-0.2,0.8v0.7l-0.3,1.6v0.8l-0.2,0.7v0.7l-0.3,1.5v1.3
		l-0.2,0.7v1.1l-0.2,0.7v1l-0.2,0.7v1.3l-0.2,0.7v1.1l-0.2,0.6v1.6l-0.2,0.7v1.6l-0.2,0.7v2.6l-0.2,0.7v3.1l-0.2,0.7v5.5l-0.2,0.7v2
		l0,0v2.3l0.2,0.7v5.5l0.2,0.6v3.3l0.2,0.7v2.6l0.2,0.7v1.6l0.2,0.7v1.5l0.2,0.7v1.3l0.2,0.7v1.3l0.2,0.7v0.8l0.2,0.7v1.3l0.2,0.7v1
		l0.2,0.2v1l0.2,0.7v0.7l0.2,0.5v1l0.3,1.5v1l0.3,1.5l0.2,1.8l0.3,1.3v0.5l0,0l1.3,6.5l1.3,4.4l0.5,1.3l1,2.6l1.8,3.6l0.3,0.3v0.3
		l2,2.4l1.5,1.3h0.2v0.2l0.5,0.2v0.2l2.1,0.8h1.3l0,0h1.5v-0.2h0.5l1.8-1l1.3-1.1h0.2v-0.2l1.5-1.6v-0.2l1.5-2.3l1.8-3.7v-0.3l1-2.3
		l0.3-1.5l0.8-2.3v-0.7l0.8-3.1l0.5-2.6l0.2-1.1l0,0l0.3-2l0.5-3.4l0.3-2.4l0.3-2.8l0.3-2.8v-0.7l0.2-0.7v-1l0.2-0.5v-1.3l0.2-0.7
		v-1.3l0.2-0.6v-1.5l0.2-0.7v-1.6l0.2-0.7v-2l0.2-0.7v-2.9l0.2-0.7v-4.6l0.2-0.7v-4.6l0,0v-4.9l-0.2-0.6v-4.6l-0.2-0.2v-3.3
		l-0.2-0.6v-2l-0.2-0.7v-1.6l-0.2-0.6v-1.6l-0.2-0.2v-1.6l-0.2-0.7v-1.3l-0.2-0.7v-0.8l-0.2-0.7v-1l-0.2-0.7v-1l-0.3-1.5v-1.3
		l-0.3-1.5v-1l-0.3-1.5v-1l-0.2-0.2l-0.2-1.8l-0.3-1.3v-0.3l0,0L518,276l-1-4.1l-0.2-0.7l-0.5-1.3l-0.5-2l-1.1-2.8l-0.7-1.5
		l-1.6-3.1l-2.3-2.9H510l-1.3-1.1h-0.2v-0.2l-1.5-0.7h-0.3l-0.5-0.2h-0.3l-0.5-0.2L505.1,255.5L505.1,255.5z M505.1,274.4h-0.7v0.2
		h-0.3v0.2h-0.3v0.2l-0.7,0.3l-1.6,1.8v0.2h-0.2l-0.2,0.5h-0.2l-0.7,1.5l-0.5,0.8l-0.8,2.1v0.3l-0.5,1.1l-0.2,1l-0.5,1.5v0.7l-0.3,1
		v0.5l-0.2,0.5v0.5l-0.2,0.3v0.8l-0.2,0.5v0.7l-0.2,0.5v1l-0.2,0.5v0.2l0,0v0.8l-0.2,0.5v1.1l-0.2,0.5v1.3l-0.2,0.8v1.3l-0.2,0.3
		v2.1l-0.2,0.5v2.3l-0.2,0.3v2.9l-0.2,0.5v6.8l-0.2,0.8v2.8l0.2,0.7v0.2l0,0v0.6l-0.2,0.8v2.8l0.2,0.7v6.7l0.2,0.7v2.8l0.2,0.3v2.3
		l0.2,0.7v2l0.2,0.3v1.6l0.2,0.2v1.6l0.2,0.7v1l0.2,0.7v0.5l0,0l0.2,1.3l0.5,3.7l0.2,0.7l0.3,1.3l0.2,1.1l0.3,0.8l0.5,2l1.1,2.9
		l1,1.8l0.2,0.3l1.5,1.8l0.8,0.7h0.2v0.2l0.5,0.2v0.2h0.5l0.5,0.2l0,0h0.3v-0.2h0.5l1.3-1l0.3-0.2v-0.2l0.3-0.2v-0.2l0.8-1v-0.2
		l1.1-1.8v-0.3l0.5-0.8l0.8-2.3l0.5-1.3v-0.5l0.5-1.5l0.5-2.8l0.3-1.8v-0.5l0.2-0.8v-0.7l0.2-0.5v-0.6l0,0v-0.5l0.2-0.3v-1.1
		l0.2-0.5v-1.3l0.2-0.3v-1.5l0.2-0.5v-2l0.2-0.8v-1.6l0.2-0.7v-2.8l0.2-0.5v-4.4l0.2-0.5v-7.5l0,0v-7.6l-0.2-0.6v-4.2l-0.2-0.2v-3.1
		l-0.2-0.7v-2l-0.2-0.3v-2.1l-0.2-0.3v-1.5l-0.2-0.2v-1.6l-0.2-0.7v-0.8l-0.2-0.2v-0.5l0,0v-1l-0.2-0.2V291l-0.2-0.3v-0.8l-0.2-0.2
		V289l-0.2-0.5l-0.2-1.3l-0.2-0.7l-0.7-2.6l-1.1-3.4l-1.5-2.9l-1.5-2h-0.2v-0.2h-0.2l-1-0.8l-1-0.3L505.1,274.4L505.1,274.4z"/>
</g>
</svg>
