<?xml version="1.0" encoding="utf-8"?>
<!-- Generator: Adobe Illustrator 26.0.2, SVG Export Plug-In . SVG Version: 6.00 Build 0)  -->
<svg version="1.1" id="Layer_1" xmlns="http://www.w3.org/2000/svg" xmlns:xlink="http://www.w3.org/1999/xlink" x="0px" y="0px"
	 viewBox="0 0 960 640" style="enable-background:new 0 0 960 640;" xml:space="preserve">
<style type="text/css">
	.st0{fill-rule:evenodd;clip-rule:evenodd;fill:#006FB6;}
	.st1{fill-rule:evenodd;clip-rule:evenodd;fill:#FFFFFF;}
	.st2{fill-rule:evenodd;clip-rule:evenodd;}
	.st3{fill:none;stroke:#0070B7;stroke-width:2.7064;stroke-linecap:round;stroke-linejoin:round;stroke-miterlimit:10;}
</style>
<g>
	<polygon class="st0" points="339.1,93.6 339.1,93.6 339.1,92.4 339.2,91.2 339.4,90 339.6,88.8 339.9,87.6 340.3,86.5 340.7,85.3 
		341.2,84.2 341.7,83.1 342.3,82.1 343,81.1 343.7,80.1 344.5,79.1 345.3,78.2 346.2,77.4 347.1,76.6 348.1,75.8 349.1,75.1 
		350.1,74.5 351.2,73.9 352.3,73.4 353.4,73 354.5,72.6 355.7,72.2 356.9,72 358.1,71.8 359.3,71.6 360.5,71.6 361.1,71.5 
		598.9,71.5 600.1,71.6 601.3,71.7 602.5,71.8 603.7,72.1 604.9,72.4 606,72.7 607.2,73.2 608.3,73.7 609.4,74.2 610.4,74.8 
		611.4,75.5 612.4,76.2 613.4,77 614.3,77.8 615.1,78.7 615.9,79.6 616.7,80.6 617.3,81.6 618,82.6 618.6,83.7 619.1,84.8 
		619.5,85.9 619.9,87 620.3,88.2 620.5,89.4 620.7,90.6 620.9,91.8 620.9,93 620.9,93.6 620.9,546.4 620.9,547.6 620.8,548.8 
		620.6,550 620.4,551.2 620.1,552.4 619.7,553.5 619.3,554.7 618.8,555.8 618.3,556.9 617.7,557.9 617,559 616.3,559.9 615.5,560.9 
		614.7,561.8 613.8,562.6 612.9,563.4 611.9,564.2 610.9,564.9 609.9,565.5 608.8,566.1 607.7,566.6 606.6,567.1 605.4,567.5 
		604.3,567.8 603.1,568.1 601.9,568.3 600.7,568.4 599.5,568.5 598.9,568.5 361.1,568.5 359.9,568.4 358.7,568.3 357.5,568.2 
		356.3,567.9 355.1,567.6 354,567.3 352.8,566.8 351.7,566.4 350.6,565.8 349.6,565.2 348.6,564.5 347.6,563.8 346.6,563 
		345.7,562.2 344.9,561.3 344.1,560.4 343.3,559.5 342.7,558.5 342,557.4 341.4,556.3 340.9,555.2 340.5,554.1 340.1,553 
		339.7,551.8 339.5,550.6 339.3,549.4 339.1,548.2 339.1,547 339.1,546.4 	"/>
	<polygon class="st1" points="383.2,145.2 371.1,103.9 378.1,103.9 387.6,135.9 397,103.9 404.1,103.9 391.9,145.2 	"/>
	<path class="st1" d="M412.4,127.6L412.4,127.6l2.4-0.3l2.4-0.3l2.4-0.3l2-0.2v-0.1v-2.3l-0.1-0.6l-0.2-0.6l-0.2-0.5l-0.2-0.3
		l-0.2-0.2l-0.5-0.4l-0.6-0.3l-0.6-0.3l-0.6-0.2l-0.7-0.1l-0.6,0l-1.3,0.1l-1.3,0.2l-1.3,0.2l-1.2,0.3l-1.2,0.4l-1.2,0.4l-1.2,0.5
		l-0.7,0.3l-2.4-5.2l1.3-0.6l1.3-0.5l1.3-0.4l1.3-0.4l1.4-0.3l1.4-0.3l1.4-0.2l1-0.1l1.2-0.1l1.2,0l1.2,0.1l1.2,0.1l1.1,0.2l0.8,0.3
		l0.8,0.4l0.7,0.5l0.7,0.5l0.6,0.6l0.6,0.7l0.5,0.7l0.5,0.8l0.4,0.8l0.3,0.8l0.2,0.8l0.2,0.9l0.1,0.8v14.7l0.1,0.4l0.1,0.4l0.2,0.4
		l0.3,0.3l0.2,0.2l0.7,0.5l0.8,0.4l0.4,0.2l-3.3,4.9l-0.8-0.2l-0.8-0.3l-0.8-0.4l-0.7-0.5l-0.7-0.5l-0.6-0.6l-0.5-0.5l-0.8,0.6
		l-0.8,0.5l-0.9,0.4l-0.9,0.4l-0.9,0.3l-0.9,0.2l-1,0.2l-1,0.1l-1,0l-1-0.1l-1-0.2l-0.9-0.2l-0.9-0.3l-0.9-0.4l-0.9-0.5l-0.8-0.5
		l-0.7-0.5l-0.6-0.6l-0.6-0.6l-0.5-0.7l-0.5-0.7l-0.4-0.8l-0.3-0.8l-0.2-0.8l-0.1-0.8l-0.1-0.8l0-0.8l0.1-0.8l0.2-0.8l0.3-0.8
		l0.3-0.8l0.4-0.7l0.5-0.7l0.4-0.5l0.7-0.6l0.7-0.6l0.8-0.5l0.8-0.4l0.8-0.4l0.9-0.3l0.9-0.2L412.4,127.6L412.4,127.6z M420.1,139.4
		L420.1,139.4l0.4-0.4l0.4-0.4l0.3-0.5l0.2-0.5l0.1-0.2v-5.5l-1.4,0l-1.4,0.1l-1.4,0.2l-1.4,0.2l-0.7,0.1l-1.4,0.2l-0.6,0.2
		l-0.6,0.2l-0.5,0.3l-0.5,0.4l-0.4,0.5l-0.3,0.5l0,0.1l-0.2,0.6l-0.1,0.6l0,0.6l0,0.6l0.1,0.6l0,0.1l0.3,0.5l0.3,0.4l0.4,0.4
		l0.3,0.2l0.6,0.4l0.7,0.3l0.7,0.2l0.7,0.2l0.8,0.1l0.8,0l0.8-0.1h0l0.8-0.2l0.8-0.3l0.7-0.3L420.1,139.4L420.1,139.4L420.1,139.4z"
		/>
	<polygon class="st1" points="450.5,122.3 450.5,122.3 449.8,122.5 449.1,122.8 448.5,123.2 447.9,123.6 447.3,124.1 446.8,124.7 
		446.4,125.3 446.1,126 445.8,126.7 445.6,127.4 445.5,128.1 445.5,128.2 445.5,129.2 445.5,131.3 445.5,145.2 439,145.2 439,115.7 
		445.5,115.7 445.5,118.8 446,118.2 446.7,117.6 447.4,117 448.1,116.6 448.8,116.2 449.6,115.8 450.5,115.6 451.2,115.4 
		452.2,115.2 453.3,115.2 454.4,115.1 454.5,115.1 454.5,121.8 453.5,121.8 452.4,121.9 451.4,122.1 	"/>
	<path class="st1" d="M462,115.7v29.5h6.5v-29.5H462L462,115.7z M469.2,107.9L469.2,107.9l0-0.6l-0.1-0.6l-0.2-0.5l-0.3-0.5
		l-0.4-0.5l-0.4-0.4l-0.5-0.3l-0.5-0.3l-0.6-0.2l-0.6-0.1h-0.6l-0.6,0.1l-0.6,0.2l-0.5,0.3l-0.5,0.3l-0.4,0.4l-0.4,0.5l-0.3,0.5
		l-0.2,0.5l-0.1,0.6l0,0.6l0,0.6l0.1,0.6l0.2,0.5l0.3,0.5l0.4,0.5l0.4,0.4l0.5,0.3l0.5,0.3l0.6,0.2l0.6,0.1h0.6l0.6-0.1l0.6-0.2
		l0.5-0.3l0.5-0.3l0.4-0.4l0.4-0.5l0.3-0.5l0.2-0.5l0.1-0.6L469.2,107.9L469.2,107.9z"/>
	<path class="st1" d="M484.5,127.6L484.5,127.6l2.4-0.3l2.4-0.3l2.4-0.3l2-0.2v-0.1v-2.3l-0.1-0.6l-0.2-0.6l-0.2-0.5l-0.2-0.3
		l-0.2-0.2l-0.5-0.4l-0.6-0.3l-0.6-0.3l-0.6-0.2l-0.7-0.1l-0.6,0l-1.3,0.1l-1.3,0.2l-1.3,0.2l-1.2,0.3l-1.2,0.4l-1.2,0.4l-1.2,0.5
		l-0.7,0.3l-2.4-5.2l1.3-0.6l1.3-0.5l1.3-0.4l1.3-0.4l1.4-0.3l1.4-0.3l1.4-0.2l1-0.1l1.2-0.1l1.2,0l1.2,0.1l1.2,0.1l1.1,0.2l0.8,0.3
		l0.8,0.4l0.7,0.5l0.7,0.5l0.6,0.6l0.6,0.7l0.5,0.7l0.5,0.8l0.4,0.8l0.3,0.8l0.2,0.8l0.2,0.9l0.1,0.8v14.7l0.1,0.4l0.1,0.4l0.2,0.4
		l0.3,0.3l0.2,0.2l0.7,0.5l0.8,0.4l0.4,0.2l-3.3,4.9l-0.8-0.2l-0.8-0.3l-0.8-0.4l-0.7-0.5l-0.7-0.5l-0.6-0.6l-0.5-0.5l-0.8,0.6
		l-0.8,0.5l-0.9,0.4l-0.9,0.4l-0.9,0.3l-0.9,0.2l-1,0.2l-1,0.1l-1,0l-1-0.1l-1-0.2l-0.9-0.2l-0.9-0.3l-0.9-0.4l-0.9-0.5l-0.8-0.5
		l-0.7-0.5l-0.6-0.6l-0.6-0.6l-0.5-0.7l-0.5-0.7L477,140l-0.3-0.8l-0.2-0.8l-0.1-0.8l-0.1-0.8l0-0.8l0.1-0.8l0.2-0.8l0.3-0.8
		l0.3-0.8l0.4-0.7l0.5-0.7l0.4-0.5l0.7-0.6l0.7-0.6l0.8-0.5l0.8-0.4l0.8-0.4l0.9-0.3l0.9-0.2L484.5,127.6L484.5,127.6z M492.3,139.4
		L492.3,139.4l0.4-0.4l0.4-0.4l0.3-0.5l0.2-0.5l0.1-0.2v-5.5l-1.4,0l-1.4,0.1l-1.4,0.2l-1.4,0.2l-0.7,0.1l-1.4,0.2l-0.6,0.2
		l-0.6,0.2l-0.5,0.3l-0.5,0.4l-0.4,0.5l-0.3,0.5l0,0.1l-0.2,0.6l-0.1,0.6l0,0.6l0,0.6l0.1,0.6l0,0.1l0.3,0.5l0.3,0.4l0.4,0.4
		l0.3,0.2l0.6,0.4l0.7,0.3l0.7,0.2l0.7,0.2l0.8,0.1l0.8,0l0.8-0.1h0l0.8-0.2l0.8-0.3l0.7-0.3L492.3,139.4L492.3,139.4L492.3,139.4z"
		/>
	<path class="st1" d="M532,117.3L532,117.3l-0.9-0.5l-0.9-0.5l-0.9-0.4l-1-0.3l-1-0.3l-1-0.2L526,115l-0.9-0.1l-0.9,0l-0.9,0.1
		l-0.9,0.2l-0.9,0.2l-0.9,0.3l-0.8,0.4l-0.8,0.5l-0.8,0.5l-0.2,0.2l-0.4,0.4l-0.1,0.1V104H511v41.2h6.5v-2.3l0.5,0.4l0.8,0.6
		l0.8,0.5l0.8,0.4l0.9,0.4l0.9,0.3l0.9,0.2l0.9,0.1l0.9,0l0.9,0l0.9-0.1l0.9-0.2l0.6-0.2l0.9-0.3l0.9-0.4l0.9-0.5l0.8-0.5l0.8-0.6
		l0.8-0.7l0.7-0.7l0.6-0.8l0.6-0.8l0.5-0.9l0.5-0.9l0.4-0.9l0.3-0.9l0.1-0.2l0.3-1.2l0.2-1.2l0.2-1.2l0.1-1.2l0-1.2l0-1.2l-0.1-1.2
		l-0.2-1.2l-0.2-1.2l-0.1-0.5l-0.3-1l-0.4-0.9l-0.4-0.9l-0.5-0.9l-0.6-0.8l-0.1-0.1l-0.6-0.8l-0.6-0.7l-0.7-0.7l-0.8-0.6L532,117.3
		L532,117.3z M529,137L529,137l0.6-0.7l0.5-0.8l0.4-0.8l0.3-0.9l0.3-0.9l0.2-0.9l0.1-0.9l0-0.9l-0.1-0.9l-0.1-0.9l-0.2-0.9l-0.3-0.9
		l-0.4-0.8l-0.4-0.8l-0.5-0.8l-0.4-0.5l-0.5-0.5l-0.6-0.5l-0.6-0.4l-0.7-0.3l-0.7-0.2l-0.7-0.2l-0.8-0.1l-0.8,0l-0.8,0.1l-0.7,0.2
		l-0.7,0.3l-0.7,0.3l-0.6,0.4l-0.2,0.2l-0.5,0.4l-0.5,0.5l-0.4,0.6l-0.3,0.6l-0.2,0.6l-0.2,0.7l-0.1,0.7v3.4v3.4l0.1,0.7l0.2,0.7
		l0.2,0.6l0.3,0.6l0.4,0.6l0.5,0.5l0.5,0.4l0.6,0.4l0.7,0.4l0.7,0.3l0.7,0.2l0.8,0.1l0.8,0l0.8,0l0.8-0.1l0.7-0.2l0.7-0.3l0.7-0.4
		l0.6-0.4l0.6-0.5L529,137L529,137z"/>
	<polygon class="st1" points="557.6,139.4 557.6,139.4 556.6,139.6 555.6,139.7 554.6,139.7 553.8,139.7 553.4,139.6 553,139.5 
		552.6,139.3 552.3,139 552,138.7 551.8,138.3 551.7,138 551.6,137.3 551.5,136.6 551.5,103.9 545,103.9 545,140 545.1,140.7 
		545.3,141.4 545.6,142.1 545.9,142.7 546.3,143.3 546.8,143.9 547.4,144.4 548,144.8 548.7,145.1 549.3,145.4 550.1,145.5 
		550.3,145.6 551.4,145.7 552.6,145.8 553.8,145.8 555,145.7 556.2,145.6 557.3,145.4 558.4,145.2 	"/>
	<path class="st1" d="M564.3,139.9L564.3,139.9l0.6,0.8l0.6,0.8l0.7,0.7l0.6,0.6l0.8,0.6l0.9,0.6l0.9,0.5l1,0.4l1,0.4l0.4,0.1l1,0.3
		l1.1,0.2l1.1,0.1l1.1,0l1.1,0l1.1-0.1l1.1-0.2l1-0.3l1-0.3l1-0.4l0.4-0.2l1-0.5l1-0.6l0.4-0.2l0.8-0.6l0.8-0.6l0.3-0.3l-4.1-4.8
		l-0.6,0.6l-0.7,0.5l-0.7,0.5L580,139l-0.8,0.3l-0.8,0.2l-0.9,0.2l-0.9,0.1h-0.1l-0.9,0l-0.9-0.1l-0.6-0.1l-0.7-0.2l-0.7-0.3
		l-0.7-0.3l-0.6-0.4l-0.6-0.5l-0.5-0.5l-0.5-0.6l-0.4-0.6l-0.3-0.7l-0.2-0.7l-0.2-0.7l-0.1-0.7l0-0.5h19.9l0-1.4l-0.1-1.4l-0.1-1.4
		l-0.2-1.4l-0.2-1.4l-0.1-0.7l-0.2-0.9l-0.3-0.9l-0.4-0.9l-0.4-0.8l0,0l-0.5-0.8l-0.6-0.8l-0.6-0.8l-0.7-0.7l-0.7-0.6l-0.8-0.6
		l-0.8-0.5l-0.9-0.5l-0.9-0.4l-0.9-0.3l-1-0.3l-1-0.2l-1-0.1l-1,0l-1,0l-1,0.1l-1,0.2l-1,0.3l-0.9,0.3l-0.9,0.4l-0.7,0.4l-0.8,0.5
		l-0.8,0.6l-0.7,0.6l-0.7,0.7l-0.4,0.5l-0.6,0.9l-0.6,1l-0.5,1l-0.5,1l-0.4,1.1l-0.3,1.1l-0.3,1.1l-0.2,1.1l-0.1,1.1l-0.1,1.1l0,1.1
		l0.1,1.1l0.2,1.1l0.2,1.1l0.3,1.1l0.4,1.1l0.4,1l0.5,1L564.3,139.9L564.3,139.9L564.3,139.9z M568.5,127.9h13.3l0-0.8l-0.1-0.8
		l-0.2-0.8l-0.3-0.7l-0.3-0.7l-0.4-0.6l-0.5-0.6l-0.5-0.5l-0.6-0.4l-0.7-0.4l-0.7-0.3l-0.7-0.2l-0.7-0.1l-0.8,0l-0.8,0l-0.7,0.1
		l-0.7,0.2l-0.7,0.3l-0.7,0.4l-0.6,0.4l-0.5,0.5l-0.5,0.6l-0.1,0.1l-0.4,0.8l-0.4,0.8l-0.3,0.9l-0.2,0.9L568.5,127.9L568.5,127.9
		L568.5,127.9z"/>
	<polygon class="st1" points="417.8,204.2 417.8,204.2 418.7,203.7 419.4,203.2 420.2,202.7 420.4,202.5 421,201.9 421.6,201.2 
		422.1,200.5 422.6,199.8 422.9,199 423.2,198.2 423.4,197.3 423.6,196.5 423.6,195.6 423.6,194.8 423.5,194.1 423.3,193.3 
		423.1,192.5 422.8,191.7 422.4,191 422,190.3 421.5,189.7 420.9,189.1 420.6,188.9 419.7,188.3 418.8,187.8 417.8,187.4 416.8,187 
		415.7,186.7 414.7,186.5 414.5,186.5 413,186.2 411.4,185.8 410,185.4 409.5,185.3 409,185 408.6,184.7 408.2,184.3 408,183.9 
		407.9,183.4 407.9,182.9 407.9,182.4 408.1,181.9 408.3,181.5 408.6,181.1 409,180.8 409.5,180.4 410.2,180.1 410.8,179.8 
		411.5,179.6 412.2,179.5 413,179.5 413.7,179.6 413.9,179.6 414.9,179.9 415.8,180.2 416.8,180.6 417.7,181.1 418.5,181.6 
		419.3,182.2 419.7,182.5 423.8,178.1 422.9,177.4 421.9,176.7 421,176.1 420,175.5 418.9,175 417.9,174.6 416.8,174.2 416.1,174.1 
		415,173.9 413.9,173.8 412.8,173.8 411.8,173.8 410.7,173.9 409.6,174.1 408.5,174.4 407.5,174.7 406.5,175.1 406.4,175.1 
		405.7,175.6 405,176 404.3,176.6 403.7,177.2 403.2,177.9 402.7,178.6 402.3,179.4 402,180.2 401.8,181 401.6,181.8 401.5,182.7 
		401.5,183.5 401.6,184.4 401.8,185.2 402.1,186.1 402.4,186.8 402.8,187.6 403.3,188.3 403.6,188.7 404.2,189.3 404.8,189.8 
		405.5,190.3 406.2,190.7 406.7,190.9 407.9,191.4 409.2,191.8 410.4,192.1 411.7,192.4 411.9,192.4 413,192.6 414,192.9 
		415.1,193.2 415.8,193.5 416.2,193.8 416.6,194.1 416.9,194.5 417.1,194.9 417.2,195.5 417.2,196 417.1,196.6 416.9,197.1 
		416.8,197.4 416.5,197.8 416,198.1 415.6,198.4 415.1,198.6 414.2,198.8 413.4,199 412.5,199.1 411.6,199 410.7,198.9 409.9,198.8 
		409,198.5 408.2,198.2 407.4,197.8 406.9,197.5 405.9,196.9 405,196.2 404.1,195.4 403.9,195.2 399.7,199.6 400.8,200.5 402,201.3 
		403.2,202.1 404.4,202.8 405.6,203.5 406.3,203.8 407.3,204.2 408.4,204.5 409.4,204.8 410.5,205 411.6,205.1 412.7,205.1 
		413.7,205 414.8,204.9 415.9,204.7 416.9,204.5 	"/>
	<path class="st1" d="M452.3,202.6L452.3,202.6l-0.9,0.5l-0.9,0.5l-0.9,0.4l-1,0.3l-1,0.3l-1,0.2l-0.5,0.1l-0.9,0.1l-0.9,0l-0.9-0.1
		l-0.9-0.2l-0.9-0.2l-0.9-0.3l-0.8-0.4l-0.8-0.5l-0.8-0.5l-0.2-0.2l-0.5-0.4l-0.1-0.1v11.4h-6.5v-38.6h6.5v2.3l0.5-0.4l0.8-0.6
		l0.8-0.5l0.8-0.4l0.9-0.4l0.9-0.3l0.9-0.2l0.9-0.1l0.9,0l0.9,0l0.9,0.1l0.9,0.2l0.6,0.2l0.9,0.3l0.9,0.4l0.9,0.5l0.8,0.5l0.8,0.6
		l0.8,0.7l0.7,0.7l0.6,0.8l0.6,0.8l0.5,0.9l0.5,0.9l0.4,0.9l0.3,1l0.1,0.2l0.3,1.2l0.2,1.2l0.2,1.2l0.1,1.2l0,1.2l0,1.2l-0.1,1.2
		l-0.2,1.2l-0.2,1.2l-0.1,0.5l-0.3,1l-0.4,0.9l-0.4,0.9l-0.5,0.9l-0.6,0.8l-0.1,0.1l-0.6,0.8l-0.6,0.7l-0.7,0.7l-0.8,0.6
		L452.3,202.6L452.3,202.6z M449.3,182.9L449.3,182.9l0.6,0.7l0.5,0.8l0.4,0.8l0.3,0.9l0.3,0.9l0.2,0.9l0.1,0.9l0,0.9l-0.1,0.9
		l-0.1,0.9l-0.2,0.9l-0.3,0.9l-0.4,0.8l-0.4,0.8l-0.5,0.8l-0.4,0.5l-0.5,0.5l-0.6,0.5l-0.6,0.4l-0.7,0.3l-0.7,0.2l-0.7,0.2l-0.8,0.1
		l-0.8,0l-0.8-0.1l-0.7-0.2l-0.7-0.3l-0.7-0.3l-0.6-0.4l-0.2-0.2l-0.5-0.4l-0.5-0.5l-0.4-0.6l-0.3-0.6l-0.2-0.6l-0.2-0.7l-0.1-0.7
		v-3.4v-3.4l0.1-0.7l0.2-0.7l0.2-0.6l0.3-0.6l0.4-0.6l0.5-0.5l0.5-0.4l0.6-0.4l0.7-0.4l0.7-0.3l0.7-0.2l0.8-0.1l0.8,0l0.8,0l0.8,0.1
		l0.7,0.2l0.7,0.3l0.7,0.4l0.6,0.4l0.6,0.5L449.3,182.9L449.3,182.9z"/>
	<path class="st1" d="M467,198.8L467,198.8l0.6,0.8l0.6,0.8l0.7,0.7l0.6,0.6l0.8,0.6l0.9,0.6l0.9,0.5l1,0.4l1,0.4l0.4,0.1l1,0.3
		l1.1,0.2l1.1,0.1l1.1,0l1.1,0l1.1-0.1l1.1-0.2l1-0.3l1-0.3l1-0.4l0.4-0.2l1-0.5l1-0.6l0.4-0.2l0.8-0.6l0.8-0.6l0.3-0.3l-4.1-4.8
		l-0.6,0.6l-0.7,0.5l-0.7,0.5l-0.8,0.4l-0.8,0.3l-0.8,0.2l-0.9,0.2l-0.9,0.1h-0.1l-0.9,0l-0.9-0.1l-0.6-0.1l-0.7-0.2l-0.7-0.3
		l-0.7-0.3l-0.6-0.4l-0.6-0.5l-0.5-0.5l-0.5-0.6l-0.4-0.6l-0.3-0.7l-0.2-0.7l-0.2-0.7l-0.1-0.7l0-0.5h19.9l0-1.4l-0.1-1.4l-0.1-1.4
		l-0.2-1.4l-0.2-1.4l-0.1-0.7l-0.2-0.9l-0.3-0.9l-0.4-0.9l-0.4-0.8l0,0l-0.5-0.8l-0.6-0.8l-0.6-0.8l-0.7-0.7l-0.7-0.6l-0.8-0.6
		l-0.8-0.5l-0.9-0.5l-0.9-0.4l-0.9-0.3l-1-0.3l-1-0.2l-1-0.1l-1,0l-1,0l-1,0.1l-1,0.2l-1,0.3l-0.9,0.3l-0.9,0.4l-0.7,0.4l-0.8,0.5
		l-0.8,0.6l-0.7,0.6l-0.7,0.7l-0.4,0.5l-0.6,0.9l-0.6,1l-0.5,1l-0.5,1l-0.4,1.1l-0.3,1.1l-0.3,1.1l-0.2,1.1l-0.1,1.1l-0.1,1.1l0,1.1
		l0.1,1.1l0.2,1.1l0.2,1.1l0.3,1.1l0.4,1.1l0.4,1l0.5,1L467,198.8L467,198.8L467,198.8z M471.1,186.8h13.3l0-0.8l-0.1-0.8l-0.2-0.8
		l-0.3-0.7l-0.3-0.7l-0.4-0.6l-0.5-0.6l-0.5-0.5l-0.6-0.4l-0.7-0.4l-0.7-0.3l-0.7-0.2l-0.7-0.1l-0.8,0l-0.8,0l-0.7,0.1l-0.7,0.2
		l-0.7,0.3l-0.7,0.4l-0.6,0.4l-0.5,0.5l-0.5,0.6l-0.1,0.1l-0.4,0.8l-0.4,0.8l-0.3,0.9l-0.2,0.9L471.1,186.8L471.1,186.8L471.1,186.8
		z"/>
	<path class="st1" d="M499.1,198.8L499.1,198.8l0.6,0.8l0.6,0.8l0.7,0.7l0.6,0.6l0.8,0.6l0.9,0.6l0.9,0.5l1,0.4l1,0.4l0.4,0.1l1,0.3
		l1.1,0.2l1.1,0.1l1.1,0l1.1,0l1.1-0.1l1.1-0.2l1-0.3l1-0.3l1-0.4l0.4-0.2l1-0.5l1-0.6l0.4-0.2l0.8-0.6l0.8-0.6l0.3-0.3l-4.1-4.8
		l-0.6,0.6l-0.7,0.5l-0.7,0.5l-0.8,0.4l-0.8,0.3l-0.8,0.2l-0.9,0.2l-0.9,0.1h-0.1l-0.9,0l-0.9-0.1l-0.6-0.1l-0.7-0.2l-0.7-0.3
		l-0.7-0.3l-0.6-0.4l-0.6-0.5l-0.5-0.5l-0.5-0.6l-0.4-0.6l-0.3-0.7l-0.2-0.7l-0.2-0.7l-0.1-0.7l0-0.5h19.9l0-1.4l-0.1-1.4l-0.1-1.4
		l-0.2-1.4l-0.2-1.4l-0.1-0.7l-0.2-0.9l-0.3-0.9l-0.4-0.9l-0.4-0.8l0,0l-0.5-0.8l-0.6-0.8l-0.6-0.8l-0.7-0.7l-0.7-0.6l-0.8-0.6
		l-0.8-0.5l-0.9-0.5l-0.9-0.4l-0.9-0.3l-1-0.3l-1-0.2l-1-0.1l-1,0l-1,0l-1,0.1l-1,0.2l-1,0.3l-0.9,0.3l-0.9,0.4l-0.7,0.4l-0.8,0.5
		l-0.8,0.6l-0.7,0.6l-0.7,0.7l-0.4,0.5l-0.6,0.9l-0.6,1l-0.5,1l-0.5,1l-0.4,1.1l-0.3,1.1l-0.3,1.1l-0.2,1.1l-0.1,1.1l-0.1,1.1l0,1.1
		l0.1,1.1l0.2,1.1l0.2,1.1l0.3,1.1l0.4,1.1l0.4,1l0.5,1L499.1,198.8L499.1,198.8L499.1,198.8z M503.2,186.8h13.3l0-0.8l-0.1-0.8
		l-0.2-0.8l-0.3-0.7l-0.3-0.7l-0.4-0.6l-0.5-0.6l-0.5-0.5l-0.6-0.4l-0.7-0.4l-0.7-0.3l-0.7-0.2l-0.7-0.1l-0.8,0l-0.8,0l-0.7,0.1
		l-0.7,0.2l-0.7,0.3l-0.7,0.4l-0.6,0.4l-0.5,0.5l-0.5,0.6l-0.1,0.1l-0.4,0.8l-0.4,0.8l-0.3,0.9l-0.2,0.9L503.2,186.8L503.2,186.8
		L503.2,186.8z"/>
	<path class="st1" d="M534.6,176.2L534.6,176.2l0.9-0.5l0.9-0.5l0.9-0.4l1-0.3l1-0.3l1-0.2l0.3,0l0.9-0.1l0.9,0l0.9,0.1l0.9,0.2
		l0.9,0.2l0.9,0.3l0.8,0.4l0.8,0.5l0.8,0.5l0.2,0.2l0.5,0.4l0.1,0.1v-13.9h6.5v41.2h-6.5v-2.3l-0.5,0.4l-0.8,0.6l-0.8,0.5l-0.8,0.4
		l-0.9,0.4l-0.9,0.3l-0.9,0.2l-0.9,0.1l-0.9,0l-0.9,0l-0.9-0.1l-0.9-0.2l-0.6-0.2l-0.9-0.3l-0.9-0.4l-0.9-0.5l-0.8-0.5l-0.8-0.6
		l-0.8-0.7l-0.7-0.7l-0.6-0.8l-0.6-0.8l-0.5-0.9l-0.5-0.9l-0.4-0.9l-0.3-0.9l-0.1-0.2l-0.3-1.2l-0.2-1.2l-0.2-1.2l-0.1-1.2l0-1.2
		l0-1.2l0.1-1.2l0.2-1.2l0.2-1.2l0.1-0.5l0.3-1l0.4-0.9l0.4-0.9l0.5-0.9l0.6-0.8l0.1-0.1l0.6-0.8l0.6-0.7l0.7-0.7l0.8-0.6
		L534.6,176.2L534.6,176.2z M537.6,195.9L537.6,195.9l-0.6-0.7l-0.5-0.8l-0.4-0.8l-0.3-0.9l-0.3-0.9l-0.2-0.9l-0.1-0.9l0-0.9
		l0.1-0.9l0.1-0.9l0.2-0.9l0.3-0.9l0.4-0.8l0.4-0.8l0.5-0.8l0.4-0.5l0.5-0.5l0.6-0.5l0.6-0.4l0.7-0.3l0.7-0.2l0.7-0.2l0.8-0.1l0.8,0
		l0.8,0.1l0.7,0.2l0.7,0.3l0.7,0.3l0.6,0.4l0.2,0.2l0.5,0.4l0.5,0.5l0.4,0.6l0.3,0.6l0.2,0.6l0.2,0.7l0.1,0.7v3.4v3.4l-0.1,0.7
		l-0.2,0.7l-0.2,0.6l-0.3,0.6l-0.4,0.6l-0.5,0.5l-0.5,0.4l-0.6,0.4l-0.7,0.4l-0.7,0.3l-0.7,0.2l-0.8,0.1l-0.8,0l-0.8,0l-0.8-0.1
		l-0.7-0.2l-0.7-0.3l-0.7-0.4l-0.6-0.4l-0.6-0.5L537.6,195.9L537.6,195.9z"/>
	<polygon class="st1" points="435.4,257.2 435.4,257.2 434.4,257.4 433.4,257.5 432.3,257.5 431.6,257.5 431.1,257.5 430.7,257.3 
		430.4,257.1 430,256.8 429.7,256.5 429.5,256.1 429.5,255.8 429.3,255.1 429.3,254.4 429.3,221.8 422.8,221.8 422.8,257.8 
		422.9,258.5 423.1,259.2 423.3,259.9 423.7,260.6 424.1,261.2 424.6,261.7 425.2,262.2 425.8,262.6 426.4,262.9 427.1,263.2 
		427.8,263.4 428,263.4 429.2,263.5 430.4,263.6 431.6,263.6 432.7,263.6 433.9,263.4 435.1,263.2 436.2,263 	"/>
	<path class="st1" d="M441.1,233.6V263h6.5v-29.5H441.1L441.1,233.6z M448.2,225.7L448.2,225.7l0-0.6l-0.1-0.6l-0.2-0.5l-0.3-0.5
		l-0.4-0.5l-0.4-0.4l-0.5-0.3l-0.5-0.3l-0.6-0.2l-0.6-0.1H444l-0.6,0.1l-0.6,0.2l-0.5,0.3l-0.5,0.3l-0.4,0.4l-0.4,0.5l-0.3,0.5
		l-0.2,0.5l-0.1,0.6l0,0.6l0,0.6l0.1,0.6l0.2,0.5l0.3,0.5l0.4,0.5l0.4,0.4l0.5,0.3l0.5,0.3l0.6,0.2l0.6,0.1h0.6l0.6-0.1l0.6-0.2
		l0.5-0.3l0.5-0.3l0.4-0.4l0.4-0.5l0.3-0.5l0.2-0.5l0.1-0.6L448.2,225.7L448.2,225.7z"/>
	<polygon class="st1" points="471.8,240.3 471.8,240.3 471.4,239.9 471,239.6 470.5,239.3 470,239.1 469.5,239.1 468.7,239 
		468,239.1 467.2,239.3 466.5,239.5 466.1,239.7 465.5,240 465,240.4 464.5,240.9 464.1,241.5 463.8,242.1 463.5,242.7 463.4,243.3 
		463.3,244 463.3,244.4 463.3,263 456.8,263 456.8,233.6 463.3,233.6 463.3,235.9 464,235.3 464.7,234.8 465.5,234.3 466.3,233.9 
		467.1,233.6 468,233.3 468.9,233.2 469.8,233.1 470.7,233.1 471.6,233.2 472.5,233.3 473.4,233.6 474.3,233.9 475.1,234.3 
		475.9,234.8 475.9,234.8 476.6,235.4 477.2,236 477.8,236.7 477.9,236.8 478.5,236.1 479.2,235.5 479.9,234.9 480.7,234.5 
		481.5,234 482.4,233.7 483.2,233.4 484.1,233.2 485.1,233.1 486,233.1 486.9,233.1 487.8,233.3 488.7,233.5 489.6,233.8 
		490.4,234.1 491.3,234.6 492,235.1 492.8,235.6 493.4,236.3 494,236.9 494.6,237.7 494.6,237.7 495,238.5 495.4,239.4 495.7,240.2 
		495.9,241.1 496,242 496.1,242.7 496.1,263 489.6,263 489.6,244.2 489.5,243.4 489.4,242.7 489.1,242 488.9,241.3 488.5,240.7 
		488.2,240.3 487.8,239.9 487.4,239.6 486.9,239.3 486.3,239.1 485.8,239 485.1,239 484.3,239.1 483.6,239.2 482.9,239.5 
		482.5,239.7 481.9,240 481.4,240.4 480.9,240.9 480.5,241.5 480.2,242.1 479.9,242.7 479.7,243.3 479.7,244 479.6,244.4 479.6,263 
		473.2,263 473.2,244.2 473.1,243.4 472.9,242.7 472.7,242 472.4,241.3 472,240.6 	"/>
	<path class="st1" d="M505.3,233.6V263h6.5v-29.5H505.3L505.3,233.6z M512.5,225.7L512.5,225.7l0-0.6l-0.1-0.6l-0.2-0.5l-0.3-0.5
		l-0.4-0.5l-0.4-0.4l-0.5-0.3L510,222l-0.6-0.2l-0.6-0.1h-0.6l-0.6,0.1l-0.6,0.2l-0.5,0.3l-0.5,0.3l-0.4,0.4l-0.4,0.5L505,224
		l-0.2,0.5l-0.1,0.6l0,0.6l0,0.6l0.1,0.6l0.2,0.5l0.3,0.5l0.4,0.5l0.4,0.4l0.5,0.3l0.5,0.3l0.6,0.2l0.6,0.1h0.6l0.6-0.1l0.6-0.2
		l0.5-0.3l0.5-0.3l0.4-0.4l0.4-0.5l0.3-0.5l0.2-0.5l0.1-0.6L512.5,225.7L512.5,225.7z"/>
	<polygon class="st1" points="524.5,258.8 524.5,258.8 524.3,258.1 524.2,257.3 524.1,256.5 524.1,256.1 524.1,240.9 524.1,239.1 
		519,239.1 519,233.6 524.1,233.6 524.1,224.1 530.6,221.8 530.6,233.6 538.5,233.6 538.5,239.1 530.6,239.1 530.6,240.9 
		530.6,255.1 530.6,255.5 530.8,255.9 531,256.3 531.2,256.6 531.6,256.9 531.9,257.1 532.3,257.2 533.2,257.3 534.2,257.4 
		535.2,257.3 536.1,257.2 537.1,257 537.7,256.9 538.4,262.6 536.9,262.9 535.4,263.1 533.8,263.3 532.3,263.4 531.8,263.5 
		531,263.5 530.2,263.4 529.4,263.2 528.6,263 527.9,262.7 527.2,262.3 526.6,261.9 526.1,261.4 525.6,260.9 525.1,260.3 
		524.8,259.6 524.5,258.9 	"/>
	<polygon class="st1" points="400.2,329.3 427.3,329.3 427.3,323 407.3,323 407.3,311.6 424.6,311.6 424.6,305.3 407.3,305.3 
		407.3,294.3 426.2,294.3 426.2,288 400.2,288 	"/>
	<polygon class="st1" points="446.2,329.3 446.2,299.4 466.2,329.3 474.1,329.3 474.1,288 467,288 467,317.9 446.9,288 439.1,288 
		439.1,329.3 	"/>
	<path class="st1" d="M516.9,324.1L516.9,324.1l0.8-1l0.7-1l0.7-1.1l0.6-1.1l0.6-1.1l0.5-1.1l0.4-1.2l0.4-1.2l0.3-1.2l0.3-1.2
		l0.2-1.2l0.1-1.2l0.1-1.3l0-0.5l0-1.3l-0.1-1.3l-0.2-1.2l-0.2-1.2l-0.3-1.2l-0.4-1.2l-0.4-1.2l-0.5-1.2l-0.5-1.1l-0.6-1.1l-0.7-1.1
		l-0.7-1l-0.8-1l-0.3-0.4l-0.8-0.8l-0.8-0.7l-0.9-0.7l-0.9-0.6l-0.9-0.5l-1-0.5l-1-0.4l-1-0.3l-1.1-0.3l-1.1-0.2l-1.1-0.1l-1.1,0
		l-1,0h-15.6v41.2h15.6l1.1,0l1.1-0.1l1.1-0.1l1.1-0.2l1.1-0.3l1-0.3l1-0.4l1-0.5l0.9-0.5l0.9-0.6l0.9-0.7l0.8-0.7L516.9,324.1
		L516.9,324.1z M515.5,308.7L515.5,308.7l0,1.2l-0.1,1.2l-0.2,1.1l-0.2,1.1l-0.3,1.1l-0.4,1.1l-0.4,1.1l-0.5,1l-0.2,0.4l-0.5,0.8
		l-0.5,0.7l-0.6,0.7l-0.7,0.6l-0.7,0.5l-0.8,0.5l-0.8,0.4l-0.8,0.3l-0.8,0.3l-0.9,0.2l-0.9,0.1l-0.4,0h-9v-28.7h9l0.9,0.1l0.9,0.1
		l0.9,0.2l0.8,0.3l0.8,0.4l0.8,0.4l0.7,0.5l0.7,0.6l0.6,0.6l0.6,0.7l0.5,0.7l0.2,0.3l0.5,1l0.5,1.1l0.4,1.1l0.3,1.1l0.3,1.1l0.2,1.1
		l0.1,1.2l0.1,1.2L515.5,308.7L515.5,308.7z"/>
	<polygon class="st1" points="542.5,303.6 553.7,306.2 554.6,306.4 555.5,306.7 556.3,307.1 557.1,307.5 557.9,308 558.6,308.6 
		559.3,309.2 559.9,309.9 560.4,310.7 560.9,311.5 561.3,312.3 561.6,313.2 561.9,314 562.1,314.9 562.1,315.9 562.2,316.8 
		562.1,317.7 561.9,318.6 561.9,318.9 561.7,319.8 561.7,320 561.4,321 561,321.9 560.6,322.8 560.1,323.7 559.5,324.6 558.9,325.3 
		558.3,326.1 557.6,326.7 556.9,327.4 556.1,327.9 555.3,328.4 554.4,328.8 553.5,329.2 552.6,329.5 551.7,329.7 551.4,329.7 
		550.2,329.9 548.9,330.1 547.7,330.1 546.5,330.1 545.3,330.1 544,329.9 542.8,329.7 541.6,329.4 540.5,329.1 539.3,328.7 
		538.2,328.2 537.1,327.7 536,327.1 535,326.5 534,325.8 533.1,325 532.2,324.2 531.4,323.3 530.6,322.4 530.4,322.2 535.9,317.7 
		536.6,318.6 537.4,319.4 538.2,320.2 539,320.9 539.9,321.6 540.9,322.2 541.8,322.8 542,322.9 542.9,323.2 543.9,323.5 
		544.8,323.6 545.8,323.8 546.8,323.8 547.8,323.7 548.8,323.6 549.7,323.4 550.7,323.2 551.6,322.8 552.4,322.5 552.9,322.1 
		553.4,321.7 553.9,321.3 554.3,320.8 554.7,320.2 555,319.6 555.2,319 555.3,318.3 555.3,317.6 555.2,317 555.1,316.3 554.8,315.7 
		554.5,315.1 554.1,314.6 553.7,314.1 553.2,313.7 552.6,313.3 552,313 551.4,312.8 540.3,310.3 539.4,310 538.5,309.7 537.7,309.2 
		536.9,308.7 536.1,308.1 535.4,307.5 534.7,306.8 534.2,306.1 533.6,305.3 533.2,304.4 532.8,303.6 532.4,302.7 532.2,301.8 
		532,300.8 531.9,299.9 531.9,298.9 532,298 532,297.6 532.2,296.7 532.5,295.7 532.8,294.8 533.2,294 533.7,293.1 534.2,292.3 
		534.8,291.6 535.5,290.9 536.2,290.3 537,289.7 537.8,289.2 538.7,288.7 539.5,288.4 539.6,288.4 540.7,288 541.9,287.7 
		543.2,287.5 544.4,287.3 545.6,287.3 546.8,287.2 548.1,287.3 549.3,287.4 550.5,287.5 551.8,287.8 552,287.8 553,288 553.9,288.3 
		554.9,288.6 555.8,289.1 556.7,289.5 557.6,290.1 558.4,290.7 559.2,291.4 559.9,292.1 560.6,292.9 561.2,293.7 561.4,294 
		555.9,298.5 555.4,297.7 554.8,297 554.2,296.3 553.5,295.7 552.8,295.2 552,294.7 551.2,294.3 550.4,294 549.5,293.7 549.3,293.6 
		548.3,293.5 547.3,293.4 546.3,293.3 545.3,293.4 544.3,293.5 543.3,293.7 542.3,294 542.1,294.1 541.5,294.4 540.9,294.7 
		540.4,295.1 540,295.6 539.6,296.1 539.3,296.7 539,297.3 538.9,297.9 538.9,298.6 538.9,299.2 539,299.7 539.1,300.3 539.3,300.9 
		539.6,301.4 539.9,302 540.4,302.4 540.9,302.8 541.4,303.2 542,303.4 	"/>
	<polygon class="st1" points="480,362.3 480.1,362.3 482.1,362.3 484,362.4 486,362.5 488,362.6 489.9,362.8 491.9,363.1 
		493.8,363.4 495.8,363.7 497.7,364.1 499.6,364.5 501.5,364.9 503.4,365.4 505.3,366 507.2,366.6 509.1,367.2 510.9,367.9 
		512.8,368.6 514.6,369.3 516.4,370.1 518.2,370.9 519.9,371.8 521.7,372.7 523.4,373.7 525.1,374.7 526.8,375.7 528.4,376.7 
		530.1,377.8 531.7,379 533.3,380.1 534.8,381.3 536.4,382.6 537.9,383.9 539.3,385.2 540.8,386.5 542.2,387.9 543.6,389.3 
		544.9,390.7 546.3,392.2 547.5,393.7 548.8,395.2 550,396.7 551.2,398.3 552.3,399.9 553.5,401.5 554.5,403.2 555.6,404.8 
		556.6,406.5 557.5,408.2 558.5,410 559.3,411.7 560.2,413.5 561,415.3 561.8,417.1 562.5,419 563.2,420.8 563.8,422.7 564.4,424.5 
		565,426.4 565.5,428.3 566,430.2 566.4,432.2 566.8,434.1 567.2,436 567.5,438 567.7,439.9 567.9,441.9 568.1,443.8 568.2,445.8 
		568.3,447.8 568.4,449.7 568.4,451.7 568.3,453.7 568.2,455.6 568.1,457.6 567.9,459.6 567.7,461.5 567.4,463.5 567.1,465.4 
		566.8,467.4 566.4,469.3 565.9,471.2 565.5,473.1 564.9,475 564.4,476.9 563.8,478.8 563.1,480.6 562.4,482.5 561.7,484.3 
		560.9,486.1 560.1,487.9 559.3,489.7 558.4,491.4 557.5,493.2 556.5,494.9 555.5,496.6 554.4,498.3 553.4,499.9 552.2,501.5 
		551.1,503.1 549.9,504.7 548.7,506.2 547.4,507.8 546.1,509.2 544.8,510.7 543.5,512.1 542.1,513.5 540.7,514.9 539.2,516.2 
		537.7,517.5 536.2,518.8 534.7,520 533.1,521.2 531.6,522.4 529.9,523.5 528.3,524.6 526.6,525.7 525,526.7 523.2,527.7 
		521.5,528.6 519.8,529.5 518,530.4 516.2,531.2 514.4,532 512.6,532.8 510.8,533.5 508.9,534.1 507,534.8 505.2,535.4 503.3,535.9 
		501.4,536.4 499.4,536.8 497.5,537.3 495.6,537.6 493.6,537.9 491.7,538.2 489.7,538.5 487.8,538.7 485.8,538.8 483.8,538.9 
		481.9,539 479.9,539 477.9,539 476,538.9 474,538.8 472,538.6 470.1,538.4 468.1,538.2 466.2,537.9 464.2,537.6 462.3,537.2 
		460.4,536.8 458.5,536.3 456.6,535.8 454.7,535.3 452.8,534.7 450.9,534.1 449.1,533.4 447.2,532.7 445.4,532 443.6,531.2 
		441.8,530.3 440.1,529.5 438.3,528.6 436.6,527.6 434.9,526.6 433.2,525.6 431.6,524.5 429.9,523.4 428.3,522.3 426.7,521.1 
		425.2,519.9 423.6,518.7 422.1,517.4 420.7,516.1 419.2,514.8 417.8,513.4 416.4,512 415.1,510.6 413.7,509.1 412.5,507.6 
		411.2,506.1 410,504.6 408.8,503 407.7,501.4 406.5,499.8 405.5,498.1 404.4,496.4 403.4,494.7 402.5,493 401.5,491.3 400.7,489.5 
		399.8,487.8 399,486 398.2,484.1 397.5,482.3 396.8,480.5 396.2,478.6 395.6,476.7 395,474.8 394.5,472.9 394,471 393.6,469.1 
		393.2,467.2 392.8,465.3 392.5,463.3 392.3,461.4 392.1,459.4 391.9,457.4 391.8,455.5 391.7,453.5 391.6,451.5 391.6,449.6 
		391.7,447.6 391.8,445.6 391.9,443.7 392.1,441.7 392.3,439.8 392.6,437.8 392.9,435.9 393.2,433.9 393.6,432 394.1,430.1 
		394.5,428.2 395.1,426.3 395.6,424.4 396.2,422.5 396.9,420.6 397.6,418.8 398.3,417 399.1,415.2 399.9,413.4 400.7,411.6 
		401.6,409.8 402.5,408.1 403.5,406.4 404.5,404.7 405.6,403 406.6,401.4 407.8,399.7 408.9,398.1 410.1,396.6 411.3,395 
		412.6,393.5 413.9,392 415.2,390.6 416.5,389.1 417.9,387.7 419.3,386.4 420.8,385 422.3,383.7 423.8,382.5 425.3,381.2 426.9,380 
		428.4,378.9 430.1,377.7 431.7,376.6 433.4,375.6 435,374.6 436.7,373.6 438.5,372.6 440.2,371.7 442,370.9 443.8,370 445.6,369.3 
		447.4,368.5 449.2,367.8 451.1,367.1 453,366.5 454.8,365.9 456.7,365.4 458.6,364.9 460.6,364.4 462.5,364 464.4,363.7 
		466.4,363.3 468.3,363.1 470.3,362.8 472.2,362.6 474.2,362.5 476.2,362.4 478.1,362.3 	"/>
	<polygon class="st2" points="403,494.3 403,494.3 404,496 405,497.7 406.1,499.4 407.2,501 408.3,502.6 409.5,504.2 410.7,505.7 
		411.9,507.3 413.2,508.8 414.5,510.2 415.9,511.7 417.2,513.1 418.6,514.5 420.1,515.8 421.5,517.1 423,518.4 424.6,519.7 
		426.1,520.9 427.7,522.1 429.3,523.2 430.9,524.3 432.6,525.4 434.2,526.4 435.9,527.4 436.3,527.7 556.8,407.2 555.8,405.5 
		554.7,403.8 553.7,402.2 552.6,400.5 551.4,398.9 550.3,397.4 549.1,395.8 547.8,394.3 546.5,392.8 545.2,391.3 543.9,389.9 
		542.5,388.4 541.1,387.1 539.7,385.7 538.2,384.4 536.7,383.1 535.2,381.9 533.6,380.6 532.1,379.5 530.5,378.3 528.8,377.2 
		527.2,376.1 525.5,375.1 523.8,374.1 523.4,373.9 	"/>
	<path class="st1" d="M339.1,93.6L339.1,93.6l0-1.2l0.1-1.2l0.2-1.2l0.2-1.2l0.3-1.2l0.4-1.2l0.4-1.1l0.5-1.1l0.6-1.1l0.6-1.1l0.7-1
		l0.7-1l0.8-0.9l0.8-0.9l0.9-0.8l0.9-0.8l1-0.7l1-0.7l1-0.6l1.1-0.6l1.1-0.5l1.1-0.5l1.2-0.4l1.2-0.3l1.2-0.3l1.2-0.2l1.2-0.1
		l1.2-0.1l0.6,0h237.7l1.2,0l1.2,0.1l1.2,0.2l1.2,0.2l1.2,0.3l1.2,0.4l1.1,0.4l1.1,0.5l1.1,0.6l1.1,0.6l1,0.7l1,0.7l0.9,0.8l0.9,0.8
		l0.8,0.9l0.8,0.9l0.7,1l0.7,1l0.6,1l0.6,1.1l0.5,1.1l0.5,1.1l0.4,1.2l0.3,1.2l0.3,1.2l0.2,1.2l0.1,1.2l0.1,1.2l0,0.6v452.7l0,1.2
		l-0.1,1.2l-0.2,1.2l-0.2,1.2l-0.3,1.2l-0.4,1.2l-0.4,1.1l-0.5,1.1l-0.6,1.1l-0.6,1.1l-0.7,1l-0.7,1l-0.8,0.9l-0.8,0.9l-0.9,0.8
		l-0.9,0.8l-1,0.7l-1,0.7l-1,0.6l-1.1,0.6l-1.1,0.5l-1.1,0.5l-1.2,0.4l-1.2,0.3l-1.2,0.3l-1.2,0.2l-1.2,0.1l-1.2,0.1l-0.6,0H361.2
		l-1.2,0l-1.2-0.1l-1.2-0.2l-1.2-0.2l-1.2-0.3l-1.2-0.4l-1.1-0.4l-1.1-0.5l-1.1-0.6l-1.1-0.6l-1-0.7l-1-0.7l-0.9-0.8l-0.9-0.8
		l-0.8-0.9l-0.8-0.9l-0.7-1l-0.7-1l-0.6-1l-0.6-1.1l-0.5-1.1l-0.5-1.1l-0.4-1.2l-0.3-1.2l-0.3-1.2l-0.2-1.2l-0.1-1.2l-0.1-1.2l0-0.6
		V93.6L339.1,93.6z M350.1,93.6L350.1,93.6l0-0.9l0.1-0.9l0.2-0.9l0.3-0.9l0.4-0.9l0.4-0.8l0.5-0.8l0.6-0.8l0.6-0.7l0.7-0.6l0.7-0.6
		l0.8-0.5l0.8-0.5l0.9-0.4l0.9-0.3l0.9-0.2l0.9-0.2l0.9-0.1l0.5,0h237.7l0.9,0l0.9,0.1l0.9,0.2l0.9,0.3l0.9,0.4l0.8,0.4l0.8,0.5
		l0.8,0.6l0.7,0.6l0.6,0.7l0.6,0.7l0.5,0.8l0.5,0.8l0.4,0.9l0.3,0.9l0.2,0.9l0.2,0.9l0.1,0.9l0,0.5v452.7l0,0.9l-0.1,0.9l-0.2,0.9
		l-0.3,0.9l-0.4,0.9l-0.4,0.8l-0.5,0.8l-0.6,0.8l-0.6,0.7l-0.7,0.6l-0.7,0.6l-0.8,0.5l-0.8,0.5l-0.9,0.4l-0.9,0.3l-0.9,0.2l-0.9,0.2
		l-0.9,0.1l-0.5,0H361.1l-0.9,0l-0.9-0.1l-0.9-0.2l-0.9-0.3l-0.9-0.4l-0.8-0.4l-0.8-0.5l-0.8-0.6l-0.7-0.6l-0.6-0.7l-0.6-0.7
		l-0.5-0.8l-0.5-0.8l-0.4-0.9l-0.3-0.9l-0.2-0.9l-0.2-0.9l-0.1-0.9l0-0.5V93.6L350.1,93.6z"/>
	<polygon class="st3" points="339.1,93.6 339.1,93.6 339.1,92.4 339.2,91.2 339.4,90 339.6,88.8 339.9,87.6 340.3,86.5 340.7,85.3 
		341.2,84.2 341.7,83.1 342.3,82.1 343,81.1 343.7,80.1 344.5,79.1 345.3,78.2 346.2,77.4 347.1,76.6 348.1,75.8 349.1,75.1 
		350.1,74.5 351.2,73.9 352.3,73.4 353.4,73 354.5,72.6 355.7,72.2 356.9,72 358.1,71.8 359.3,71.6 360.5,71.6 361.1,71.5 
		598.9,71.5 600.1,71.6 601.3,71.7 602.5,71.8 603.7,72.1 604.9,72.4 606,72.7 607.2,73.2 608.3,73.7 609.4,74.2 610.4,74.8 
		611.4,75.5 612.4,76.2 613.4,77 614.3,77.8 615.1,78.7 615.9,79.6 616.7,80.6 617.3,81.6 618,82.6 618.6,83.7 619.1,84.8 
		619.5,85.9 619.9,87 620.3,88.2 620.5,89.4 620.7,90.6 620.9,91.8 620.9,93 620.9,93.6 620.9,546.4 620.9,547.6 620.8,548.8 
		620.6,550 620.4,551.2 620.1,552.4 619.7,553.5 619.3,554.7 618.8,555.8 618.3,556.9 617.7,557.9 617,559 616.3,559.9 615.5,560.9 
		614.7,561.8 613.8,562.6 612.9,563.4 611.9,564.2 610.9,564.9 609.9,565.5 608.8,566.1 607.7,566.6 606.6,567.1 605.4,567.5 
		604.3,567.8 603.1,568.1 601.9,568.3 600.7,568.4 599.5,568.5 598.9,568.5 361.1,568.5 359.9,568.4 358.7,568.3 357.5,568.2 
		356.3,567.9 355.1,567.6 354,567.3 352.8,566.8 351.7,566.4 350.6,565.8 349.6,565.2 348.6,564.5 347.6,563.8 346.6,563 
		345.7,562.2 344.9,561.3 344.1,560.4 343.3,559.5 342.7,558.5 342,557.4 341.4,556.3 340.9,555.2 340.5,554.1 340.1,553 
		339.7,551.8 339.5,550.6 339.3,549.4 339.1,548.2 339.1,547 339.1,546.4 	"/>
</g>
</svg>
