<?xml version="1.0" encoding="utf-8"?>
<!-- Generator: Adobe Illustrator 26.0.2, SVG Export Plug-In . SVG Version: 6.00 Build 0)  -->
<svg version="1.1" id="Layer_1" xmlns="http://www.w3.org/2000/svg" xmlns:xlink="http://www.w3.org/1999/xlink" x="0px" y="0px"
	 viewBox="0 0 960 640" style="enable-background:new 0 0 960 640;" xml:space="preserve">
<style type="text/css">
	.st0{fill-rule:evenodd;clip-rule:evenodd;}
	.st1{fill-rule:evenodd;clip-rule:evenodd;fill:#FFFFFF;}
</style>
<g>
	<path class="st0" d="M480,97.6H276.2c-30.7,0-55.5,24.9-55.5,55.5v333.7c0,30.7,24.9,55.5,55.5,55.5h407.6
		c30.7,0,55.5-24.9,55.5-55.5V153.1c0-30.7-24.9-55.5-55.5-55.5H480L480,97.6z"/>
	<path class="st1" d="M480,125.4H276.2c-15.3,0-27.8,12.4-27.8,27.8v333.7c0,15.3,12.4,27.8,27.8,27.8h407.6
		c15.3,0,27.8-12.4,27.8-27.8V153.1c0-15.3-12.4-27.8-27.8-27.8H480L480,125.4z"/>
	<path class="st0" d="M410.6,172h-79.1c-20.4,0-37,16.6-37,37v222.6c0,20.4,16.6,37,37,37h158.2c20.4,0,37-16.5,37-37V208.9
		c0-20.4-16.5-37-37-37L410.6,172L410.6,172z M387.3,315.5L387.3,315.5c33.3,0,60.3,27,60.3,60.3s-27,60.3-60.3,60.3
		c-33.3,0-60.3-27-60.3-60.3C327,342.5,354,315.5,387.3,315.5L387.3,315.5z M387.3,332.9L387.3,332.9c23.4,0,42.4,19,42.4,42.4
		c0,23.4-19,42.4-42.4,42.4c-23.4,0-42.4-19-42.4-42.4C344.9,351.9,363.9,332.9,387.3,332.9L387.3,332.9z M461.2,191.7L461.2,191.7
		c19.5,0,35.3,15.8,35.3,35.3c0,19.5-15.8,35.3-35.3,35.3s-35.3-15.8-35.3-35.3C425.9,207.5,441.7,191.7,461.2,191.7L461.2,191.7z
		 M461.2,208.7L461.2,208.7c10.1,0,18.4,8.2,18.4,18.4c0,10.1-8.2,18.4-18.4,18.4c-10.1,0-18.4-8.2-18.4-18.4
		C442.8,216.9,451.1,208.7,461.2,208.7L461.2,208.7z M556.3,221.4h-15l0,0v168l0,0h15.1l0,0L556.3,221.4L556.3,221.4z M570.9,232.2
		h15.1v157.2h-15.1V232.2L570.9,232.2z M600.5,403.5V255.3l0,0H616V283l0,0h49.4v92.7H616l0,0v46.1h-74.8v-18.4L600.5,403.5
		L600.5,403.5z"/>
</g>
</svg>
