<?xml version="1.0" encoding="utf-8"?>
<!-- Generator: Adobe Illustrator 26.0.2, SVG Export Plug-In . SVG Version: 6.00 Build 0)  -->
<svg version="1.1" id="Layer_1" xmlns="http://www.w3.org/2000/svg" xmlns:xlink="http://www.w3.org/1999/xlink" x="0px" y="0px"
	 viewBox="0 0 960 640" style="enable-background:new 0 0 960 640;" xml:space="preserve">
<style type="text/css">
	.st0{fill-rule:evenodd;clip-rule:evenodd;}
	.st1{fill-rule:evenodd;clip-rule:evenodd;fill:#FFFFFF;}
	.st2{fill-rule:evenodd;clip-rule:evenodd;fill:#BD002D;}
</style>
<g>
	<path class="st0" d="M265.7,378.8c-12,0-21.6,9.6-21.6,21.6c0,43.4,0,86.5,0,129.8c0,12,9.6,21.6,21.6,21.6
		c142.9,0,285.9,0,428.6,0c12,0,21.6-9.6,21.6-21.6c0-43.3,0-86.5,0-129.8c0-12-9.6-21.6-21.6-21.6
		C551.6,378.8,408.6,378.8,265.7,378.8L265.7,378.8z"/>
	<path class="st1" d="M265.7,389.6c-5.9,0-10.8,4.9-10.8,10.8c0,43.4,0,86.5,0,129.8c0,5.9,4.9,10.8,10.8,10.8
		c142.9,0,285.9,0,428.6,0c5.9,0,10.8-4.9,10.8-10.8c0-43.3,0-86.5,0-129.8c0-5.9-4.9-10.8-10.8-10.8
		C551.6,389.6,408.6,389.6,265.7,389.6L265.7,389.6z"/>
	<polygon class="st0" points="341.6,437.2 341.6,454.5 333.7,454.5 333.7,425 321.5,442.1 309.3,425 309.3,454.5 301.6,454.5 
		301.6,414.2 311.4,414.2 321.5,428.5 331.5,414.2 341.6,414.2 341.6,425.7 	"/>
	<path class="st0" d="M367.9,441.4v5.6l0,0c0,2.1-4.2,1.9-4.9,1.9s-5.2,0-5.2-3.5C357.8,441.6,363.2,441.4,367.9,441.4L367.9,441.4z
		 M375.4,446.8v-15.2l0,0c0-3.7-3.7-6.8-11.7-6.8c-6.3,0-10.5,2.8-12.2,3.7l0,0l3.3,5.6l0,0c2.6-1.6,7.7-2.8,9.8-2.8
		s3.3,1.6,3.3,2.6l0,0v1.6l0,0c-2.6,0-8.9,1.2-11.5,2.1c-2.3,0.7-6.3,2.3-6.3,8.2c0,5.6,5.9,9.4,11.7,9.4c5.2,0,6.8-2.8,6.8-2.8
		s2.6,3,7,3l0,0l3-5.9l0,0C375.1,448.9,375.4,447.7,375.4,446.8L375.4,446.8z"/>
	<polygon class="st0" points="407,454.5 410,454.5 400,439 408.9,425.7 400.4,425.7 395.8,432.7 391.1,425.7 382.6,425.7 391.3,439 
		381.5,454.5 389.9,454.5 395.8,445.6 401.4,454.5 404.2,454.5 	"/>
	<path class="st0" d="M422.9,495.3c0,1.9,0,3.7,0,5.9c0,2.3-2.1,5.9-6.3,5.9c-4.5,0-6.8-3.7-6.8-9.1s2.8-8.2,6.6-8.2
		C420.1,489.7,422.9,492,422.9,495.3L422.9,495.3z M422.9,485.4c0-4.5,0-8.9,0-13.6c2.3,0,4.9,0,7.5,0c0,13.4,0,26.7,0,40.3
		c-2.3,0-4.9,0-7.5,0c0-0.2,0-0.7,0-1.2c0,0-3,2.6-7.5,2.6c-4.5,0-13.4-4-13.4-15.7c0-12,9.4-15.2,12.9-15.2
		C418.5,482.6,419.9,483.6,422.9,485.4L422.9,485.4z"/>
	<path class="st0" d="M346.1,494.8h11.5l0,0c0-2.8-2.1-5.9-5.6-5.9C348.2,489,346.1,491.8,346.1,494.8L346.1,494.8z M346.1,500.4h19
		l0,0c0.2-3.5-1.2-18-13.4-18c-10.8,0-13.1,11.5-13.1,15.2s2.1,15.5,13.8,15.5c6.8,0,10.3-3.7,11.2-4.9l0,0l-4.7-4.5l0,0
		c0,0-2.1,2.8-6.3,2.8S346.1,503.3,346.1,500.4L346.1,500.4z"/>
	<path class="st0" d="M312.3,494.6v5.2l0,0c0,3,2.1,6.1,6.6,6.1c4.2,0,6.8-4.2,6.8-8.7c0-4.7-2.6-8.4-6.8-8.4
		C314.4,488.7,312.3,491.8,312.3,494.6L312.3,494.6z M312.3,484.5v-1.2h-7.5v37h7.5v-10.3l0,0c0,0,2.3,2.8,8,2.8
		c10.1,0,13.1-10.8,13.1-15.5c0-3.7-1.4-7.7-3.7-10.3c-2.1-2.6-5.2-4.9-9.8-4.9C317.3,482.2,314.2,483.1,312.3,484.5L312.3,484.5z"
		/>
	<path class="st0" d="M273.9,507.5l5.6-4.9l0,0c1.9,2.6,6.6,4.5,8.4,4.5c2.1,0,3.7-1.4,3.7-2.8c0-1.4-1.2-2.1-2.1-2.3
		c-0.9-0.5-4.9-1.4-5.6-1.4c-0.7-0.2-7.7-1.4-7.7-8.4c0.2-7.3,7.7-9.1,12.2-9.1c4.5,0,8.7,1.4,11.7,4.5l0,0l-4.7,4.9l0,0
		c-2.8-2.3-4.7-3.3-7-3.3c-2.1,0-4,0.9-4,2.6c0,1.9,1.4,2.1,1.9,2.3c0.7,0,5.6,1.2,6.8,1.4c1.2,0.2,6.8,1.9,6.8,8.7
		c0,6.6-6.3,9.4-12.2,9.4C281.9,513.3,275.8,510.1,273.9,507.5L273.9,507.5z"/>
	<path class="st0" d="M377.7,494.8h11.5l0,0c0-2.8-2.1-5.9-5.9-5.9C379.8,489,377.7,491.8,377.7,494.8L377.7,494.8z M377.7,500.4h19
		l0,0c0.2-3.5-1.2-18-13.4-18c-10.8,0-13.1,11.5-13.1,15.2s2.1,15.5,13.8,15.5c6.8,0,10.3-3.7,11.2-4.9l0,0l-4.7-4.5l0,0
		c0,0-2.1,2.8-6.3,2.8S377.7,503.3,377.7,500.4L377.7,500.4z"/>
	<path class="st0" d="M627.8,429c12.2,0,24.4,7,24.8,37c0.2,29.8-11,38.9-24.8,38.9l0,0c-13.8,0-25.3-9.1-24.8-38.9
		C603.4,436,615.6,429,627.8,429L627.8,429z M627.8,407.2c16.4,0,48.5,9.4,48.5,59.5s-30.2,60-48.5,60l0,0c-18.3,0-48.5-9.8-48.5-60
		S611.3,407.2,627.8,407.2L627.8,407.2z"/>
	<path class="st0" d="M538,464.1c0.9,0,13.4-5.4,13.4-23.2c0-18-16.2-33.7-42.6-33.7c-26.7,0-42.9,12.9-45,35.1l0,0l24.4,2.6l0,0
		c1.6-10.8,7.3-17.1,22-17.1c15,0,17.1,10.5,17.1,14.3c-0.2,10.1-6.3,14.1-25.8,14.1l0,0v19.2l0,0c5.9,0.5,17.3,0.2,20.6,2.3
		c6.6,4.5,6.6,7.7,6.6,11.7c0,2.6-0.2,16.2-17.6,16.2c-17.3,0-21.3-9.6-23-18.3l0,0l-24.4,4.5l0,0c2.8,19.4,16.6,35.2,46.9,35.2
		c30.5,0,42.9-20.4,42.9-36.3C553.5,474.9,543.9,465.3,538,464.1L538,464.1z"/>
	<polygon class="st1" points="394.1,348.1 338.8,348.1 479.9,103.2 620.7,348.1 	"/>
	<polygon class="st0" points="417.3,270.6 447.3,270.6 447.3,328.2 417.3,328.2 	"/>
	<polygon class="st0" points="480.1,204 490.4,232.1 508.7,225.6 517.8,206.3 498.6,197.4 	"/>
	
		<rect x="462.8" y="207.1" transform="matrix(0.9392 -0.3433 0.3433 0.9392 -47.4026 176.3483)" class="st0" width="23.2" height="29.9"/>
	<path class="st0" d="M458.3,212c-23.2,8.4-41,31.2-41,58.6c9.8,0,19.9,0,30,0c0.2-14.3,9.1-25.8,21.3-30.5
		C465.4,230.7,461.8,221.3,458.3,212L458.3,212z"/>
	<path class="st2" d="M616,365c7.3,0,14.3-4,17.8-10.3c3.7-6.6,3.7-14.5,0-20.9L497.7,98.5c-3.7-6.4-10.5-10.3-17.8-10.3
		c-7.3,0-14.2,3.9-17.8,10.3L326.2,333.8c-3.7,6.3-3.7,14.3,0,20.9c3.7,6.3,10.5,10.3,18,10.3C344.2,365,616,365,616,365z
		 M356.2,337.3h247.9l-124-214.4L356.2,337.3z"/>
</g>
</svg>
