<?xml version="1.0" encoding="utf-8"?>
<!-- Generator: Adobe Illustrator 26.0.2, SVG Export Plug-In . SVG Version: 6.00 Build 0)  -->
<svg version="1.1" id="Layer_1" xmlns="http://www.w3.org/2000/svg" xmlns:xlink="http://www.w3.org/1999/xlink" x="0px" y="0px"
	 viewBox="0 0 960 640" style="enable-background:new 0 0 960 640;" xml:space="preserve">
<style type="text/css">
	
		.st0{fill-rule:evenodd;clip-rule:evenodd;fill:#FFFFFF;stroke:#000000;stroke-width:6.2359;stroke-linejoin:round;stroke-miterlimit:10;}
	.st1{fill-rule:evenodd;clip-rule:evenodd;}
</style>
<g>
	<path class="st0" d="M314.7,485.2c91.5,91.5,239.6,91.5,330.7,0c91.5-91.1,91.5-239.2,0-330.7c-91.1-91.1-239.2-91.1-330.7,0
		C223.2,246,223.2,394.1,314.7,485.2L314.7,485.2z"/>
	<path class="st1" d="M683.3,204.4c-10.3-18.2-23-34.8-38-49.9c-15-15-31.3-27.3-49.9-38L276.6,435.7c10.7,18.2,23,34.8,38,49.5
		c15,15,31.3,27.7,49.9,38L683.3,204.4z"/>
</g>
</svg>
