<?xml version="1.0" encoding="utf-8"?>
<!-- Generator: Adobe Illustrator 26.0.2, SVG Export Plug-In . SVG Version: 6.00 Build 0)  -->
<svg version="1.1" id="Layer_1" xmlns="http://www.w3.org/2000/svg" xmlns:xlink="http://www.w3.org/1999/xlink" x="0px" y="0px"
	 viewBox="0 0 960 640" style="enable-background:new 0 0 960 640;" xml:space="preserve">
<style type="text/css">
	.st0{fill-rule:evenodd;clip-rule:evenodd;fill:#FFFFFF;stroke:#BD002D;stroke-width:4.6772;stroke-miterlimit:10;}
	.st1{fill-rule:evenodd;clip-rule:evenodd;fill:#BD002D;}
	.st2{fill-rule:evenodd;clip-rule:evenodd;fill:#FFFFFF;}
</style>
<g>
	<path class="st0" d="M480,131.3H145.2c-20.2,0-36.6,16.4-36.6,36.6v304.1c0,20.2,16.4,36.6,36.6,36.6h669.6
		c20.2,0,36.6-16.4,36.6-36.6V167.9c0-20.2-16.4-36.6-36.6-36.6H480L480,131.3z"/>
	<path class="st1" d="M480,149.5H145c-10.1,0-18.2,8.2-18.2,18.2v304.5c0,10.1,8.2,18.2,18.2,18.2h670c10.1,0,18.2-8.2,18.2-18.2
		V167.7c0-10.1-8.2-18.2-18.2-18.2H480L480,149.5z"/>
	<polygon class="st2" points="417,383.2 396,383.2 396,451.7 407.5,451.7 407.5,422 435.6,422 435.6,411.3 407.5,411.3 407.5,393.9 
		438.8,393.9 438.8,383.2 421.8,383.2 	"/>
	<path class="st2" d="M481.6,382c17.8,0,32.9,14.7,32.9,35.2s-14.3,36-32.9,36l0,0c-18.2,0-32.5-15.4-32.5-36S464.2,382,481.6,382
		L481.6,382z M481.6,393.1c13.9,0,20.6,13.5,20.6,24.6c0,10.7-6.7,24.9-20.6,24.9l0,0c-13.9,0-20.6-14.3-20.6-24.9
		C461,406.5,468.1,393.1,481.6,393.1L481.6,393.1z"/>
	<path class="st2" d="M555.2,393.5h-13.5v21h13.5l0,0c5.9,0,10.3-5.5,10.3-10.7C565.5,398.6,560.8,393.5,555.2,393.5L555.2,393.5z
		 M557.2,383.2h-27.7v68.5h12.3v-26.9h11.9l12.7,26.9h13.1l-14.3-28.9l0,0c4-2,12.7-7.5,12.7-19
		C577.8,392.3,567.9,383.2,557.2,383.2L557.2,383.2z"/>
	<path class="st2" d="M654.6,399.4l-11.1,4.8l0,0c-2.8-5.9-8.3-11.5-17-11.5c-10.7,0-20.2,9.9-20.2,24.2c0,14.3,7.5,25.7,20.2,25.7
		s16.2-10.7,17-11.5l0,0l10.7,4.8l0,0c-2.4,5.1-9.9,17.4-27.7,17.4c-17.8,0-32.5-13.1-32.5-35.6c0-24.2,16.6-35.6,31.7-35.6
		C640.8,382,649.9,390.7,654.6,399.4L654.6,399.4z"/>
	<polygon class="st2" points="692.3,383.2 671.3,383.2 671.3,451.7 715.6,451.7 715.6,441 682.8,441 682.8,422 711.3,422 
		711.3,411.3 682.8,411.3 682.8,393.9 714,393.9 714,383.2 706.9,383.2 	"/>
	<polygon class="st2" points="341,418.8 341,383.2 329.1,383.2 329.1,432.7 297,383.2 283.2,383.2 283.2,451.7 295.1,451.7 
		295.1,401.8 327.1,451.7 341,451.7 341,431.1 	"/>
	<polygon class="st2" points="247.5,383.2 259.4,383.2 259.4,451.7 247.5,451.7 	"/>
	<path class="st2" d="M462.6,296.4h-15.4v47.1h15.4l0,0c8.3,0,16.2-7.9,16.2-23C478.8,305.1,471.3,296.4,462.6,296.4L462.6,296.4z
		 M464.2,285.7h-28.9v68.1h28.9l0,0c13.9,0,26.1-13.5,26.5-33.7C490.7,299.6,478,285.7,464.2,285.7L464.2,285.7z"/>
	<path class="st2" d="M223.8,295.6l-9.1,6.7l0,0c-4-3.6-8.7-7.9-16.2-7.9c-7.9,0-13.1,4.4-13.1,9.5c0,6.7,5.1,8.3,15,9.9
		c7.1,1.2,12.3,2,17.4,5.9c4.8,3.6,7.1,8.7,7.1,14.7c0,6.3-4,21.4-25.7,21.4c-17.4,0-26.1-9.9-28.9-13.5l0,0l9.9-7.5l0,0
		c4.8,7.1,12.3,10.3,17.8,10.3c5.5,0,14.7-2,14.7-10.3c0-8.7-9.9-9.1-19.8-10.7c-9.5-2-19.8-6.7-19.8-19.8
		c0-13.5,13.1-19.8,25.3-19.8C210.3,284.6,218.6,288.5,223.8,295.6L223.8,295.6z"/>
	<path class="st2" d="M265.8,296h-11.1v23H267l0,0c5.9,0,10.7-5.5,10.7-11.5C277.6,301.2,273.3,296,265.8,296L265.8,296z
		 M270.1,328.9h-15.4v24.9h-11.9v-68.1h26.5l0,0c11.5,0,20.2,11.1,20.2,22.2C289.5,318.2,279.6,328.9,270.1,328.9L270.1,328.9z"/>
	<polygon class="st2" points="327.1,285.7 306.2,285.7 306.2,353.9 350.5,353.9 350.5,343.2 317.6,343.2 317.6,324.6 346.2,324.6 
		346.2,313.9 317.6,313.9 317.6,296.4 349.3,296.4 349.3,285.7 342.2,285.7 	"/>
	<polygon class="st2" points="391.7,285.7 370.7,285.7 370.7,353.9 415.1,353.9 415.1,343.2 382.2,343.2 382.2,324.6 410.7,324.6 
		410.7,313.9 382.2,313.9 382.2,296.4 413.9,296.4 413.9,285.7 406.3,285.7 	"/>
	<polygon class="st2" points="768.7,353.9 774.2,353.9 774.2,296.4 792.4,296.4 792.4,285.7 743.7,285.7 743.7,296.4 762,296.4 
		762,353.9 767.1,353.9 	"/>
	<polygon class="st2" points="552.5,309.9 552.5,285.7 540.6,285.7 540.6,353.9 579,353.9 579,343.2 552.5,343.2 552.5,318.2 	"/>
	<polygon class="st2" points="592.9,285.7 604.7,285.7 604.7,353.9 592.9,353.9 	"/>
	<polygon class="st2" points="694.2,328.5 694.2,353.9 682.4,353.9 682.4,302.8 661.4,329.7 640.4,302.8 640.4,353.9 628.5,353.9 
		628.5,285.7 642,285.7 661.4,311.1 680.8,285.7 694.2,285.7 694.2,302.8 	"/>
	<polygon class="st2" points="718,285.7 730.3,285.7 730.3,353.9 718,353.9 	"/>
	<polygon class="st2" points="272.1,188.3 251.1,188.3 251.1,256.4 295.5,256.4 295.5,245.7 262.6,245.7 262.6,227.1 291.1,227.1 
		291.1,216.4 262.6,216.4 262.6,199 293.9,199 293.9,188.3 286.8,188.3 	"/>
	<polygon class="st2" points="226.6,224 226.6,188.3 214.7,188.3 214.7,237.4 182.2,188.3 168.7,188.3 168.7,256.4 180.2,256.4 
		180.2,206.9 212.7,256.4 226.6,256.4 226.6,236.2 	"/>
	<polygon class="st2" points="349.7,188.3 344.6,188.3 333.5,235.8 321.6,188.3 309.3,188.3 325.2,256.4 339.4,256.4 351.7,205.4 
		363.6,256.4 377.4,256.4 394.1,188.3 381.4,188.3 369.9,235.8 358.4,188.3 352.9,188.3 	"/>
	<polygon class="st2" points="648.7,231.1 648.7,256.4 637.2,256.4 637.2,205.4 615.8,232.3 594.8,205.4 594.8,256.4 583.4,256.4 
		583.4,188.3 596.8,188.3 615.8,213.7 635.2,188.3 648.7,188.3 648.7,205.4 	"/>
	<polygon class="st2" points="766.3,214.9 778.6,214.9 778.6,188.3 790.1,188.3 790.1,256.4 778.6,256.4 778.6,225.2 747.7,225.2 
		747.7,256.4 736.2,256.4 736.2,188.3 747.7,188.3 747.7,214.9 759.2,214.9 	"/>
	<path class="st2" d="M696.2,198.6h-11.5v23H697l0,0c5.9,0,11.1-5.5,11.1-11.9C708.1,203.8,703.3,198.6,696.2,198.6L696.2,198.6z
		 M700.2,231.5h-15.4v24.9h-11.9v-68.1h26.9l0,0c11.1,0,20.2,11.1,20.2,22.2C720,220.8,710.1,231.5,700.2,231.5L700.2,231.5z"/>
	<path class="st2" d="M521.6,186.7c-15,0-27.3,12.7-27.3,35.2c0,23.8,12.7,35.6,27.3,35.6l0,0c14.3,0,26.9-11.9,26.9-35.6
		C548.5,199.4,536.2,186.7,521.6,186.7L521.6,186.7z M521.6,197.4c-7.5,0-15.4,6.7-15.4,24.6s7.5,24.6,15.4,24.6l0,0
		c7.5,0,15-6.7,15-24.6C536.6,204.2,528.7,197.4,521.6,197.4L521.6,197.4z"/>
	<path class="st2" d="M443.6,235.5l-12.3,2.4l0,0c0,9.1,9.1,19.4,26.1,19.4c16.2,0,23.4-10.3,23.4-21c0-11.5-7.9-14.7-7.9-14.7
		s7.1-3.2,7.1-13.1c0-9.5-4.8-21-23.4-21c-17.8,0-25.3,13.1-25.3,21l0,0l12.3,1.6l0,0c0-5.5,4-11.9,13.9-11.9
		c9.5,0,11.1,7.1,11.1,9.5c0,1.6,2,9.9-16.6,9.9l0,0v9.1l0,0c5.5,0,11.1,0,14.3,2.4c2.4,2.4,2.4,5.5,2.4,7.1
		c0,1.6-0.8,10.7-11.9,10.7C445.2,246.9,443.6,238.6,443.6,235.5L443.6,235.5z"/>
</g>
</svg>
