<?xml version="1.0" encoding="utf-8"?>
<!-- Generator: Adobe Illustrator 26.0.2, SVG Export Plug-In . SVG Version: 6.00 Build 0)  -->
<svg version="1.1" id="Layer_1" xmlns="http://www.w3.org/2000/svg" xmlns:xlink="http://www.w3.org/1999/xlink" x="0px" y="0px"
	 viewBox="0 0 960 640" style="enable-background:new 0 0 960 640;" xml:space="preserve">
<style type="text/css">
	.st0{fill-rule:evenodd;clip-rule:evenodd;fill:#BD002D;}
	.st1{fill-rule:evenodd;clip-rule:evenodd;fill:#FFFFFF;}
	.st2{fill-rule:evenodd;clip-rule:evenodd;}
</style>
<g>
	<path class="st0" d="M314.4,414.3c-13.7,0-25.1-11.1-25.1-25.1c0-4.9,0.9-8.6,3.4-12.8l0,0L458.2,90.2l0,0
		c4.3-8,12.8-12.8,21.7-12.8c9.1,0,17.4,4.9,22,12.8l0,0l165.5,286.2l0,0c2.3,4.3,3.4,8,3.4,12.8c0,14-11.4,25.1-25.4,25.1l0,0l0,0
		H314.4L314.4,414.3z"/>
	<polygon class="st1" points="630.8,380.6 329.2,380.6 480.1,119.6 	"/>
	<path class="st2" d="M486.7,274.5c-4.9-6.8-6.6-8.6-13.4-13.1c-0.6-0.6-1.4-0.3-1.4,0.6c0,2.3,0.3,4.6,0.3,6.8
		c0,6.8-0.6,10-3.1,16.3l0,0l-6.8,11.7l0,0c-0.3,0.6,0.6,1.7,1.4,1.1l0,0l18.8-12l4.3-9.4l0,0C487,275.6,487,275.1,486.7,274.5
		L486.7,274.5z M518.7,230c0.9,0,1.4,0.3,1.4,1.1l0,0l7.7,26.5l-2.9,1.7l-17.7-28l0,0c-0.6-0.6-0.3-2,0.9-2l0,0L518.7,230L518.7,230
		z M510.1,292.8c0,0,11.1,29.1,11.1,29.4c0.3,1.1,1.1,2,2,2.6l0,0l31.1,25.1l0,0c0.9,0.9,1.4,2,1.7,3.1c0,0.6,0,1.1,0,2
		c0,4.6-1.7,8.8-5.1,12c-0.3,0-0.6,0.6-0.6,1.1c0,0.6,0.6,1.4,1.4,1.4c1.4,0,2.9,0,4.3,0c3.4,0,6.8-2,8.6-5.1l0,0l10.6-18l0,0
		c0.3-0.3,0.3-0.6,0.3-1.1c0-0.9-0.6-1.7-1.4-2.3l0,0l-6.3-2.9L546.1,315l0,0c-0.9-0.9-2-1.4-3.1-1.4c-0.9,0-1.4,0.3-2,0.6
		c-1.4-1.7-2.3-3.1-2.6-5.1l0,0l-10.6-43.4l3.1-2h0.3l0,0c1.1,0.9,2.6,1.4,4.3,1.4c0.9,0,1.7,0,2.3-0.6c2-1.1,2.9-2,4.3-4
		c0.3-0.3,0.3-1.1,0.3-1.7c0,0,0,0,0-0.3c0-1.7-1.1-3.4-2.9-4.3c-1.7-1.1-2.9-2.9-2.9-5.1c-0.3-7.7-2-16-4.9-23.1
		c-1.4-3.1-3.4-5.4-6.6-7.1c-8.6-4-17.7-6-27.1-6c-1.1,0-2.6,0-4,0c-2.9,0-4.9,0.9-7.1,2.3l0,0l-10.6,7.1l0,0
		c-0.3,0.3-0.6,0.3-1.1,0.3c-1.1,0-2-0.9-2-2c0-0.6,0-0.9,0-1.4c0-6.8-3.7-13.1-9.7-16.3c-2.3-1.4-4-2-6.6-2c-2.3,0-3.4,0.3-5.4,1.4
		c-3.1,1.1-5.4,3.4-7.4,6c-1.4,2-2,4.3-2,6.8c0,6.6,5.4,12.8,11.7,15.1l0,0l6.8,1.1l0,0c1.4,0,2.3,0.9,2.3,2.3
		c0,0.6-0.3,1.1-0.9,1.7l0,0l-7.1,7.1l0,0c-0.6,0.9-0.9,1.1-0.9,2.3c0-0.3,0,2,0,2c0,8,1.1,16.5,3.4,24.3c0,1.1,0.3,2,0.3,2.9
		c0,1.4-0.3,2.6-0.9,4l0,0l-9.7,24l0,0c-0.6,0.9-0.9,2-0.9,2.9c0,1.1,0.3,2.3,0.9,3.1l0,0l-12,7.7l0,0c-0.6-2-1.4-3.1-3.1-4.3l0,0
		l-1.7-0.9l-7.4-2.3l0,0c-1.7-0.6-3.1-1.7-4-3.1l0,0l-5.4-9.1l0,0c-0.3,0-0.3-0.3-0.6-0.6l0,0l-4.3-1.4l-8.6-1.1l0,0
		c0,0-0.3,0-0.6,0c-2.9,0-5.4,1.4-6.8,4l0,0l-41.9,72.8l0,0c32.2,0,64.5,0,97,0c0.9,0,1.7-0.9,1.7-1.7c0,0,0-0.3-12.6-45.1l0,0
		l13.4-8.6l0,0c0.9,0.6,1.4,0.6,2.3,0.6c0.9,0,1.4,0,2-0.3l0,0l6-2.9l0,0c1.4-0.9,2.3-2,2.3-3.7c0-0.6,0-0.9-0.3-1.4l0,0l16-9.7
		l-2.3,5.7l0,0c-2,5.1-3.1,10.6-3.4,16l0,0l-2,38.2l-0.3,3.7l0,0c-0.3,0.3-0.3,0.6-0.6,0.6l0,0l-12.3,3.4l0,0c-1.1,0.3-2,1.4-2,2.6
		c0,1.4,1.4,2.6,2.6,2.6c9.4,0,18.8,0,28.2,0c1.7,0,2.9-1.4,3.1-2.9c1.7-13.7,3.4-27.4,5.4-41.4c0-0.3,0-0.6-0.3-0.9l0,0l-0.6-0.3
		l0,0c-0.6,0-1.1-0.6-1.1-1.4l0,0l0,0c0-1.1,0-2.3,0-3.7c0-0.9,0.3-1.4,0.6-2c9.1-10.6,9.4-11.4,14.8-24c0-0.3,0.3-0.6,0.6-0.6
		C509.8,292.5,510.1,292.8,510.1,292.8L510.1,292.8z"/>
	<path class="st2" d="M479.9,431.1h-74.3c-14.6,0-26.4,11.8-26.4,26.4v78.7c0,14.6,11.8,26.4,26.4,26.4h148.7
		c14.6,0,26.4-11.8,26.4-26.4v-78.7c0-14.6-11.8-26.4-26.4-26.4H479.9L479.9,431.1z"/>
	<path class="st1" d="M480,444.3h-74.3c-7.3,0-13.1,5.9-13.1,13.1v79c0,7.3,5.9,13.1,13.1,13.1h148.7c7.3,0,13.1-5.9,13.1-13.1v-79
		c0-7.3-5.9-13.1-13.1-13.1H480L480,444.3z"/>
	<polygon class="st2" points="438.8,469.7 422.8,469.7 422.8,518.7 455.9,518.7 455.9,509.6 432.2,509.6 432.2,498.8 452.2,498.8 
		452.2,489.6 432.2,489.6 432.2,478.8 454.5,478.8 454.5,469.7 446.2,469.7 	"/>
	<path class="st2" d="M498.1,495.9V519H489v-22.3l0,0c0-2.6-2-5.1-6-5.1c-3.7,0-7.4,3.4-7.4,8l0,0V519h-9.1v-35.4h9.1v2.6l0,0
		c0,0,3.7-3.4,8.8-3.4C492.7,482.8,498.1,489.6,498.1,495.9L498.1,495.9z"/>
	<path class="st2" d="M531.2,498.2c0,2,0,4.3,0,6.6c0,0.9-0.6,1.7-0.9,2.6c-0.3,0.6-0.9,1.4-1.7,2c-1.1,1.1-2.6,2-5.1,2
		c-5.4,0-8-3.4-8-10.3c0-6.6,3.4-10.3,8-10.3S531.2,493.9,531.2,498.2L531.2,498.2z M531.2,485.4c0-5.1,0-10.3,0-15.7
		c3.1,0,6.3,0,9.4,0c0,16.3,0,32.5,0,49.1c-3.1,0-6.3,0-9.4,0c0-0.6,0-1.4,0-2.3c0,0-1.1,1.4-3.4,2.3c-1.4,0.9-3.7,1.1-6,1.1
		c-2.6,0-6.3-0.9-9.4-3.1c-3.7-2.6-6.6-7.7-6.6-15.7c0-6.8,1.7-11.1,4.6-14c3.4-3.4,8.6-4.9,10.6-4.9
		C525.2,482.2,527.5,483.1,531.2,485.4L531.2,485.4z"/>
</g>
</svg>
