<?xml version="1.0" encoding="utf-8"?>
<!-- Generator: Adobe Illustrator 26.0.2, SVG Export Plug-In . SVG Version: 6.00 Build 0)  -->
<svg version="1.1" id="Layer_1" xmlns="http://www.w3.org/2000/svg" xmlns:xlink="http://www.w3.org/1999/xlink" x="0px" y="0px"
	 viewBox="0 0 960 640" style="enable-background:new 0 0 960 640;" xml:space="preserve">
<style type="text/css">
	
		.st0{fill-rule:evenodd;clip-rule:evenodd;fill:#FFFFFF;stroke:#006FB6;stroke-width:3.2123;stroke-linecap:round;stroke-linejoin:round;stroke-miterlimit:10;}
	.st1{fill-rule:evenodd;clip-rule:evenodd;fill:#006FB6;}
	.st2{fill-rule:evenodd;clip-rule:evenodd;fill:#FFFFFF;}
	.st3{fill-rule:evenodd;clip-rule:evenodd;}
</style>
<g>
	<path class="st0" d="M370.8,88.7c-14.3,0-25.7,11.4-25.7,25.7c0,132.8,0,278.5,0,411.2c0,14.1,11.4,25.7,25.7,25.7
		c72.8,0,145.7,0,218.5,0c14.1,0,25.7-11.6,25.7-25.7c0-132.8,0-278.5,0-411.2c0-14.3-11.6-25.7-25.7-25.7
		C516.4,88.7,443.6,88.7,370.8,88.7L370.8,88.7z"/>
	<path class="st1" d="M370.8,101.5c-7.1,0-12.9,5.7-12.9,12.9c0,132.8,0,278.5,0,411.2c0,7.1,5.7,12.9,12.9,12.9
		c72.8,0,145.7,0,218.5,0c7.1,0,12.9-5.7,12.9-12.9c0-132.8,0-278.5,0-411.2c0-7.1-5.7-12.9-12.9-12.9
		C516.4,101.5,443.6,101.5,370.8,101.5L370.8,101.5z"/>
	<path class="st2" d="M480,127.2h-86.7c-3.6,0-6.4,2.9-6.4,6.4V275c0,3.5,2.9,6.4,6.4,6.4h173.4c3.5,0,6.4-2.9,6.4-6.4V133.7
		c0-3.5-2.9-6.4-6.4-6.4H480L480,127.2z"/>
	<path class="st3" d="M449.9,140.1h-34.2c-8.8,0-16,7.2-16,16v96.5c0,8.8,7.2,16,16,16h68.3c8.8,0,16-7.2,16-16v-96.5
		c0-8.8-7.2-16-16-16H449.9L449.9,140.1z M439.7,202.3L439.7,202.3c14.4,0,26.1,11.7,26.1,26.1c0,14.4-11.7,26.1-26.1,26.1
		c-14.4,0-26.1-11.7-26.1-26.1C413.6,214,425.3,202.3,439.7,202.3L439.7,202.3z M439.7,210L439.7,210c10.1,0,18.4,8.2,18.4,18.4
		c0,10.1-8.2,18.4-18.4,18.4c-10.1,0-18.4-8.2-18.4-18.4C421.4,218.3,429.6,210,439.7,210L439.7,210z M471.7,148.8L471.7,148.8
		c8.4,0,15.3,6.9,15.3,15.3c0,8.4-6.9,15.3-15.3,15.3c-8.4,0-15.3-6.9-15.3-15.3C456.4,155.7,463.3,148.8,471.7,148.8L471.7,148.8z
		 M471.9,156.2L471.9,156.2c4.4,0,8,3.6,8,8s-3.6,8-8,8c-4.4,0-8-3.6-8-8C464,159.8,467.6,156.2,471.9,156.2L471.9,156.2z
		 M512.9,161.5h-6.5l0,0v73l0,0h6.5l0,0V161.5L512.9,161.5z M519.3,166.2h6.5v68.3h-6.5V166.2L519.3,166.2z M532.1,240.4v-64.3l0,0
		h6.7v12l0,0h21.4v40.2h-21.4l0,0v20h-32.4v-8L532.1,240.4L532.1,240.4z"/>
	<path class="st3" d="M563.7,368.8c-4.3-7.5-9.4-14.3-15.7-20.6c-6.1-6.1-12.9-11.2-20.4-15.5L396.3,464c4.3,7.5,9.4,14.3,15.5,20.4
		c6.3,6.3,13.1,11.4,20.6,15.7L563.7,368.8z"/>
	<path class="st2" d="M432.4,500.1c36.7,21,84.5,15.7,115.7-15.7c31.4-31.2,36.7-79,15.7-115.7C519.9,412.6,476.2,456.3,432.4,500.1
		L432.4,500.1z"/>
	<path class="st2" d="M527.6,332.4c-36.7-20.8-84.5-15.7-115.9,15.7c-31.4,31.4-36.5,79.1-15.7,115.9
		C439.9,420.2,483.8,376.3,527.6,332.4L527.6,332.4z"/>
</g>
</svg>
