<?xml version="1.0" encoding="utf-8"?>
<!-- Generator: Adobe Illustrator 26.0.2, SVG Export Plug-In . SVG Version: 6.00 Build 0)  -->
<svg version="1.1" id="Layer_1" xmlns="http://www.w3.org/2000/svg" xmlns:xlink="http://www.w3.org/1999/xlink" x="0px" y="0px"
	 viewBox="0 0 960 640" style="enable-background:new 0 0 960 640;" xml:space="preserve">
<style type="text/css">
	
		.st0{fill-rule:evenodd;clip-rule:evenodd;fill:#FFFFFF;stroke:#006FB6;stroke-width:3.3928;stroke-linecap:round;stroke-linejoin:round;stroke-miterlimit:10;}
	.st1{fill-rule:evenodd;clip-rule:evenodd;fill:#006FB6;}
	.st2{fill-rule:evenodd;clip-rule:evenodd;fill:#FFFFFF;}
	.st3{fill-rule:evenodd;clip-rule:evenodd;}
	.st4{fill-rule:evenodd;clip-rule:evenodd;fill:#BD002D;}
</style>
<g>
	<path class="st0" d="M364.6,75.7c-14.9,0-27.1,12.1-27.1,27.1c0,140.3,0,294.1,0,434.4c0,14.9,12.3,27.1,27.1,27.1
		c76.9,0,153.8,0,230.8,0c15.1,0,27.1-12.3,27.1-27.1c0-140.3,0-294.1,0-434.4c0-15.1-12.1-27.1-27.1-27.1
		C518.5,75.7,441.5,75.7,364.6,75.7L364.6,75.7z"/>
	<path class="st1" d="M364.6,89.2c-7.5,0-13.6,6-13.6,13.6c0,140.3,0,294.1,0,434.4c0,7.5,6,13.6,13.6,13.6c76.9,0,153.8,0,230.8,0
		c7.5,0,13.6-6,13.6-13.6c0-140.3,0-294.1,0-434.4c0-7.5-6-13.6-13.6-13.6C518.5,89.2,441.5,89.2,364.6,89.2L364.6,89.2z"/>
	<path class="st2" d="M480,112.3h-91.6c-3.7,0-6.8,3-6.8,6.8v149.3c0,3.8,3,6.8,6.8,6.8h183.1c3.7,0,6.8-3,6.8-6.8V119.1
		c0-3.7-3-6.8-6.8-6.8H480L480,112.3z"/>
	<path class="st3" d="M448.2,125.9h-36.1c-9.3,0-16.9,7.6-16.9,16.9v101.9c0,9.3,7.6,16.9,16.9,16.9h72.2c9.3,0,16.9-7.6,16.9-16.9
		V142.8c0-9.3-7.6-16.9-16.9-16.9H448.2L448.2,125.9z M437.7,191.6L437.7,191.6c15.2,0,27.6,12.4,27.6,27.6
		c0,15.2-12.4,27.6-27.6,27.6c-15.2,0-27.6-12.4-27.6-27.6C410.1,203.9,422.4,191.6,437.7,191.6L437.7,191.6z M437.4,199.8
		L437.4,199.8c10.7,0,19.4,8.7,19.4,19.4c0,10.7-8.7,19.4-19.4,19.4c-10.7,0-19.4-8.7-19.4-19.4
		C418.1,208.5,426.7,199.8,437.4,199.8L437.4,199.8z M471.5,135.1L471.5,135.1c8.9,0,16.2,7.2,16.2,16.2c0,8.9-7.2,16.2-16.2,16.2
		c-8.9,0-16.2-7.2-16.2-16.2C455.3,142.4,462.6,135.1,471.5,135.1L471.5,135.1z M471.5,142.9L471.5,142.9c4.6,0,8.4,3.8,8.4,8.4
		s-3.8,8.4-8.4,8.4s-8.4-3.8-8.4-8.4C463.1,146.7,466.9,142.9,471.5,142.9L471.5,142.9z M514.8,148.5h-6.9l0,0v77.1l0,0h6.9l0,0
		V148.5L514.8,148.5z M521.5,153.5h6.9v72.2h-6.9V153.5L521.5,153.5z M535,231.9V164l0,0h7.1v12.7l0,0h22.6v42.4h-22.6l0,0v21.3
		h-34.3v-8.6H535L535,231.9z"/>
	<path class="st2" d="M479.4,316c58.4,0,105.8,47.4,105.8,105.8c0,58.4-47.4,105.8-105.8,105.8s-105.8-47.4-105.8-105.8
		S421,316,479.4,316"/>
	<path class="st4" d="M480.1,320.1c56.1,0,101.7,45.6,101.7,101.7c0,56.1-45.6,101.7-101.7,101.7s-101.7-45.6-101.7-101.7
		C378.4,365.6,424,320.1,480.1,320.1"/>
	<path class="st2" d="M479.4,340.3c44.8,0,81.2,36.5,81.2,81.4s-36.4,81.4-81.2,81.4s-81.2-36.5-81.2-81.4S434.6,340.3,479.4,340.3"
		/>
	<path class="st3" d="M518.9,397.4c8.2,0,16.2,4.5,16.4,24.3c0.2,19.8-7.1,25.9-16.4,25.9l0,0c-9.1,0-16.6-6-16.2-25.9
		C502.9,401.9,510.9,397.4,518.9,397.4L518.9,397.4z M518.9,383.1c11-0.2,32.1,6,32.1,39.2c0,33-20,39.4-32.1,39.4l0,0
		c-11.9,0-31.9-6.5-31.9-39.4C487,389.2,508.1,382.9,518.9,383.1L518.9,383.1z"/>
	<path class="st3" d="M459.9,420.4c0.6,0,8.8-3.4,8.8-15.3s-10.6-22.2-28-22.2s-28,8.6-29.3,23.1l0,0l15.7,1.7l0,0
		c1.3-6.9,5-11.2,14.7-11.2c9.9,0,11.2,6.9,11.2,9.5c-0.2,6.7-4.1,9.3-16.8,9.3l0,0v12.5l0,0c3.7,0.4,11.2,0.2,13.4,1.7
		c4.3,2.8,4.3,5,4.3,7.5c0,1.7-0.2,10.6-11.6,10.6c-11.2,0-13.8-6-15.1-11.9l0,0l-15.7,2.8l0,0c1.7,12.9,10.8,23.1,30.6,23.1
		s28.2-13.4,28.2-23.7C470.2,427.5,463.7,421.3,459.9,420.4L459.9,420.4z"/>
</g>
</svg>
