<?xml version="1.0" encoding="utf-8"?>
<!-- Generator: Adobe Illustrator 26.0.2, SVG Export Plug-In . SVG Version: 6.00 Build 0)  -->
<svg version="1.1" id="Layer_1" xmlns="http://www.w3.org/2000/svg" xmlns:xlink="http://www.w3.org/1999/xlink" x="0px" y="0px"
	 viewBox="0 0 960 640" style="enable-background:new 0 0 960 640;" xml:space="preserve">
<style type="text/css">
	.st0{fill-rule:evenodd;clip-rule:evenodd;fill:#006FB6;}
	.st1{fill-rule:evenodd;clip-rule:evenodd;fill:#FFFFFF;}
	.st2{fill-rule:evenodd;clip-rule:evenodd;}
	.st3{fill:none;stroke:#0070B7;stroke-width:2.934;stroke-linecap:round;stroke-linejoin:round;stroke-miterlimit:10;}
</style>
<g>
	<polygon class="st0" points="327.2,122.5 327.2,122.5 327.2,121.2 327.3,119.9 327.5,118.6 327.8,117.3 328.1,116 328.5,114.7 
		329,113.5 329.5,112.3 330.1,111.1 330.7,110 331.5,108.9 332.3,107.8 333.1,106.8 334,105.8 334.9,104.9 335.9,104 337,103.2 
		338,102.4 339.2,101.8 340.3,101.1 341.5,100.6 342.8,100.1 344,99.6 345.3,99.3 346.6,99 347.9,98.8 349.2,98.6 350.5,98.6 
		351.2,98.6 608.9,98.6 610.2,98.6 611.5,98.7 612.8,98.9 614.1,99.1 615.4,99.5 616.6,99.8 617.9,100.3 619.1,100.8 620.3,101.4 
		621.4,102.1 622.5,102.8 623.6,103.6 624.6,104.4 625.6,105.3 626.5,106.3 627.3,107.3 628.1,108.3 628.9,109.4 629.6,110.5 
		630.2,111.7 630.8,112.9 631.3,114.1 631.7,115.4 632.1,116.6 632.4,117.9 632.6,119.2 632.7,120.5 632.8,121.8 632.8,122.5 
		632.8,517.5 632.8,518.8 632.7,520.1 632.5,521.5 632.2,522.8 631.9,524 631.5,525.3 631,526.5 630.5,527.7 629.9,528.9 
		629.3,530.1 628.5,531.2 627.7,532.2 626.9,533.2 626,534.2 625.1,535.1 624.1,536 623,536.8 622,537.6 620.8,538.3 619.7,538.9 
		618.5,539.4 617.3,539.9 616,540.4 614.7,540.7 613.4,541 612.1,541.2 610.8,541.4 609.5,541.5 608.9,541.5 351.2,541.5 
		349.8,541.4 348.5,541.3 347.2,541.1 345.9,540.9 344.6,540.6 343.4,540.2 342.1,539.7 340.9,539.2 339.7,538.6 338.6,537.9 
		337.5,537.2 336.4,536.4 335.4,535.6 334.5,534.7 333.5,533.7 332.7,532.7 331.9,531.7 331.1,530.6 330.4,529.5 329.8,528.3 
		329.2,527.1 328.7,525.9 328.3,524.7 327.9,523.4 327.6,522.1 327.4,520.8 327.3,519.5 327.2,518.2 327.2,517.5 	"/>
	<polygon class="st1" points="375.1,178.4 361.9,133.7 369.6,133.7 379.8,168.3 390,133.7 397.7,133.7 384.5,178.4 	"/>
	<path class="st1" d="M406.7,159.3L406.7,159.3l2.6-0.4l2.6-0.3l2.6-0.3l2.1-0.2v-0.1v-2.5l-0.1-0.7l-0.2-0.6l-0.2-0.5l-0.2-0.3
		l-0.2-0.2l-0.6-0.4l-0.6-0.4l-0.7-0.3l-0.7-0.2l-0.7-0.1l-0.7,0l-1.4,0.1l-1.4,0.2l-1.4,0.2l-1.3,0.3l-1.3,0.4l-1.3,0.4l-1.3,0.5
		l-0.8,0.4l-2.6-5.6l1.4-0.6l1.4-0.5l1.4-0.5l1.5-0.4l1.5-0.4l1.5-0.3l1.5-0.2l1.1-0.1l1.3-0.1l1.3,0l1.3,0.1l1.3,0.2l1.2,0.2
		l0.9,0.3l0.9,0.4l0.8,0.5l0.8,0.6l0.7,0.6l0.6,0.7l0.6,0.8l0.5,0.8l0.4,0.9l0.3,0.9l0.3,0.9l0.2,0.9l0.1,0.8v16l0.1,0.5l0.2,0.4
		l0.2,0.4l0.3,0.3l0.2,0.2l0.8,0.5l0.8,0.4l0.4,0.2l-3.5,5.4l-0.9-0.3l-0.9-0.3l-0.8-0.4l-0.8-0.5l-0.7-0.6l-0.7-0.6l-0.5-0.6
		l-0.8,0.6l-0.9,0.6l-0.9,0.5l-1,0.4l-1,0.3l-1,0.2l-1,0.2l-1,0.1l-1.1,0l-1-0.1l-1-0.2l-1-0.3l-1-0.3l-1-0.4l-0.9-0.5l-0.9-0.6
		l-0.8-0.6l-0.7-0.6l-0.6-0.7l-0.6-0.7l-0.5-0.8l-0.4-0.8l-0.3-0.9l-0.2-0.9l-0.2-0.9l-0.1-0.9l0-0.9l0.1-0.9l0.2-0.9l0.3-0.9
		l0.4-0.8l0.5-0.8l0.5-0.8l0.4-0.5l0.7-0.7l0.8-0.6l0.8-0.5l0.9-0.5l0.9-0.4l1-0.3l1-0.2L406.7,159.3L406.7,159.3z M415,172.1
		L415,172.1l0.5-0.4l0.4-0.5l0.3-0.5l0.2-0.6l0.1-0.2v-6l-1.6,0.1l-1.6,0.1l-1.6,0.2l-1.5,0.2l-0.7,0.1l-1.5,0.3l-0.6,0.2l-0.6,0.3
		l-0.6,0.4l-0.5,0.4l-0.4,0.5l-0.3,0.6l-0.1,0.1l-0.2,0.6l-0.1,0.6l0,0.7l0,0.7l0.1,0.6l0,0.1l0.3,0.5l0.4,0.5l0.4,0.4l0.3,0.2
		l0.7,0.4l0.7,0.4l0.8,0.3l0.8,0.2l0.8,0.1l0.8,0l0.8-0.1h0l0.8-0.2l0.8-0.3l0.8-0.4L415,172.1L415,172.1L415,172.1z"/>
	<polygon class="st1" points="448,153.6 448,153.6 447.3,153.8 446.5,154.1 445.8,154.5 445.2,155 444.6,155.6 444,156.2 
		443.6,156.9 443.2,157.6 442.9,158.3 442.7,159.1 442.6,159.9 442.6,159.9 442.6,161.1 442.6,163.4 442.6,178.4 435.6,178.4 
		435.6,146.5 442.6,146.5 442.6,149.8 443.2,149.1 443.9,148.4 444.6,147.9 445.4,147.3 446.2,146.9 447.1,146.5 448,146.3 
		448.7,146.1 449.9,145.9 451,145.8 452.2,145.8 452.4,145.8 452.4,153.1 451.2,153.1 450.1,153.2 448.9,153.4 	"/>
	<path class="st1" d="M460.5,146.5v31.9h7v-31.9H460.5L460.5,146.5z M468.2,137.9L468.2,137.9l0-0.6l-0.1-0.6l-0.2-0.6l-0.3-0.6
		l-0.4-0.5l-0.5-0.4l-0.5-0.4l-0.6-0.3l-0.6-0.2l-0.6-0.1h-0.6l-0.6,0.1l-0.6,0.2l-0.6,0.3l-0.5,0.4l-0.5,0.4l-0.4,0.5l-0.3,0.6
		l-0.2,0.6l-0.1,0.6l0,0.6l0,0.6l0.1,0.6l0.2,0.6l0.3,0.6l0.4,0.5l0.5,0.4l0.5,0.4l0.6,0.3l0.6,0.2l0.6,0.1h0.6l0.6-0.1l0.6-0.2
		l0.6-0.3l0.5-0.4l0.5-0.4l0.4-0.5l0.3-0.6l0.2-0.6l0.1-0.6L468.2,137.9L468.2,137.9z"/>
	<path class="st1" d="M484.9,159.3L484.9,159.3l2.6-0.4l2.6-0.3l2.6-0.3l2.1-0.2v-0.1v-2.5l-0.1-0.7l-0.2-0.6l-0.2-0.5l-0.2-0.3
		l-0.2-0.2l-0.6-0.4l-0.6-0.4l-0.7-0.3l-0.7-0.2l-0.7-0.1l-0.7,0l-1.4,0.1l-1.4,0.2l-1.4,0.2l-1.3,0.3l-1.3,0.4l-1.3,0.4l-1.3,0.5
		l-0.8,0.4l-2.6-5.6l1.4-0.6l1.4-0.5l1.4-0.5l1.5-0.4l1.5-0.4l1.5-0.3l1.5-0.2l1.1-0.1l1.3-0.1l1.3,0l1.3,0.1l1.3,0.2l1.2,0.2
		l0.9,0.3l0.9,0.4l0.8,0.5l0.8,0.6l0.7,0.6l0.6,0.7l0.6,0.8l0.5,0.8l0.4,0.9l0.3,0.9l0.3,0.9l0.2,0.9l0.1,0.8v16l0.1,0.5l0.2,0.4
		l0.2,0.4l0.3,0.3l0.2,0.2l0.8,0.5l0.8,0.4l0.4,0.2l-3.5,5.4l-0.9-0.3l-0.9-0.3l-0.8-0.4l-0.8-0.5l-0.7-0.6l-0.7-0.6l-0.5-0.6
		l-0.8,0.6l-0.9,0.6l-0.9,0.5l-1,0.4l-1,0.3l-1,0.2l-1,0.2l-1,0.1l-1.1,0l-1-0.1l-1-0.2l-1-0.3l-1-0.3l-1-0.4l-0.9-0.5l-0.9-0.6
		l-0.8-0.6l-0.7-0.6l-0.6-0.7l-0.6-0.7l-0.5-0.8l-0.4-0.8l-0.3-0.9l-0.2-0.9l-0.2-0.9l-0.1-0.9l0-0.9l0.1-0.9l0.2-0.9l0.3-0.9
		l0.4-0.8l0.5-0.8l0.5-0.8l0.4-0.5l0.7-0.7l0.8-0.6l0.8-0.5l0.9-0.5l0.9-0.4l1-0.3l1-0.2L484.9,159.3L484.9,159.3z M493.3,172.1
		L493.3,172.1l0.5-0.4l0.4-0.5l0.3-0.5l0.2-0.6l0.1-0.2v-6l-1.6,0.1l-1.6,0.1l-1.6,0.2l-1.5,0.2l-0.7,0.1l-1.5,0.3l-0.6,0.2
		l-0.6,0.3l-0.6,0.4l-0.5,0.4l-0.4,0.5l-0.3,0.6l-0.1,0.1l-0.2,0.6l-0.1,0.6l0,0.7l0,0.7l0.1,0.6l0,0.1l0.3,0.5l0.4,0.5l0.4,0.4
		l0.3,0.2l0.7,0.4l0.7,0.4l0.8,0.3l0.8,0.2l0.8,0.1l0.8,0l0.8-0.1h0l0.8-0.2l0.8-0.3l0.8-0.4L493.3,172.1L493.3,172.1L493.3,172.1z"
		/>
	<path class="st1" d="M536.4,148.1L536.4,148.1l-0.9-0.6l-1-0.5l-1-0.4l-1-0.4l-1.1-0.3l-1.1-0.2l-0.5-0.1l-1-0.1l-1,0l-1,0.1
		l-1,0.2l-1,0.3l-0.9,0.4l-0.9,0.4l-0.9,0.5l-0.8,0.6l-0.3,0.2l-0.5,0.5l-0.1,0.1v-15.1h-7v44.7h7v-2.5l0.5,0.5l0.8,0.6l0.9,0.5
		l0.9,0.5l1,0.4l1,0.3l1,0.2l1,0.1l1,0l1,0l1-0.1l1-0.2l0.6-0.2l1-0.4l1-0.4l1-0.5l0.9-0.6l0.9-0.6l0.8-0.7l0.8-0.8l0.7-0.8l0.6-0.9
		l0.6-0.9l0.5-1l0.4-1l0.3-1l0.1-0.3l0.3-1.3l0.3-1.3l0.2-1.3l0.1-1.3l0-1.3l0-1.3l-0.1-1.3l-0.2-1.3l-0.3-1.3l-0.1-0.5l-0.3-1.1
		l-0.4-1l-0.5-1l-0.5-1l-0.6-0.9l-0.1-0.1l-0.6-0.8l-0.7-0.8l-0.8-0.7l-0.8-0.7L536.4,148.1L536.4,148.1z M533.2,169.5L533.2,169.5
		l0.6-0.8l0.5-0.9l0.5-0.9l0.4-0.9l0.3-1l0.2-1l0.1-1l0-1l-0.1-1l-0.1-1l-0.2-1l-0.3-1l-0.4-0.9l-0.5-0.9l-0.6-0.8l-0.4-0.5
		l-0.6-0.6l-0.7-0.5l-0.7-0.4l-0.8-0.4l-0.8-0.3l-0.8-0.2l-0.8-0.1l-0.8,0l-0.8,0.1l-0.8,0.2l-0.8,0.3l-0.7,0.4l-0.7,0.4l-0.2,0.2
		l-0.6,0.5l-0.5,0.5l-0.4,0.6l-0.3,0.7l-0.3,0.7l-0.2,0.7l-0.1,0.7v3.7v3.7l0.1,0.7l0.2,0.7l0.3,0.7l0.4,0.7l0.4,0.6l0.5,0.5
		l0.6,0.5l0.7,0.5l0.7,0.4l0.8,0.3l0.8,0.2l0.8,0.1l0.8,0l0.8-0.1l0.8-0.1l0.8-0.2l0.8-0.3l0.7-0.4l0.7-0.5l0.6-0.6L533.2,169.5
		L533.2,169.5z"/>
	<polygon class="st1" points="564.2,172.1 564.2,172.1 563.1,172.3 562,172.4 560.9,172.4 560,172.4 559.6,172.4 559.1,172.2 
		558.7,172 558.3,171.7 558,171.3 557.8,170.9 557.7,170.6 557.6,169.8 557.5,169.1 557.5,133.7 550.5,133.7 550.5,172.7 
		550.6,173.5 550.8,174.3 551.1,175 551.5,175.7 551.9,176.4 552.5,177 553.1,177.5 553.7,177.9 554.4,178.3 555.2,178.6 
		555.9,178.8 556.2,178.8 557.4,179 558.7,179 560,179.1 561.3,179 562.6,178.9 563.9,178.6 565,178.4 	"/>
	<path class="st1" d="M571.4,172.6L571.4,172.6l0.6,0.9l0.7,0.9l0.7,0.8l0.6,0.6l0.9,0.7l1,0.6l1,0.6l1,0.5l1.1,0.4l0.4,0.1l1.1,0.3
		l1.1,0.2l1.2,0.1l1.2,0l1.2,0l1.2-0.1l1.1-0.2l1.1-0.3l1.1-0.4l1.1-0.4l0.4-0.2l1.1-0.5l1.1-0.6l0.4-0.3l0.9-0.6l0.8-0.7l0.4-0.3
		l-4.4-5.2l-0.7,0.6l-0.8,0.6l-0.8,0.5l-0.8,0.4l-0.9,0.3l-0.9,0.3l-0.9,0.2l-0.9,0.1h-0.1l-1,0l-1-0.1l-0.6-0.1l-0.8-0.2l-0.8-0.3
		l-0.7-0.4l-0.7-0.4l-0.6-0.5l-0.6-0.6l-0.5-0.6l-0.4-0.7l-0.3-0.7l-0.3-0.8l-0.2-0.8l-0.1-0.8l0-0.5h21.5l0-1.5l-0.1-1.5l-0.1-1.5
		l-0.2-1.5l-0.3-1.5l-0.2-0.8l-0.2-1l-0.3-1l-0.4-0.9l-0.5-0.9l0,0l-0.6-0.9l-0.6-0.9l-0.7-0.8l-0.7-0.8l-0.8-0.7l-0.9-0.6l-0.9-0.6
		l-0.9-0.5l-1-0.4l-1-0.4l-1-0.3l-1.1-0.2l-1.1-0.1l-1.1,0l-1.1,0l-1.1,0.1l-1.1,0.2l-1,0.3l-1,0.4l-1,0.4l-0.7,0.4l-0.9,0.5
		l-0.8,0.6l-0.8,0.7l-0.7,0.7l-0.5,0.6l-0.7,1l-0.6,1l-0.6,1.1l-0.5,1.1l-0.4,1.1l-0.4,1.2l-0.3,1.2l-0.2,1.2l-0.1,1.2l-0.1,1.2
		l0,1.2l0.1,1.2l0.2,1.2l0.2,1.2l0.3,1.2l0.4,1.2l0.5,1.1l0.5,1.1L571.4,172.6L571.4,172.6L571.4,172.6z M575.9,159.6h14.4l-0.1-0.9
		l-0.1-0.9l-0.2-0.8l-0.3-0.8l-0.4-0.7l-0.4-0.7l-0.5-0.6l-0.6-0.6l-0.7-0.5l-0.7-0.4l-0.8-0.3l-0.8-0.2l-0.8-0.1l-0.8,0l-0.8,0
		l-0.8,0.1l-0.8,0.2l-0.8,0.3l-0.7,0.4l-0.7,0.5l-0.6,0.6l-0.5,0.6l-0.1,0.1l-0.5,0.9l-0.4,0.9l-0.3,0.9l-0.2,1L575.9,159.6
		L575.9,159.6L575.9,159.6z"/>
	<polygon class="st1" points="412.6,242.3 412.6,242.3 413.5,241.9 414.3,241.3 415.1,240.7 415.4,240.5 416.1,239.8 416.7,239.1 
		417.2,238.4 417.7,237.6 418.1,236.7 418.4,235.8 418.7,234.9 418.8,234 418.9,233.1 418.8,232.1 418.7,231.4 418.6,230.5 
		418.3,229.7 418,228.8 417.6,228 417.1,227.3 416.5,226.6 415.9,226 415.7,225.7 414.7,225.1 413.6,224.6 412.5,224.1 411.4,223.7 
		410.3,223.4 409.2,223.2 409,223.2 407.3,222.8 405.6,222.4 404.1,222 403.6,221.8 403,221.6 402.6,221.2 402.2,220.8 402,220.3 
		401.8,219.8 401.8,219.3 401.9,218.7 402,218.2 402.3,217.7 402.6,217.3 403,217 403.6,216.6 404.3,216.2 405,215.9 405.8,215.7 
		406.5,215.6 407.3,215.6 408.1,215.7 408.3,215.7 409.4,216 410.4,216.3 411.4,216.8 412.4,217.3 413.3,217.8 414.2,218.5 
		414.7,218.8 419,214.1 418.1,213.3 417.1,212.5 416,211.9 414.9,211.3 413.8,210.7 412.6,210.3 411.4,209.9 410.7,209.7 
		409.6,209.5 408.4,209.4 407.2,209.4 406,209.4 404.8,209.5 403.7,209.8 402.5,210 401.4,210.4 400.3,210.8 400.2,210.9 
		399.4,211.3 398.6,211.8 397.9,212.4 397.3,213.1 396.7,213.8 396.2,214.6 395.8,215.4 395.4,216.3 395.2,217.2 395,218.1 
		394.9,219 394.9,220 395,220.9 395.2,221.8 395.5,222.7 395.9,223.5 396.3,224.4 396.9,225.1 397.2,225.5 397.8,226.2 398.5,226.8 
		399.2,227.3 400,227.7 400.5,228 401.9,228.5 403.2,228.9 404.6,229.3 406,229.6 406.2,229.6 407.3,229.8 408.5,230.1 409.6,230.4 
		410.4,230.7 410.8,231 411.3,231.4 411.6,231.9 411.8,232.3 411.9,232.9 411.9,233.5 411.8,234.1 411.6,234.7 411.5,235 
		411.1,235.4 410.7,235.8 410.1,236.1 409.6,236.3 408.7,236.5 407.7,236.7 406.8,236.8 405.8,236.8 404.9,236.7 404,236.5 
		403,236.2 402.1,235.9 401.3,235.4 400.7,235.1 399.7,234.4 398.7,233.6 397.7,232.8 397.5,232.6 393,237.4 394.2,238.3 
		395.4,239.2 396.7,240.1 398,240.8 399.4,241.6 400.1,242 401.2,242.4 402.4,242.7 403.5,243 404.7,243.2 405.8,243.3 407,243.3 
		408.2,243.3 409.3,243.1 410.5,242.9 411.6,242.6 	"/>
	<path class="st1" d="M450,240.6L450,240.6l-0.9,0.6l-1,0.5l-1,0.4l-1,0.4l-1.1,0.3l-1.1,0.2l-0.5,0.1l-1,0.1l-1,0l-1-0.1l-1-0.2
		l-1-0.3l-0.9-0.4l-0.9-0.4l-0.9-0.5l-0.8-0.6l-0.3-0.2l-0.5-0.5l-0.1-0.1v12.3h-7v-41.9h7v2.5l0.6-0.5l0.8-0.6l0.9-0.5l0.9-0.5
		l1-0.4l1-0.3l1-0.2l1-0.1l1,0l1,0l1,0.1l1,0.2l0.6,0.2l1,0.4l1,0.4l1,0.5l0.9,0.6l0.9,0.6l0.8,0.7l0.8,0.8l0.7,0.8l0.6,0.9l0.6,0.9
		l0.5,1l0.4,1l0.3,1l0.1,0.3l0.3,1.3l0.3,1.3l0.2,1.3l0.1,1.3l0,1.3l0,1.3l-0.1,1.3l-0.2,1.3l-0.3,1.3l-0.1,0.5l-0.3,1l-0.4,1
		l-0.5,1l-0.5,1l-0.6,0.9l-0.1,0.1l-0.6,0.8l-0.7,0.8l-0.8,0.7l-0.8,0.7L450,240.6L450,240.6z M446.7,219.2L446.7,219.2l0.6,0.8
		l0.5,0.9l0.5,0.9l0.4,0.9l0.3,1l0.2,1l0.1,1l0,1l-0.1,1l-0.1,1l-0.2,1l-0.3,1l-0.4,0.9l-0.5,0.9l-0.6,0.8l-0.4,0.5l-0.6,0.6
		l-0.7,0.5l-0.7,0.4l-0.8,0.4l-0.8,0.3l-0.8,0.2l-0.8,0.1l-0.8,0l-0.8-0.1l-0.8-0.2l-0.8-0.3l-0.7-0.4l-0.7-0.4l-0.2-0.2l-0.6-0.5
		l-0.5-0.5l-0.4-0.6l-0.3-0.7l-0.3-0.7l-0.2-0.7l-0.1-0.7v-3.7v-3.7l0.1-0.7l0.2-0.7l0.3-0.7l0.4-0.7l0.4-0.6l0.5-0.5l0.6-0.5
		l0.7-0.5l0.7-0.4l0.8-0.3l0.8-0.2l0.8-0.1l0.8,0l0.8,0.1l0.8,0.1l0.8,0.2l0.8,0.3l0.7,0.4l0.7,0.5l0.6,0.6L446.7,219.2L446.7,219.2
		z"/>
	<path class="st1" d="M465.9,236.5L465.9,236.5l0.6,0.9l0.7,0.9l0.7,0.8l0.6,0.6l0.9,0.7l1,0.6l1,0.6l1,0.5l1.1,0.4l0.4,0.1l1.1,0.3
		l1.1,0.2l1.2,0.1l1.2,0l1.2,0l1.2-0.1l1.1-0.2l1.1-0.3l1.1-0.4l1.1-0.4l0.4-0.2l1.1-0.5l1.1-0.6l0.4-0.3l0.9-0.6l0.8-0.7l0.4-0.3
		l-4.4-5.2l-0.7,0.6l-0.8,0.6l-0.8,0.5l-0.8,0.4l-0.9,0.3l-0.9,0.3l-0.9,0.2l-0.9,0.1h-0.1l-1,0l-1-0.1l-0.6-0.1l-0.8-0.2l-0.8-0.3
		l-0.7-0.4l-0.7-0.4l-0.6-0.5l-0.6-0.6l-0.5-0.6l-0.4-0.7l-0.3-0.7l-0.3-0.8l-0.2-0.8l-0.1-0.8l0-0.5h21.5l0-1.5l-0.1-1.5l-0.1-1.5
		l-0.2-1.5l-0.3-1.5l-0.2-0.8l-0.2-1l-0.3-1l-0.4-0.9l-0.5-0.9l0,0l-0.6-0.9l-0.6-0.9l-0.7-0.8l-0.7-0.8l-0.8-0.7l-0.9-0.6l-0.9-0.6
		l-0.9-0.5l-1-0.4l-1-0.4l-1-0.3l-1.1-0.2l-1.1-0.1l-1.1,0l-1.1,0l-1.1,0.1l-1.1,0.2l-1,0.3l-1,0.4l-1,0.4l-0.7,0.4l-0.9,0.5
		l-0.8,0.6l-0.8,0.7l-0.7,0.7l-0.5,0.6l-0.7,1l-0.6,1l-0.6,1.1l-0.5,1.1l-0.4,1.1l-0.4,1.2l-0.3,1.2l-0.2,1.2l-0.1,1.2l-0.1,1.2
		l0,1.2l0.1,1.2l0.2,1.2l0.2,1.2l0.3,1.2l0.4,1.2l0.5,1.1l0.5,1.1L465.9,236.5L465.9,236.5L465.9,236.5z M470.4,223.5h14.4l-0.1-0.9
		l-0.1-0.9l-0.2-0.8l-0.3-0.8l-0.4-0.7l-0.4-0.7l-0.5-0.6l-0.6-0.6l-0.7-0.5l-0.7-0.4l-0.8-0.3l-0.8-0.2l-0.8-0.1l-0.8,0l-0.8,0
		l-0.8,0.1l-0.8,0.2l-0.8,0.3l-0.7,0.4l-0.7,0.5l-0.6,0.6l-0.5,0.6l-0.1,0.1l-0.5,0.9l-0.4,0.9l-0.3,0.9l-0.2,1L470.4,223.5
		L470.4,223.5L470.4,223.5z"/>
	<path class="st1" d="M500.7,236.5L500.7,236.5l0.6,0.9l0.7,0.9l0.7,0.8l0.6,0.6l0.9,0.7l1,0.6l1,0.6l1,0.5l1.1,0.4l0.4,0.1l1.1,0.3
		l1.1,0.2l1.2,0.1l1.2,0l1.2,0l1.2-0.1l1.1-0.2l1.1-0.3l1.1-0.4l1.1-0.4l0.4-0.2l1.1-0.5l1.1-0.6l0.4-0.3l0.9-0.6l0.8-0.7l0.4-0.3
		l-4.4-5.2L520,234l-0.8,0.6l-0.8,0.5l-0.8,0.4l-0.9,0.3l-0.9,0.3l-0.9,0.2l-0.9,0.1h-0.1l-1,0l-1-0.1l-0.6-0.1l-0.8-0.2l-0.8-0.3
		l-0.7-0.4l-0.7-0.4l-0.6-0.5l-0.6-0.6l-0.5-0.6l-0.4-0.7l-0.3-0.7l-0.3-0.8l-0.2-0.8l-0.1-0.8l0-0.5h21.5l0-1.5l-0.1-1.5l-0.1-1.5
		l-0.2-1.5l-0.3-1.5l-0.2-0.8l-0.2-1l-0.3-1l-0.4-0.9l-0.5-0.9l0,0l-0.6-0.9l-0.6-0.9l-0.7-0.8l-0.7-0.8l-0.8-0.7l-0.9-0.6l-0.9-0.6
		l-0.9-0.5l-1-0.4l-1-0.4l-1-0.3l-1.1-0.2l-1.1-0.1l-1.1,0l-1.1,0l-1.1,0.1l-1.1,0.2l-1,0.3l-1,0.4l-1,0.4l-0.7,0.4l-0.9,0.5
		l-0.8,0.6l-0.8,0.7l-0.7,0.7l-0.5,0.6l-0.7,1l-0.6,1l-0.6,1.1l-0.5,1.1l-0.4,1.1l-0.4,1.2l-0.3,1.2l-0.2,1.2l-0.1,1.2l-0.1,1.2
		l0,1.2l0.1,1.2l0.2,1.2l0.2,1.2l0.3,1.2l0.4,1.2l0.5,1.1l0.5,1.1L500.7,236.5L500.7,236.5L500.7,236.5z M505.2,223.5h14.4l-0.1-0.9
		l-0.1-0.9l-0.2-0.8l-0.3-0.8l-0.4-0.7l-0.4-0.7l-0.5-0.6l-0.6-0.6l-0.7-0.5l-0.7-0.4l-0.8-0.3l-0.8-0.2l-0.8-0.1l-0.8,0l-0.8,0
		l-0.8,0.1l-0.8,0.2l-0.8,0.3l-0.7,0.4l-0.7,0.5l-0.6,0.6l-0.5,0.6l-0.1,0.1l-0.5,0.9l-0.4,0.9l-0.3,0.9l-0.2,1L505.2,223.5
		L505.2,223.5L505.2,223.5z"/>
	<path class="st1" d="M539.2,212L539.2,212l1-0.6l1-0.5l1-0.4l1.1-0.4l1.1-0.3l1.1-0.2l0.3,0l1-0.1l1,0l1,0.1l1,0.2l1,0.3l0.9,0.4
		l0.9,0.4l0.9,0.5l0.8,0.6l0.3,0.2l0.5,0.5l0.1,0.1v-15.1h7v44.7h-7v-2.5l-0.6,0.5l-0.8,0.6l-0.9,0.5l-0.9,0.5l-1,0.4l-1,0.3l-1,0.2
		l-1,0.1l-1,0l-1,0l-1-0.1l-1-0.2l-0.6-0.2l-1-0.4l-1-0.4l-1-0.5l-0.9-0.6l-0.9-0.6l-0.8-0.7l-0.8-0.8l-0.7-0.8l-0.6-0.9l-0.6-0.9
		l-0.5-1l-0.4-1l-0.3-1l-0.1-0.3l-0.3-1.3l-0.3-1.3l-0.2-1.3l-0.1-1.3l0-1.3l0-1.3l0.1-1.3l0.2-1.3l0.3-1.3l0.1-0.5l0.3-1l0.4-1
		l0.5-1l0.5-1l0.6-0.9l0.1-0.1l0.6-0.9l0.7-0.8l0.8-0.7l0.8-0.7L539.2,212L539.2,212z M542.5,233.4L542.5,233.4l-0.6-0.8l-0.5-0.9
		l-0.5-0.9l-0.4-0.9l-0.3-1l-0.2-1l-0.1-1l0-1l0.1-1l0.1-1l0.2-1l0.3-1l0.4-0.9l0.5-0.9l0.6-0.8l0.4-0.5l0.6-0.6l0.7-0.5l0.7-0.4
		l0.8-0.4l0.8-0.3l0.8-0.2l0.8-0.1l0.8,0l0.8,0.1l0.8,0.2l0.8,0.3l0.7,0.4l0.7,0.4l0.2,0.2l0.6,0.5l0.5,0.5l0.4,0.6l0.3,0.7l0.3,0.7
		l0.2,0.7l0.1,0.7v3.7v3.7l-0.1,0.7l-0.2,0.7l-0.3,0.7l-0.4,0.7l-0.4,0.6l-0.5,0.5l-0.6,0.5l-0.7,0.5l-0.7,0.4l-0.8,0.3l-0.8,0.2
		l-0.8,0.1l-0.8,0l-0.8-0.1l-0.8-0.1l-0.8-0.2l-0.8-0.3l-0.7-0.4l-0.7-0.5l-0.6-0.6L542.5,233.4L542.5,233.4z"/>
	<polygon class="st1" points="431.7,299.9 431.7,299.9 430.6,300 429.4,300.2 428.3,300.2 427.5,300.1 427,300.1 426.6,300 
		426.2,299.7 425.8,299.4 425.5,299.1 425.3,298.6 425.2,298.3 425.1,297.5 425,296.8 425,261.4 418,261.4 418,300.5 418.1,301.3 
		418.3,302 418.6,302.8 419,303.5 419.4,304.1 419.9,304.7 420.5,305.2 421.2,305.7 421.9,306 422.6,306.3 423.4,306.5 423.6,306.5 
		424.9,306.7 426.2,306.8 427.5,306.8 428.8,306.7 430.1,306.6 431.3,306.4 432.5,306.1 	"/>
	<path class="st1" d="M437.8,274.2v31.9h7v-31.9H437.8L437.8,274.2z M445.6,265.7L445.6,265.7l0-0.6l-0.1-0.6l-0.2-0.6l-0.3-0.6
		l-0.4-0.5l-0.5-0.4l-0.5-0.4l-0.6-0.3l-0.6-0.2l-0.6-0.1H441l-0.6,0.1l-0.6,0.2l-0.6,0.3l-0.5,0.4l-0.5,0.4l-0.4,0.5l-0.3,0.6
		l-0.2,0.6l-0.1,0.6l0,0.6l0,0.6l0.1,0.6l0.2,0.6l0.3,0.6l0.4,0.5l0.5,0.4l0.5,0.4l0.6,0.3l0.6,0.2l0.6,0.1h0.6l0.6-0.1l0.6-0.2
		l0.6-0.3l0.5-0.4l0.5-0.4l0.4-0.5l0.3-0.6l0.2-0.6l0.1-0.6L445.6,265.7L445.6,265.7z"/>
	<polygon class="st1" points="471.1,281.5 471.1,281.5 470.7,281.1 470.2,280.7 469.7,280.4 469.1,280.2 468.6,280.2 467.8,280.1 
		467,280.2 466.2,280.4 465.4,280.6 465,280.8 464.3,281.2 463.7,281.7 463.2,282.2 462.8,282.8 462.4,283.4 462.1,284.1 462,284.8 
		461.9,285.5 461.9,286 461.9,306.1 454.8,306.1 454.8,274.2 461.9,274.2 461.9,276.7 462.6,276.1 463.4,275.5 464.2,275 
		465.1,274.6 466.1,274.2 467,274 468,273.8 469,273.7 469.9,273.7 470.9,273.8 471.9,274 472.8,274.2 473.8,274.6 474.7,275 
		475.5,275.5 475.6,275.5 476.3,276.2 477,276.9 477.6,277.6 477.7,277.7 478.4,277 479.1,276.3 479.9,275.7 480.7,275.2 
		481.6,274.7 482.6,274.3 483.5,274 484.5,273.8 485.5,273.7 486.5,273.7 487.5,273.7 488.5,273.9 489.5,274.1 490.4,274.4 
		491.3,274.8 492.2,275.3 493,275.8 493.8,276.4 494.6,277.1 495.2,277.9 495.8,278.7 495.8,278.7 496.3,279.6 496.7,280.5 
		497,281.4 497.2,282.4 497.4,283.4 497.4,284.1 497.4,306.1 490.4,306.1 490.4,285.7 490.3,284.9 490.2,284.1 489.9,283.4 
		489.6,282.6 489.2,281.9 488.9,281.5 488.5,281.1 488,280.7 487.5,280.4 486.9,280.2 486.3,280.1 485.5,280.1 484.7,280.2 
		483.9,280.3 483.2,280.6 482.7,280.8 482.1,281.2 481.5,281.6 481,282.2 480.5,282.7 480.2,283.4 479.9,284.1 479.7,284.8 
		479.6,285.5 479.6,286 479.6,306.1 472.6,306.1 472.6,285.7 472.5,284.9 472.4,284.1 472.1,283.3 471.8,282.5 471.3,281.8 	"/>
	<path class="st1" d="M507.4,274.2v31.9h7v-31.9H507.4L507.4,274.2z M515.2,265.7L515.2,265.7l0-0.6l-0.1-0.6l-0.2-0.6l-0.3-0.6
		l-0.4-0.5l-0.5-0.4l-0.5-0.4l-0.6-0.3l-0.6-0.2l-0.6-0.1h-0.6l-0.6,0.1l-0.6,0.2l-0.6,0.3l-0.5,0.4l-0.5,0.4l-0.4,0.5l-0.3,0.6
		l-0.2,0.6l-0.1,0.6l0,0.6l0,0.6l0.1,0.6l0.2,0.6l0.3,0.6l0.4,0.5l0.5,0.4l0.5,0.4l0.6,0.3l0.6,0.2l0.6,0.1h0.6l0.6-0.1l0.6-0.2
		l0.6-0.3l0.5-0.4l0.5-0.4l0.4-0.5l0.3-0.6l0.2-0.6l0.1-0.6L515.2,265.7L515.2,265.7z"/>
	<polygon class="st1" points="528.2,301.6 528.2,301.6 528,300.8 527.9,299.9 527.8,299.1 527.8,298.6 527.8,282.1 527.8,280.2 
		522.3,280.2 522.3,274.2 527.8,274.2 527.8,264 534.9,261.4 534.9,274.2 543.4,274.2 543.4,280.2 534.9,280.2 534.9,282.1 
		534.9,297.5 534.9,298 535,298.4 535.2,298.8 535.5,299.2 535.9,299.5 536.3,299.7 536.7,299.8 537.7,300 538.8,300 539.8,300 
		540.8,299.8 541.9,299.6 542.6,299.4 543.3,305.7 541.7,306 540,306.3 538.3,306.4 536.7,306.6 536.2,306.6 535.3,306.6 
		534.4,306.5 533.6,306.4 532.7,306.1 531.9,305.8 531.2,305.4 530.6,304.9 530,304.4 529.4,303.8 528.9,303.2 528.6,302.4 
		528.3,301.7 	"/>
	<polygon class="st1" points="380.2,349.9 380.2,349.9 380.3,349 380.4,348.1 380.6,347.3 380.9,346.5 381.4,345.7 381.8,345 
		382.4,344.4 383,343.8 383.7,343.3 384.5,342.8 385.2,342.4 386.1,342.2 386.9,342 387.8,341.9 388.2,341.9 571.8,341.9 
		572.7,341.9 573.5,342.1 574.4,342.3 575.2,342.6 575.9,343 576.6,343.5 577.3,344.1 577.9,344.7 578.4,345.4 578.9,346.1 
		579.2,346.9 579.5,347.7 579.7,348.6 579.8,349.4 579.8,349.9 579.8,501.5 579.7,502.4 579.6,503.3 579.4,504.1 579.1,504.9 
		578.7,505.7 578.2,506.4 577.6,507 577,507.6 576.3,508.2 575.5,508.6 574.8,509 573.9,509.2 573.1,509.4 572.2,509.5 571.8,509.5 
		388.2,509.5 387.3,509.5 386.5,509.3 385.6,509.1 384.8,508.8 384.1,508.4 383.4,507.9 382.7,507.3 382.1,506.7 381.6,506 
		381.1,505.3 380.8,504.5 380.5,503.7 380.3,502.8 380.2,502 380.2,501.5 	"/>
	<path class="st2" d="M505.5,456.2v-72.6h7.3v72.6H505.5L505.5,456.2z M518.6,456.2v-68.7h7v68.7H518.6L518.6,456.2z M505.5,469.8
		v-8h26.3v-63.9h6.4v12h21.6v39.9h-21.6v20H505.5L505.5,469.8z M400.2,473.8V378l0-1.1l0.1-1.1l0.2-1.1l0.3-1.1l0.4-1.1l0.4-1.1
		l0.5-1l0.6-1l0.7-0.9l0.7-0.9l0.8-0.8l0.8-0.8l0.9-0.7l0.9-0.7l1-0.6l1-0.5l1.1-0.4l1.1-0.4l1.1-0.3l1.1-0.2l1.1-0.1l1.1,0H484
		l1.1,0l1.1,0.1l1.1,0.2l1.1,0.3l1.1,0.4l1.1,0.4l1,0.5l1,0.6l0.9,0.7l0.9,0.7l0.8,0.8l0.8,0.8l0.7,0.9l0.7,0.9l0.6,1l0.5,1l0.4,1.1
		l0.4,1.1l0.3,1.1l0.2,1.1l0.1,1.1l0,1.1v95.8l0,1.1l-0.1,1.1l-0.2,1.1l-0.3,1.1l-0.4,1.1l-0.4,1.1l-0.5,1l-0.6,1l-0.7,0.9l-0.7,0.9
		l-0.8,0.8l-0.8,0.8l-0.9,0.7l-0.9,0.7l-1,0.6l-1,0.5l-1.1,0.4l-1.1,0.4l-1.1,0.3l-1.1,0.2l-1.1,0.1l-1.1,0h-67.8l-1.1,0l-1.1-0.1
		l-1.1-0.2l-1.1-0.3l-1.1-0.4l-1.1-0.4l-1-0.5l-1-0.6l-0.9-0.7l-0.9-0.7l-0.8-0.8l-0.8-0.8l-0.7-0.9l-0.7-0.9l-0.6-1l-0.5-1
		l-0.4-1.1l-0.4-1.1l-0.3-1.1l-0.2-1.1l-0.1-1.1L400.2,473.8L400.2,473.8z M486.4,386L486.4,386l0-1.1l-0.1-1.1l-0.2-1.1l-0.3-1.1
		l-0.4-1l-0.5-1l-0.5-1l-0.6-0.9l-0.7-0.9l-0.7-0.8l-0.8-0.8l-0.9-0.7l-0.9-0.6l-0.9-0.6l-1-0.5l-1-0.4l-1.1-0.3l-1.1-0.3l-1.1-0.2
		l-1.1-0.1h-1.1l-1.1,0.1l-1.1,0.2l-1.1,0.3l-1.1,0.3l-1,0.4l-1,0.5l-0.9,0.6l-0.9,0.6l-0.9,0.7l-0.8,0.8l-0.7,0.8l-0.7,0.9
		l-0.6,0.9l-0.5,1l-0.5,1l-0.4,1l-0.3,1.1l-0.2,1.1l-0.1,1.1l0,1.1l0,1.1l0.1,1.1l0.2,1.1l0.3,1.1l0.4,1l0.5,1l0.5,1l0.6,0.9
		l0.7,0.9l0.7,0.8l0.8,0.8l0.9,0.7l0.9,0.6l0.9,0.6l1,0.5l1,0.4l1.1,0.3l1.1,0.3l1.1,0.2l1.1,0.1h1.1l1.1-0.1l1.1-0.2l1.1-0.3
		l1.1-0.3l1-0.4l1-0.5l0.9-0.6l0.9-0.6l0.9-0.7l0.8-0.8l0.7-0.8l0.7-0.9l0.6-0.9l0.5-1l0.5-1l0.4-1l0.3-1.1l0.2-1.1l0.1-1.1
		L486.4,386L486.4,386z M480,386L480,386l0-0.9l-0.1-0.9l-0.2-0.8l-0.3-0.8l-0.4-0.8l-0.5-0.7l-0.6-0.7l-0.6-0.6l-0.7-0.5l-0.7-0.4
		l-0.8-0.4l-0.8-0.3l-0.8-0.2l-0.9-0.1h-0.9l-0.9,0.1l-0.8,0.2l-0.8,0.3l-0.8,0.4l-0.7,0.4l-0.7,0.5l-0.6,0.6l-0.6,0.7l-0.5,0.7
		l-0.4,0.8l-0.3,0.8l-0.2,0.8l-0.1,0.9l0,0.9l0,0.9l0.1,0.9l0.2,0.8l0.3,0.8l0.4,0.8l0.5,0.7l0.6,0.7l0.6,0.6l0.7,0.5l0.7,0.4
		l0.8,0.4l0.8,0.3l0.8,0.2l0.9,0.1h0.9l0.9-0.1l0.8-0.2l0.8-0.3l0.8-0.4l0.7-0.4l0.7-0.5l0.6-0.6l0.6-0.7l0.5-0.7l0.4-0.8l0.3-0.8
		l0.2-0.8l0.1-0.9L480,386L480,386z M465.6,449.8L465.6,449.8l0-1.4l-0.1-1.4l-0.2-1.3l-0.3-1.3l-0.3-1.3l-0.4-1.3l-0.5-1.3
		l-0.5-1.3l-0.6-1.2l-0.7-1.2l-0.7-1.2l-0.8-1.1l-0.8-1.1l-0.9-1l-1-1l-1-0.9l-1-0.9l-1.1-0.8l-1.1-0.8l-1.2-0.7l-1.2-0.6l-1.2-0.6
		l-1.3-0.5l-1.3-0.4l-1.3-0.4l-1.3-0.3l-1.3-0.2l-1.3-0.1l-1.4-0.1h-1.4l-1.4,0.1l-1.3,0.1l-1.3,0.2L434,425l-1.3,0.4l-1.3,0.4
		l-1.3,0.5l-1.2,0.6l-1.2,0.6l-1.2,0.7l-1.1,0.8l-1.1,0.8l-1,0.9l-1,0.9l-1,1l-0.9,1l-0.8,1.1l-0.8,1.1l-0.7,1.2l-0.7,1.2l-0.6,1.2
		l-0.5,1.3l-0.5,1.3l-0.4,1.3l-0.3,1.3l-0.3,1.3l-0.2,1.3l-0.1,1.4l0,1.4l0,1.4l0.1,1.4l0.2,1.3l0.3,1.3l0.3,1.3l0.4,1.3l0.5,1.3
		l0.5,1.3l0.6,1.2l0.7,1.2l0.7,1.2l0.8,1.1l0.8,1.1l0.9,1l1,1l1,0.9l1,0.9l1.1,0.8l1.1,0.8l1.2,0.7l1.2,0.6l1.2,0.6l1.3,0.5l1.3,0.4
		l1.3,0.4l1.3,0.3l1.3,0.2l1.3,0.1l1.4,0.1h1.4l1.4-0.1l1.3-0.1l1.3-0.2l1.3-0.3l1.3-0.4l1.3-0.4l1.3-0.5l1.2-0.6l1.2-0.6l1.2-0.7
		l1.1-0.8l1.1-0.8l1-0.9l1-0.9l1-1l0.9-1l0.8-1.1l0.8-1.1l0.7-1.2l0.7-1.2l0.6-1.2l0.5-1.3l0.5-1.3l0.4-1.3l0.3-1.3l0.3-1.3l0.2-1.3
		l0.1-1.4L465.6,449.8L465.6,449.8z M457.6,449.8L457.6,449.8l0-1.2l-0.1-1.2l-0.2-1.2l-0.3-1.1l-0.3-1.1l-0.4-1.1l-0.5-1.1l-0.6-1
		l-0.6-1l-0.7-0.9l-0.8-0.9l-0.8-0.8l-0.9-0.8l-0.9-0.7l-1-0.7l-1-0.6l-1.1-0.5l-1.1-0.5l-1.1-0.4l-1.1-0.3l-1.2-0.2l-1.2-0.2
		l-1.2-0.1h-1.2l-1.2,0.1l-1.2,0.2l-1.2,0.2l-1.1,0.3l-1.1,0.4l-1.1,0.5l-1.1,0.5l-1,0.6l-1,0.7l-0.9,0.7l-0.9,0.8l-0.8,0.8
		l-0.8,0.9l-0.7,0.9l-0.6,1l-0.6,1l-0.5,1.1l-0.4,1.1l-0.3,1.1l-0.3,1.1l-0.2,1.2l-0.1,1.2l0,1.2l0,1.2l0.1,1.2l0.2,1.2l0.3,1.1
		l0.3,1.1l0.4,1.1l0.5,1.1l0.6,1l0.6,1l0.7,0.9l0.8,0.9l0.8,0.8l0.9,0.8l0.9,0.7l1,0.7l1,0.6l1.1,0.5l1.1,0.5l1.1,0.4l1.1,0.3
		l1.2,0.2l1.2,0.2l1.2,0.1h1.2l1.2-0.1l1.2-0.2l1.2-0.2l1.1-0.3l1.1-0.4l1.1-0.5l1.1-0.5l1-0.6l1-0.7l0.9-0.7l0.9-0.8l0.8-0.8
		l0.8-0.9l0.7-0.9l0.6-1l0.6-1l0.5-1.1l0.4-1.1l0.3-1.1l0.3-1.1l0.2-1.2l0.1-1.2L457.6,449.8L457.6,449.8z"/>
	<path class="st1" d="M327.2,122.5L327.2,122.5l0-1.3l0.1-1.3l0.2-1.3l0.3-1.3l0.3-1.3l0.4-1.3l0.5-1.2l0.5-1.2l0.6-1.2l0.7-1.1
		l0.7-1.1l0.8-1.1l0.8-1l0.9-1l0.9-0.9l1-0.9l1-0.8l1.1-0.8l1.1-0.7l1.2-0.6l1.2-0.6l1.2-0.5l1.2-0.4l1.3-0.4l1.3-0.3l1.3-0.2
		l1.3-0.1l1.3-0.1l0.7,0h257.7l1.3,0l1.3,0.1l1.3,0.2l1.3,0.3l1.3,0.3l1.3,0.4l1.2,0.5l1.2,0.5l1.2,0.6l1.1,0.7l1.1,0.7l1.1,0.8
		l1,0.8l1,0.9l0.9,0.9l0.9,1l0.8,1l0.8,1.1l0.7,1.1l0.6,1.2l0.6,1.2l0.5,1.2l0.4,1.2l0.4,1.3l0.3,1.3l0.2,1.3l0.1,1.3l0.1,1.3l0,0.7
		v395l0,1.3l-0.1,1.3l-0.2,1.3l-0.3,1.3l-0.3,1.3l-0.4,1.3l-0.5,1.2l-0.5,1.2l-0.6,1.2l-0.7,1.1l-0.7,1.1l-0.8,1.1l-0.8,1l-0.9,1
		l-0.9,0.9l-1,0.9l-1,0.8l-1.1,0.8l-1.1,0.7l-1.2,0.6l-1.2,0.6l-1.2,0.5l-1.2,0.4l-1.3,0.4l-1.3,0.3l-1.3,0.2l-1.3,0.1l-1.3,0.1
		l-0.7,0H351.2l-1.3,0l-1.3-0.1l-1.3-0.2l-1.3-0.3l-1.3-0.3l-1.3-0.4l-1.2-0.5l-1.2-0.5l-1.2-0.6l-1.1-0.7l-1.1-0.7l-1.1-0.8l-1-0.8
		l-1-0.9l-0.9-0.9l-0.9-1l-0.8-1l-0.8-1.1l-0.7-1.1l-0.6-1.2l-0.6-1.2l-0.5-1.2l-0.4-1.2l-0.4-1.3l-0.3-1.3l-0.2-1.3l-0.1-1.3
		l-0.1-1.3l0-0.7V122.5L327.2,122.5z M339.2,122.5L339.2,122.5l0-1l0.1-1l0.2-1l0.3-1l0.4-0.9l0.5-0.9l0.5-0.9l0.6-0.8l0.7-0.8
		l0.7-0.7l0.8-0.6l0.8-0.6l0.9-0.5l0.9-0.4l1-0.3l1-0.3l1-0.2l1-0.1l0.5,0h257.7l1,0l1,0.1l1,0.2l1,0.3l0.9,0.4l0.9,0.5l0.9,0.5
		l0.8,0.6l0.8,0.7l0.7,0.7l0.6,0.8l0.6,0.8l0.5,0.9l0.4,0.9l0.3,1l0.3,1l0.2,1l0.1,1l0,0.5v395l0,1l-0.1,1l-0.2,1l-0.3,1l-0.4,0.9
		l-0.5,0.9l-0.5,0.9l-0.6,0.8l-0.7,0.8l-0.7,0.7l-0.8,0.6l-0.8,0.6l-0.9,0.5l-0.9,0.4l-1,0.3l-1,0.3l-1,0.2l-1,0.1l-0.5,0H351.2
		l-1,0l-1-0.1l-1-0.2l-1-0.3l-0.9-0.4l-0.9-0.5l-0.9-0.5l-0.8-0.6l-0.8-0.7l-0.7-0.7l-0.6-0.8l-0.6-0.9l-0.5-0.9L340,522l-0.3-1
		l-0.3-1l-0.2-1l-0.1-1l0-0.5V122.5L339.2,122.5z"/>
	<polygon class="st3" points="327.2,122.5 327.2,122.5 327.2,121.2 327.3,119.9 327.5,118.6 327.8,117.3 328.1,116 328.5,114.7 
		329,113.5 329.5,112.3 330.1,111.1 330.7,110 331.5,108.9 332.3,107.8 333.1,106.8 334,105.8 334.9,104.9 335.9,104 337,103.2 
		338,102.4 339.2,101.8 340.3,101.1 341.5,100.6 342.8,100.1 344,99.6 345.3,99.3 346.6,99 347.9,98.8 349.2,98.6 350.5,98.6 
		351.2,98.6 608.9,98.6 610.2,98.6 611.5,98.7 612.8,98.9 614.1,99.1 615.4,99.5 616.6,99.8 617.9,100.3 619.1,100.8 620.3,101.4 
		621.4,102.1 622.5,102.8 623.6,103.6 624.6,104.4 625.6,105.3 626.5,106.3 627.3,107.3 628.1,108.3 628.9,109.4 629.6,110.5 
		630.2,111.7 630.8,112.9 631.3,114.1 631.7,115.4 632.1,116.6 632.4,117.9 632.6,119.2 632.7,120.5 632.8,121.8 632.8,122.5 
		632.8,517.5 632.8,518.8 632.7,520.1 632.5,521.5 632.2,522.8 631.9,524 631.5,525.3 631,526.5 630.5,527.7 629.9,528.9 
		629.3,530.1 628.5,531.2 627.7,532.2 626.9,533.2 626,534.2 625.1,535.1 624.1,536 623,536.8 622,537.6 620.8,538.3 619.7,538.9 
		618.5,539.4 617.3,539.9 616,540.4 614.7,540.7 613.4,541 612.1,541.2 610.8,541.4 609.5,541.5 608.9,541.5 351.2,541.5 
		349.8,541.4 348.5,541.3 347.2,541.1 345.9,540.9 344.6,540.6 343.4,540.2 342.1,539.7 340.9,539.2 339.7,538.6 338.6,537.9 
		337.5,537.2 336.4,536.4 335.4,535.6 334.5,534.7 333.5,533.7 332.7,532.7 331.9,531.7 331.1,530.6 330.4,529.5 329.8,528.3 
		329.2,527.1 328.7,525.9 328.3,524.7 327.9,523.4 327.6,522.1 327.4,520.8 327.3,519.5 327.2,518.2 327.2,517.5 	"/>
</g>
</svg>
