<?xml version="1.0" encoding="utf-8"?>
<!-- Generator: Adobe Illustrator 26.0.2, SVG Export Plug-In . SVG Version: 6.00 Build 0)  -->
<svg version="1.1" id="Layer_1" xmlns="http://www.w3.org/2000/svg" xmlns:xlink="http://www.w3.org/1999/xlink" x="0px" y="0px"
	 viewBox="0 0 960 640" style="enable-background:new 0 0 960 640;" xml:space="preserve">
<style type="text/css">
	.st0{fill-rule:evenodd;clip-rule:evenodd;fill:#F4D209;}
	.st1{fill-rule:evenodd;clip-rule:evenodd;fill:#BD3136;}
	.st2{fill-rule:evenodd;clip-rule:evenodd;fill:#FFFFFF;}
	.st3{fill-rule:evenodd;clip-rule:evenodd;}
</style>
<g>
	<path class="st0" d="M213.6,537.1c-5.9,0-10.5-4.8-10.5-10.5l0,0V396.9l0,0c0-25.3,17.5-46.8,40.4-54.2
		c44-15.2,99.9-56.6,99.9-103.3c0-75.5,61.1-136.6,136.5-136.6c75.5,0,136.6,61.1,136.6,136.6c0,46.8,56.6,89.1,101.1,103.7
		c22,7.9,39.2,29.1,39.2,53.8l0,0v129.7l0,0c0,5.7-4.7,10.5-10.5,10.5l0,0L213.6,537.1L213.6,537.1z"/>
	<path class="st1" d="M479.9,134c58,0,105,47,105,105c0,58-47,105-105,105c-58,0-105-47-105-105C374.9,181,421.9,134,479.9,134"/>
	<path class="st2" d="M479.9,155.4c46.3,0,83.9,37.7,83.9,84.1c0,46.4-37.6,84.1-83.9,84.1c-46.3,0-83.9-37.7-83.9-84.1
		C396,193.1,433.6,155.4,479.9,155.4"/>
	<path class="st3" d="M520.2,214.1c8.3,0,16.5,4.9,16.8,25.2c0.3,20.4-7.5,26.7-16.8,26.7l0,0c-9.3,0-17.1-6.3-16.8-26.7
		C503.7,219.1,512,214.1,520.2,214.1L520.2,214.1z M520.2,199.5c11.2-0.1,33,6.4,33,40.4c0,34.2-20.5,41-33,41l0,0
		c-12.4,0-33-6.8-33-41C487.3,205.9,509,199.3,520.2,199.5L520.2,199.5z"/>
	<path class="st3" d="M459.3,238c0.7,0,9.2-3.6,9.2-15.7c0-12.1-10.9-23-29.1-23c-18,0-29,8.9-30.3,23.9l0,0l16.4,1.7l0,0
		c1.2-7.2,4.9-11.5,15.1-11.5c10,0,11.5,7.1,11.5,9.6c-0.1,6.9-4.3,9.6-17.5,9.6l0,0v13.1l0,0c3.9,0.3,11.7,0,14,1.6
		c4.4,2.9,4.4,5.2,4.4,7.9c0,1.7-0.1,10.9-11.9,10.9c-11.9,0-14.4-6.4-15.6-12.4l0,0l-16.4,2.9l0,0c1.9,13.3,11.2,23.9,31.8,23.9
		c20.4,0,29-13.7,29-24.5C469.8,245.2,463.3,239,459.3,238L459.3,238z"/>
	<path class="st3" d="M480,379.4H255.6c-14.5,0-26.3,11.8-26.3,26.3v78.9c0,14.5,11.8,26.3,26.3,26.3h448.7
		c14.5,0,26.3-11.8,26.3-26.3v-78.9c0-14.5-11.8-26.3-26.3-26.3H480L480,379.4z"/>
	<path class="st2" d="M480,392.7H255.6c-7.3,0-13.1,5.9-13.1,13.1v78.7c0,7.3,5.9,13.1,13.1,13.1h448.8c7.3,0,13.1-5.9,13.1-13.1
		v-78.7c0-7.3-5.9-13.1-13.1-13.1H480L480,392.7z"/>
	<polygon class="st3" points="288.6,420.7 272.6,420.7 272.6,469.6 305.8,469.6 305.8,460.6 282.2,460.6 282.2,449.6 302.2,449.6 
		302.2,440.6 282.2,440.6 282.2,429.7 304.3,429.7 304.3,420.7 296.2,420.7 	"/>
	<polygon class="st3" points="319.8,420.7 329.8,420.7 329.8,460.2 351.4,460.2 351.4,469.8 319.8,469.8 	"/>
	<polygon class="st3" points="355.6,444.4 355.6,469.6 366.3,469.6 366.3,454.7 372,448.8 386.1,469.6 399.2,469.6 379.7,441.4 
		398.7,420.7 385.3,420.7 366.3,441 366.3,420.7 355.6,420.7 355.6,434 	"/>
	<polygon class="st3" points="409.6,420.7 419.5,420.7 419.5,469.6 409.6,469.6 	"/>
	<polygon class="st3" points="440.4,420.7 444.3,420.7 468.3,454.4 468.3,420.7 477.8,420.7 477.8,469.8 466.7,469.8 444.6,436.4 
		444.6,469.8 435,469.8 435,420.7 437.4,420.7 	"/>
	<path class="st3" d="M523.6,436.5l9.1-4.1l0,0c-3.1-6-10.3-12.7-20.3-12.7c-10.1,0-23.2,7.5-23.2,25c0,17.3,12.7,25.3,23.1,25.3
		c6.8,0,11.5-2.9,12.3-3.5l0,0v3.1h8.8v-28h-20.9v8.1h12.1l0,0c0,4.8-4.3,11.5-12.1,11.5c-8,0-13.1-6.9-13.1-16.3
		c0-9.5,5.6-15.6,12.5-15.6C518.6,429.3,521.8,433.2,523.6,436.5L523.6,436.5z"/>
	<polygon class="st3" points="570.9,429.7 565.7,429.7 565.7,469.6 556.1,469.6 556.1,429.7 542.1,429.7 542.1,420.7 579.5,420.7 
		579.5,429.7 573.7,429.7 	"/>
	<path class="st3" d="M609.4,429.6c-6.7,0-12.9,5.1-12.9,15.7c0,10.7,6.5,15.9,12.9,15.9l0,0c6.3,0,12.9-5.2,12.9-15.9
		C622.3,434.7,615.9,429.6,609.4,429.6L609.4,429.6z M609.4,420c-9.5,0-23.2,7.3-23.2,25.2c0,17.7,13.5,25.1,23.2,25.1l0,0
		c9.7,0,23.1-7.3,23.1-25.1C632.4,427.3,618.7,420,609.4,420L609.4,420z"/>
	<polygon class="st3" points="650.5,420.7 654.3,420.7 678.2,454.4 678.2,420.7 687.8,420.7 687.8,469.8 676.6,469.8 654.6,436.4 
		654.6,469.8 644.9,469.8 644.9,420.7 647.3,420.7 	"/>
</g>
</svg>
